<?xml version="1.0" standalone="no"?>
<!DOCTYPE svg PUBLIC "-//W3C//DTD SVG 1.1//EN" "http://www.w3.org/Graphics/SVG/1.1/DTD/svg11.dtd" >
<svg>
<metadata>
Created by FontForge 20110222 at Tue Feb  3 14:06:21 2015
 By deploy user
Copyright (c) 2002, 2005 Parachute :, www.parachute.gr.  All rights reserved.
</metadata>
<defs>
<font id="PFDinTextCondPro-Medium" horiz-adv-x="1818" >
  <font-face 
    font-family="PF Din Text Cond Pro Medium"
    font-weight="500"
    font-stretch="normal"
    units-per-em="1000"
    panose-1="2 0 5 0 0 0 0 2 0 4"
    ascent="750"
    descent="-250"
    x-height="494"
    cap-height="696"
    bbox="-185 -275 1760 944"
    underline-thickness="50"
    underline-position="-50"
    unicode-range="U+0020-FB05"
  />
<missing-glyph horiz-adv-x="445" 
d="M0 699h445v-699h-445v699zM344 66l-121 223l-123 -223h244zM344 633h-244l123 -222zM66 133l118 217l-118 217v-434zM379 133v434l-118 -218z" />
    <glyph glyph-name="ff" unicode="ff" horiz-adv-x="527" 
d="M250 721q26 0 50.5 -4.5t47.5 -14.5q18 19 43.5 28t54.5 9h69v-98h-47q-23 0 -33 -13.5t-10 -34.5v-99h87v-87h-87v-407h-111v407h-134v-407h-110v407h-53v87h53v52q0 45 13 78t37 54.5t57 32t73 10.5zM314 494v73v20t1 19q-26 13 -59 13q-26 0 -41 -7t-23 -18.5t-10 -26
t-2 -28.5v-45h134z" />
    <glyph glyph-name="fi" unicode="fi" horiz-adv-x="484" 
d="M70 495v76q0 44 14.5 75.5t39 51t57.5 28.5t69 9q48 0 90 -13.5t77 -47.5l-62 -79q-22 20 -48 29t-53 9q-22 0 -36 -6t-22.5 -15.5t-11.5 -22t-3 -24.5v-70h245v-495h-110v407h-135v-407h-111v407h-53v88h53z" />
    <glyph glyph-name="fl" unicode="fl" horiz-adv-x="508" 
d="M457 -3q-65 0 -102 28.5t-37 105.5v490q-22 8 -37.5 10t-26.5 2q-23 0 -37 -6t-22 -16t-11 -23t-3 -26v-67h90v-88h-90v-407h-111v407h-53v88h53v74q0 44 13 75.5t36.5 51.5t55 29t68.5 9q25 0 74 -6t111 -30v-550q0 -29 10.5 -40t33.5 -11h16v-100h-31z" />
    <glyph glyph-name="ffi" unicode="ffi" horiz-adv-x="728" 
d="M180 0h-110v407h-53v88h53v47q0 47 13.5 80.5t37.5 54.5t57 31t72 10q29 0 56.5 -5.5t53.5 -18.5q25 23 59.5 34t75.5 11q51 0 94 -16t74 -51q-4 -5 -13 -16t-19 -23t-19.5 -23t-13.5 -16q-19 20 -44 31.5t-55 11.5q-22 0 -36 -6t-22.5 -15.5t-11.5 -22t-3 -24.5v-74h245
v-495h-110v407h-135v-407h-111v407h-135v-407zM315 495v83q0 6 0.5 11.5t1.5 11.5q-30 16 -63 16q-24 0 -39 -7.5t-22.5 -19t-10 -26t-2.5 -28.5v-41h135z" />
    <glyph glyph-name="ffl" unicode="ffl" horiz-adv-x="750" 
d="M314 494v76v18t1 14q-11 6 -27 10t-32 4q-24 0 -39 -6.5t-23.5 -17.5t-11 -24.5t-2.5 -28.5v-45h134zM498 637q-22 0 -36 -6t-22.5 -16t-11.5 -23t-3 -26v-72h88v-87h-88v-407h-111v407h-134v-407h-111v407h-52v87h52v47q0 47 13.5 80.5t37.5 54.5t57 31t72 10
q29 0 57 -5.5t53 -18.5q25 23 59 34t73 11q28 0 75 -6t104 -29v-556q0 -29 10.5 -40t33.5 -11h16v-99h-31q-32 0 -58 6.5t-44 21.5t-27.5 41t-9.5 65v494q-22 8 -36.5 10t-25.5 2z" />
    <glyph glyph-name="ft" unicode="ft" horiz-adv-x="521" 
d="M424 407v-253q0 -27 10 -41t37 -14h24v-99h-55q-63 0 -94 35t-31 87v285h-134v-407h-111v407h-53v88h53v100q0 34 10 58.5t28 41t42 24.5t52 8h65v-98h-43q-23 0 -33 -14t-10 -34v-86h135v131h107v-131h68v-88h-67z" />
    <glyph glyph-name="fj" unicode="fj" horiz-adv-x="484" 
d="M70 495v76q0 44 14.5 75.5t39 51t57.5 28.5t69 9q48 0 90 -13.5t77 -47.5l-62 -79q-22 20 -48 29t-53 9q-22 0 -36 -6t-22.5 -15.5t-11.5 -22t-3 -24.5v-70h245v-551q0 -66 -38 -104.5t-113 -38.5h-33v100h22q31 1 41.5 17t10.5 45v444h-135v-407h-111v407h-53v88h53z
" />
    <glyph glyph-name="ffj" unicode="ffj" horiz-adv-x="731" 
d="M180 0h-111v407h-52v88h52v47q0 47 13.5 80.5t37.5 54.5t57 31t72 10q29 0 57 -5.5t53 -18.5q25 23 60 34t76 11q51 0 93.5 -16t74.5 -51q-4 -5 -13.5 -16t-19.5 -23t-19 -23t-13 -16q-19 20 -44 31.5t-56 11.5q-21 0 -35.5 -6t-22.5 -15.5t-11.5 -22t-3.5 -24.5v-74h246
v-551q0 -67 -38 -105t-118 -38h-29v100h22q31 1 41.5 18t10.5 49v439h-135v-407h-110v407h-135v-407zM315 495v83v11.5t2 11.5q-30 16 -64 16q-24 0 -38.5 -7.5t-22 -19t-10 -26t-2.5 -28.5v-41h135z" />
    <glyph glyph-name=".notdef" horiz-adv-x="445" 
d="M0 699h445v-699h-445v699zM344 66l-121 223l-123 -223h244zM344 633h-244l123 -222zM66 133l118 217l-118 217v-434zM379 133v434l-118 -218z" />
    <glyph glyph-name="quotedbl" unicode="&#x22;" horiz-adv-x="320" 
d="M185 485v211h85v-211h-85zM48 485v211h85v-211h-85z" />
    <glyph glyph-name="numbersign" unicode="#" horiz-adv-x="476" 
d="M12 288h86q1 6 3.5 24t6 38.5t6.5 38.5l4 24h-73v76h85l33 207h83l-33 -207h88q2 12 7 41.5t10.5 62t10 62t6.5 41.5h83l-35 -207h77v-76h-89l-20 -125h77v-76h-89q-2 -13 -7 -43l-10.5 -63t-10 -63t-6.5 -43h-83q2 13 7 43l10.5 63t10 63t6.5 43h-88q-2 -13 -7 -43
l-10.5 -63t-10 -63t-6.5 -43h-84l35 212h-73v76zM180 288h89l4 24t6.5 38.5t6.5 38.5l4 24h-89z" />
    <glyph glyph-name="dollar" unicode="$" horiz-adv-x="465" 
d="M438 198q0 -90 -46.5 -143t-134.5 -59v-95h-45v95q-69 4 -116 38t-76 88l91 58q18 -32 42.5 -52.5t58.5 -25.5v202q-45 16 -77.5 34.5t-54 42t-32 53t-10.5 68.5q0 40 12.5 74.5t35 60.5t54.5 42t72 20v72h45v-72q64 -5 106.5 -35.5t64.5 -72.5l-83 -62q-31 52 -88 61
v-181q51 -17 85.5 -37t55.5 -45t30.5 -57t9.5 -72zM324 194q0 38 -17.5 58.5t-49.5 34.5v-184q38 6 52.5 31t14.5 60zM150 505q0 -27 16 -45.5t46 -32.5v164q-30 -6 -46 -29.5t-16 -56.5z" />
    <glyph glyph-name="percent" unicode="%" horiz-adv-x="720" 
d="M206 -17h-74l370 730h74zM293 387q0 -26 -10 -46.5t-26.5 -35t-38.5 -22t-47 -7.5q-24 0 -46 7.5t-38.5 22t-26.5 35t-10 46.5v202q0 26 9.5 46.5t26 35t38.5 22t47 7.5q51 0 86.5 -29.5t35.5 -81.5v-202zM209 588q0 17 -10 27.5t-28 10.5t-28.5 -10.5t-10.5 -27.5v-200
q0 -17 11 -27.5t28 -10.5t27.5 10.5t10.5 27.5v200zM669 105q0 -26 -10 -46t-26.5 -33.5t-39 -21t-46.5 -7.5t-46 7.5t-38.5 21t-26.5 33.5t-10 46v207q0 25 10 45.5t26.5 34.5t38.5 21.5t46 7.5q25 0 47 -7.5t38.5 -21.5t26.5 -34.5t10 -45.5v-207zM585 310q0 17 -10 26.5
t-28 9.5t-28.5 -9.5t-10.5 -26.5v-203q0 -17 11 -26.5t28 -9.5t27.5 9.5t10.5 26.5v203z" />
    <glyph glyph-name="ampersand" unicode="&#x26;" horiz-adv-x="565" 
d="M385 55q-34 -32 -73 -46.5t-81 -14.5q-43 0 -76 14t-55.5 38.5t-34 57.5t-11.5 71q0 63 28 111t85 93q-26 40 -46 77t-20 83q0 35 11 65t32.5 51.5t52.5 34t71 12.5q48 0 91.5 -18t74.5 -61q-19 -16 -37.5 -32t-37.5 -33q-23 27 -43.5 36.5t-45.5 9.5q-32 0 -47.5 -20
t-15.5 -44q0 -25 19.5 -63t47.5 -81t59.5 -87t55.5 -80q10 22 15.5 47t8.5 50l98 -11q-5 -45 -19 -92.5t-37 -85.5q7 -12 19.5 -30.5t26.5 -38.5t27 -38t21 -30h-125zM221 297q-30 -26 -46.5 -54.5t-16.5 -62.5q0 -36 21 -61.5t62 -25.5q25 0 49.5 12t40.5 29z" />
    <glyph glyph-name="quoteright" unicode="&#x2019;" horiz-adv-x="257" 
d="M62 456l32 131h-29v133h125v-129l-67 -135h-61z" />
    <glyph glyph-name="parenleft" unicode="(" horiz-adv-x="293" 
d="M221 -122q-35 43 -65.5 92t-53.5 103t-36.5 112.5t-13.5 120.5q0 63 13 121.5t35.5 112t52.5 101t63 89.5l64 -36q-29 -43 -51 -90.5t-37.5 -97t-23.5 -99.5t-8 -97q0 -103 32.5 -205t86.5 -185z" />
    <glyph glyph-name="parenright" unicode=")" horiz-adv-x="293" 
d="M269 305q0 -62 -13.5 -120t-36.5 -112t-53.5 -103t-65.5 -92q-2 2 -10.5 8t-18.5 13t-18.5 13t-10.5 8q55 83 87 185t32 205q0 47 -8 96.5t-23.5 99t-38 97.5t-50.5 91l64 36q33 -42 63 -90t52.5 -101t35.5 -112t13 -122z" />
    <glyph glyph-name="asterisk" unicode="*" horiz-adv-x="393" 
d="M324 423l-67 -49l-61 103q-2 -3 -11.5 -18t-20.5 -33t-20 -33.5t-11 -18.5l-67 48l79 93q-4 1 -20.5 5t-36 9.5t-36.5 9.5t-20 5l25 77l108 -45q0 4 -1.5 21.5t-3.5 38.5t-3.5 38.5t-1.5 21.5h82l-11 -120q3 1 19 7.5t35 14.5t35 14.5t19 8.5l26 -77l-115 -29z" />
    <glyph glyph-name="plus" unicode="+" horiz-adv-x="465" 
d="M277 252v-173h-89v173h-169v88h169v172h89v-172h169v-88h-169z" />
    <glyph glyph-name="comma" unicode="," horiz-adv-x="245" 
d="M56 -134l32 131h-29v132h124v-128l-66 -135h-61z" />
    <glyph glyph-name="hyphen" unicode="-" horiz-adv-x="391" 
d="M49 213v98h298v-98h-298z" />
    <glyph glyph-name="period" unicode="." horiz-adv-x="241" 
d="M58 0v130h124v-130h-124z" />
    <glyph glyph-name="slash" unicode="/" horiz-adv-x="308" 
d="M84 -42h-87l219 767h88z" />
    <glyph glyph-name="zero" unicode="0" horiz-adv-x="465" 
d="M416 169q0 -42 -14.5 -74t-39.5 -54.5t-57.5 -34t-68.5 -11.5t-68.5 11.5t-57 34t-39 54.5t-14.5 74v357q0 42 14.5 74.5t39.5 55t57 34t68 11.5t69 -11.5t57.5 -34t39 -55t14.5 -74.5v-357zM305 526q0 33 -19 51.5t-50 18.5t-50 -18.5t-19 -51.5v-356q0 -34 19 -52
t50 -18t50 18t19 52v356z" />
    <glyph glyph-name="one" unicode="1" horiz-adv-x="465" 
d="M217 0v572l-97 -72v119l103 77h104v-696h-110z" />
    <glyph glyph-name="two" unicode="2" horiz-adv-x="465" 
d="M44 513q6 90 57 139t128 49q86 0 134 -45t48 -130q0 -40 -11.5 -76.5t-34.5 -72.5l-181 -271h221v-106h-359v99l225 335q14 21 19 44.5t5 43.5q0 28 -15 51t-52 23q-30 0 -50 -24t-23 -75z" />
    <glyph glyph-name="three" unicode="3" horiz-adv-x="465" 
d="M339 362q27 -12 42.5 -28.5t24 -37.5t10.5 -45t2 -51q0 -45 -11.5 -82.5t-35.5 -65t-60 -42.5t-85 -15q-36 0 -67.5 10t-55.5 31t-39.5 53t-19.5 76l110 17q6 -83 73 -83q37 0 56.5 27t19.5 75q0 57 -19 85t-65 28h-43v93h44q44 0 62.5 24t18.5 69q0 17 -3.5 34.5
t-11.5 31t-21.5 22t-33.5 8.5q-33 0 -49.5 -21.5t-21.5 -64.5q-9 1 -23.5 3.5t-31 5t-31 5t-23.5 3.5q9 79 58 126.5t124 47.5q55 0 90 -16.5t55.5 -44t28.5 -63t8 -73.5q0 -19 -3.5 -40t-12.5 -40.5t-23.5 -36t-36.5 -25.5z" />
    <glyph glyph-name="four" unicode="4" horiz-adv-x="465" 
d="M387 101v-101h-110v101h-251v97l194 498h116l-191 -491h132v176h110v-176h51v-104h-51z" />
    <glyph glyph-name="five" unicode="5" horiz-adv-x="465" 
d="M175 434q22 20 47 26t45 6q46 0 75 -17t45.5 -46t22.5 -69t6 -86q0 -60 -9 -107t-30 -79.5t-56 -49.5t-88 -17q-39 0 -71.5 9.5t-56.5 30.5t-38 56t-17 86l111 7q2 -46 20 -65.5t52 -19.5q25 0 39 12t21 32.5t9 46t2 52.5q0 24 -2 46.5t-9 40t-20.5 28t-37.5 10.5
q-20 0 -38.5 -11t-29.5 -37h-99v377h339v-103h-236l2 -159h2z" />
    <glyph glyph-name="six" unicode="6" horiz-adv-x="465" 
d="M231 400q10 5 23.5 7.5t24.5 2.5q33 0 58.5 -14t43.5 -39.5t27.5 -61t9.5 -78.5q0 -102 -44.5 -162t-141.5 -60q-90 0 -133 50.5t-43 156.5q0 47 8.5 87.5t23.5 74.5q5 12 17.5 40t28.5 63.5t33.5 74t32.5 71t25.5 55.5t12.5 28h121q-5 -12 -15.5 -35t-23 -52
t-26.5 -60.5t-26.5 -60.5t-23 -52t-16.5 -34zM238 317q-22 0 -36 -9t-22 -24t-11 -35.5t-3 -43.5q0 -52 14 -79t54 -27q38 0 54.5 27t16.5 87q-1 47 -14.5 75.5t-52.5 28.5z" />
    <glyph glyph-name="seven" unicode="7" horiz-adv-x="465" 
d="M204 0h-115l204 591h-135v-87h-105v192h361v-98z" />
    <glyph glyph-name="eight" unicode="8" horiz-adv-x="465" 
d="M422 200q0 -57 -15.5 -96t-42 -63.5t-60.5 -35t-70 -10.5q-38 0 -71.5 10.5t-59 35t-40.5 63.5t-15 96q0 54 16.5 97.5t58.5 63.5v2q-42 23 -55 59.5t-13 83.5q0 94 49.5 144.5t129.5 50.5q40 0 73.5 -11.5t57.5 -35.5t37 -60.5t13 -87.5q0 -47 -14 -84t-52 -59v-2
q22 -10 36 -26.5t22 -38t11.5 -46t3.5 -50.5zM235 596q-36 0 -52.5 -24.5t-16.5 -69.5q0 -51 17 -73t52 -22q70 0 70 98q0 44 -16.5 67.5t-53.5 23.5zM235 315q-36 0 -56 -26t-20 -80q0 -62 20.5 -86.5t55.5 -24.5q40 0 57.5 28.5t17.5 84.5q0 104 -75 104z" />
    <glyph glyph-name="nine" unicode="9" horiz-adv-x="465" 
d="M239 296q-9 -5 -21.5 -7t-23.5 -2q-35 0 -61.5 14t-44 39.5t-26 60.5t-8.5 78q0 51 10.5 92.5t33 70t57.5 44t84 15.5q96 0 137 -54t41 -152q0 -46 -9.5 -89t-24.5 -75l-150 -331h-121l130 294zM237 379q38 0 52.5 29.5t15.5 80.5q0 51 -13.5 79.5t-53.5 28.5
q-38 0 -55 -26.5t-17 -89.5q0 -45 14.5 -73.5t56.5 -28.5z" />
    <glyph glyph-name="colon" unicode=":" horiz-adv-x="241" 
d="M57 0v130h124v-130h-124zM57 278v130h124v-130h-124z" />
    <glyph glyph-name="semicolon" unicode=";" horiz-adv-x="243" 
d="M59 278v130h124v-130h-124zM56 -134l32 131h-29v132h125v-128l-66 -135h-62z" />
    <glyph glyph-name="less" unicode="&#x3c;" horiz-adv-x="465" 
d="M22 257v80l418 200v-100l-306 -140l305 -139v-101z" />
    <glyph glyph-name="equal" unicode="=" horiz-adv-x="465" 
d="M18 347v89h428v-89h-428zM18 159v88h428v-88h-428z" />
    <glyph glyph-name="greater" unicode="&#x3e;" horiz-adv-x="465" 
d="M24 57v101l305 139l-306 140v100l418 -200v-80z" />
    <glyph glyph-name="question" unicode="?" horiz-adv-x="452" 
d="M420 517q0 -23 -3 -41.5t-9 -34t-14.5 -29t-18.5 -28.5q-12 -18 -26 -35.5t-26.5 -36t-21 -39t-8.5 -42.5v-45h-112v40q0 38 7 66t27 56q16 24 31.5 45t27 40t19 37t7.5 36q0 14 -2.5 29.5t-10.5 28.5t-22.5 21.5t-38.5 8.5q-36 0 -57.5 -26.5t-23.5 -70.5q-28 4 -55 7.5
t-56 6.5q4 47 21.5 82.5t43.5 59.5t60 36t73 12q93 0 140.5 -50t47.5 -134zM180 0v111h112v-111h-112z" />
    <glyph glyph-name="at" unicode="@" horiz-adv-x="828" 
d="M548 392q0 -33 -0.5 -66t-0.5 -66q0 -23 12.5 -37t31.5 -14q20 0 37.5 9t30 29t19.5 53.5t7 82.5q0 60 -19.5 107.5t-53.5 81t-81.5 51.5t-102.5 18q-69 0 -122.5 -24t-90.5 -66t-56.5 -98t-19.5 -119q0 -71 20.5 -128t58.5 -97.5t91.5 -62.5t120.5 -22q28 0 53 2.5t48 8
t46 14.5t48 22q8 -18 14.5 -36t14.5 -35q-52 -23 -105.5 -36t-113.5 -13q-83 0 -152.5 24.5t-119.5 73t-78 120.5t-28 166q0 82 26.5 151.5t74.5 120.5t116 79.5t152 28.5q80 0 143.5 -25t107.5 -69t67.5 -104.5t23.5 -132.5q0 -63 -14 -110.5t-38.5 -79t-59 -47
t-74.5 -15.5q-10 0 -24.5 3.5t-29.5 11t-27.5 19t-18.5 27.5h-3q-14 -23 -43.5 -38.5t-63.5 -15.5q-57 0 -88 33t-31 87q0 24 7.5 46t23.5 39t40 27t57 10h79v35q0 20 -13.5 34t-47.5 14q-43 0 -67 -37q-17 10 -33.5 20t-33.5 20q20 38 56.5 58t82.5 20q31 0 57 -6
t45.5 -20.5t30.5 -38.5t11 -59v-29zM340 264q0 -18 13 -32t43 -14q29 0 46.5 14.5t17.5 43.5v38h-63q-27 0 -42 -12t-15 -38z" />
    <glyph glyph-name="A" unicode="A" horiz-adv-x="526" 
d="M359 150h-193q-2 -9 -8 -30t-12.5 -45t-12 -45t-8.5 -30h-119l201 696h110l202 -696h-121zM227 392l-36 -140h142l-35 139q-2 9 -6.5 30t-10 44t-10.5 43.5t-6 29.5h-5z" />
    <glyph glyph-name="B" unicode="B" horiz-adv-x="524" 
d="M484 206q0 -100 -53.5 -153t-143.5 -53h-224v696h213q99 0 148.5 -51t49.5 -139q0 -44 -18.5 -81t-66.5 -59v-5q25 -8 43 -23.5t29.5 -36.5t17 -45.5t5.5 -49.5zM362 502q0 42 -22.5 66t-72.5 24h-90v-182h91q49 0 71.5 25.5t22.5 66.5zM372 213q0 44 -22 71t-73 27h-100
v-202h101q27 0 45 8t29 22.5t15.5 33.5t4.5 40z" />
    <glyph glyph-name="C" unicode="C" horiz-adv-x="492" 
d="M466 148q-17 -73 -72 -113.5t-133 -40.5q-54 0 -94 17t-67 47t-40 70.5t-13 87.5v270q0 41 13 80t39.5 69t66.5 48t95 18q84 0 136.5 -44t69.5 -110l-109 -36q-3 15 -10 29t-19 25.5t-29 18.5t-39 7q-26 0 -44.5 -9t-30.5 -23.5t-18 -32.5t-6 -36v-277q0 -22 6 -42
t18.5 -35t31 -23.5t43.5 -8.5q37 0 63 21t33 58z" />
    <glyph glyph-name="D" unicode="D" horiz-adv-x="537" 
d="M372 437q0 71 -25 112t-89 41h-81v-484h82q64 0 88.5 33.5t24.5 93.5v204zM275 696q70 0 120 -26t73 -86q14 -37 16.5 -91.5t2.5 -123.5q0 -85 -1 -145.5t-17 -103.5q-13 -35 -34 -58t-48 -36.5t-59 -19.5t-66 -6h-200v696h213z" />
    <glyph glyph-name="E" unicode="E" horiz-adv-x="473" 
d="M63 0v696h387v-106h-273v-186h235v-104h-235v-191h273v-109h-387z" />
    <glyph glyph-name="F" unicode="F" horiz-adv-x="463" 
d="M177 590v-189h235v-104h-235v-297h-114v696h387v-106h-273z" />
    <glyph glyph-name="G" unicode="G" horiz-adv-x="523" 
d="M263 701q42 0 76.5 -11.5t60.5 -32.5t43.5 -49.5t25.5 -61.5l-109 -34q-3 15 -10 29t-19 25t-29 18t-39 7q-26 0 -44.5 -9t-30.5 -23.5t-18 -32.5t-6 -36v-278q0 -22 6 -42t18.5 -35t31 -24t43.5 -9q50 0 75.5 28.5t25.5 69.5v82h-104v99h218v-165q0 -50 -15 -91
t-42.5 -70t-67.5 -45t-90 -16q-54 0 -94 17t-66.5 47t-39.5 70.5t-13 87.5v270q0 41 12.5 80t39 69t66.5 48t95 18z" />
    <glyph glyph-name="H" unicode="H" horiz-adv-x="550" 
d="M373 0v301h-196v-301h-115v696h115v-292h196v292h114v-696h-114z" />
    <glyph glyph-name="I" unicode="I" horiz-adv-x="243" 
d="M64 0v696h115v-696h-115z" />
    <glyph glyph-name="J" unicode="J" horiz-adv-x="421" 
d="M359 190q0 -52 -15.5 -89t-42.5 -60.5t-63 -34.5t-76 -11q-51 0 -93.5 18.5t-73.5 60.5l80 73q16 -23 39.5 -34t44.5 -11q38 0 62 22.5t24 68.5v503h114v-506z" />
    <glyph glyph-name="K" unicode="K" horiz-adv-x="534" 
d="M407 0q-38 78 -75.5 155.5t-75.5 155.5q-20 -30 -40 -60.5t-40 -59.5v-191h-114v696h114v-315h3l204 315h131l-186 -278q51 -106 103 -209.5t104 -208.5h-128z" />
    <glyph glyph-name="L" unicode="L" horiz-adv-x="462" 
d="M63 0v696h114v-587h269v-109h-383z" />
    <glyph glyph-name="M" unicode="M" horiz-adv-x="669" 
d="M499 0v407h-4l-51 -130l-66 -152h-81l-68 157l-50 126l-4 -1v-407h-114v696h109l98 -228l68 -168h4l67 169l96 227h110v-696h-114z" />
    <glyph glyph-name="N" unicode="N" horiz-adv-x="579" 
d="M416 0l-164 299l-73 143l-3 -1v-441h-115v696h105l154 -284l82 -156l4 1v439h114v-696h-104z" />
    <glyph glyph-name="O" unicode="O" horiz-adv-x="516" 
d="M471 211q0 -50 -15.5 -90t-44 -68.5t-67.5 -43.5t-86 -15q-57 0 -98 18.5t-66.5 50t-37.5 73t-12 87.5v263q0 37 11.5 75t37 69t66 51t99.5 20q55 0 95 -19t66.5 -49.5t39 -69t12.5 -77.5v-275zM355 488q0 13 -4.5 30.5t-15.5 33.5t-29.5 27.5t-47.5 11.5t-48.5 -10.5
t-31 -26t-16.5 -33.5t-5 -34l1 -266q0 -50 23 -84t78 -34q39 0 67.5 26.5t28.5 72.5v286z" />
    <glyph glyph-name="P" unicode="P" horiz-adv-x="502" 
d="M486 481q0 -45 -13 -84t-38.5 -68t-64.5 -45.5t-91 -16.5h-102v-267h-114v696h210q49 0 88 -13t67 -39.5t43 -67t15 -95.5zM373 483q0 52 -25 79.5t-76 27.5h-95v-216h96q51 0 75.5 29.5t24.5 79.5z" />
    <glyph glyph-name="Q" unicode="Q" horiz-adv-x="524" 
d="M478 211q0 -60 -23 -108l70 -57l-55 -65q-17 14 -35 27.5t-35 27.5q-54 -42 -135 -42q-57 0 -98 18.5t-66.5 50t-37.5 73t-12 87.5v263q0 37 11.5 75.5t37 69.5t66 50.5t99.5 19.5q55 0 95 -18.5t66.5 -49t39 -69t12.5 -78.5v-275zM363 489q0 13 -4.5 30.5t-15.5 33.5
t-30 27t-48 11q-28 0 -47 -10t-31 -25.5t-17.5 -33.5t-5.5 -33v-16q0 -35 -2 -76t-2.5 -82t3 -79.5t14.5 -68t32.5 -47.5t56.5 -18q11 0 22.5 3.5t19.5 8.5l-62 49l53 66l59 -46q2 5 3 11l2 12v283z" />
    <glyph glyph-name="R" unicode="R" horiz-adv-x="528" 
d="M370 0l-104 290h-89v-290h-114v696h224q43 0 80 -12.5t63.5 -37.5t41.5 -62.5t15 -87.5q0 -66 -28 -114t-83 -73l119 -309h-125zM375 496q0 49 -25 72.5t-72 23.5h-101v-199h100q45 0 71.5 26t26.5 77z" />
    <glyph glyph-name="S" unicode="S" horiz-adv-x="504" 
d="M474 198q0 -95 -58 -149.5t-164 -54.5q-84 0 -139 33.5t-86 86.5l94 68q23 -36 55 -57.5t78 -21.5q55 0 77.5 26.5t22.5 65.5q0 24 -9 41t-25 29.5t-39 21.5t-50 17q-50 16 -85 34t-57.5 41.5t-32.5 54t-10 69.5q0 43 15 79.5t43 63t66.5 41t86.5 14.5q78 0 126.5 -26
t77.5 -71l-87 -73q-23 32 -52 47t-67 15q-45 0 -69 -24.5t-24 -61.5q0 -21 11 -36.5t30 -27.5t45 -21.5t55 -18.5q49 -15 81.5 -34.5t52.5 -44.5t28.5 -56t8.5 -70z" />
    <glyph glyph-name="T" unicode="T" horiz-adv-x="431" 
d="M271 592v-592h-114v592h-153v104h421v-104h-154z" />
    <glyph glyph-name="U" unicode="U" horiz-adv-x="535" 
d="M482 696v-485q0 -50 -15.5 -90.5t-44 -68.5t-67.5 -43t-86 -15q-54 0 -94.5 17.5t-67 47.5t-40 70.5t-13.5 86.5v480h114v-483q0 -45 25.5 -77t75.5 -32q42 0 69.5 27.5t27.5 74.5v490h116z" />
    <glyph glyph-name="V" unicode="V" horiz-adv-x="498" 
d="M304 0h-111l-185 696h122l73 -307l45 -208h4l44 208l73 307h121z" />
    <glyph glyph-name="W" unicode="W" horiz-adv-x="725" 
d="M571 0h-102q-17 75 -36 150.5t-36 151.5l-33 145h-3l-16 -72l-16 -72q-17 -76 -36.5 -152t-36.5 -151h-102l-143 695h123q12 -72 25 -142.5t25 -142.5q8 -42 14 -84.5t13 -84.5h4q7 32 13.5 65t14.5 65q19 81 37 162t37 162h92l75 -326q7 -33 13.5 -65t14.5 -65h4l25 166
q15 89 26.5 157t22.5 133h123z" />
    <glyph glyph-name="X" unicode="X" horiz-adv-x="495" 
d="M131 0h-129q8 15 22.5 43.5t32.5 63.5t37.5 73t37 73t32 63.5t22.5 43.5l-172 336h130l102 -225l104 225h129l-173 -336l185 -360h-128l-116 247z" />
    <glyph glyph-name="Y" unicode="Y" horiz-adv-x="476" 
d="M241 404q11 34 23 67t24 67l61 158h121l-176 -412v-284h-112v284l-176 413h124q15 -41 30.5 -81t29.5 -80q11 -32 22.5 -66t22.5 -66h6z" />
    <glyph glyph-name="Z" unicode="Z" horiz-adv-x="434" 
d="M26 0v102l253 490h-242v104h372v-97l-253 -491h253v-108h-383z" />
    <glyph glyph-name="bracketleft" unicode="[" horiz-adv-x="262" 
d="M66 -100v798h179v-78h-78v-643h78v-77h-179z" />
    <glyph glyph-name="backslash" unicode="\" horiz-adv-x="297" 
d="M1 720h87l204 -754h-86z" />
    <glyph glyph-name="bracketright" unicode="]" horiz-adv-x="262" 
d="M19 -101v77h77v644h-77v78h178v-799h-178z" />
    <glyph glyph-name="asciicircum" unicode="^" horiz-adv-x="465" 
d="M115 301h-100l179 394h80q8 -18 22 -49t31 -69t36 -79t36.5 -79t31.5 -69t22 -49h-100l-119 276z" />
    <glyph glyph-name="underscore" unicode="_" horiz-adv-x="500" 
d="M0 -145v76h500v-76h-500z" />
    <glyph glyph-name="quoteleft" unicode="&#x2018;" horiz-adv-x="257" 
d="M190 719l-32 -131h28v-132h-124v128l67 135h61z" />
    <glyph glyph-name="a" unicode="a" horiz-adv-x="444" 
d="M290 0v38l-4 2q-18 -24 -48 -34.5t-61 -10.5q-73 0 -108 41t-35 108q0 32 10 59.5t31 48t53 32.5t76 12h86v45q0 25 -17 42.5t-56 17.5q-27 0 -50 -9.5t-36 -34.5q-4 2 -16 9.5t-25.5 15.5t-25 15.5t-15.5 10.5q23 48 68 70t102 22q39 0 72 -7.5t57.5 -25.5t38.5 -47.5
t14 -73.5v-346h-111zM290 212h-79q-33 0 -51.5 -15.5t-18.5 -45.5q0 -23 16.5 -40t54.5 -17q32 0 55 16.5t23 53.5v48z" />
    <glyph glyph-name="b" unicode="b" horiz-adv-x="450" 
d="M158 41v-41h-111v726h111v-276h3q19 25 47.5 37.5t53.5 12.5q52 0 82.5 -22t45.5 -57.5t19 -80t4 -89.5q0 -46 -4.5 -92t-20.5 -82.5t-46 -59.5t-82 -23q-29 0 -54.5 12t-45.5 37zM228 395q-25 0 -39 -13.5t-21 -34.5t-9 -46t-2 -49q0 -29 1 -56.5t8 -49.5t21.5 -35
t40.5 -13q24 0 38 11.5t21.5 32t10 48.5t2.5 61q0 30 -2.5 56.5t-10 46t-22 30.5t-37.5 11z" />
    <glyph glyph-name="c" unicode="c" horiz-adv-x="404" 
d="M220 501q58 0 101 -27t63 -76q-4 -3 -17.5 -10t-29 -14.5t-29 -14.5t-17.5 -10q-22 49 -67 49q-26 0 -42.5 -11t-25.5 -30.5t-12 -47t-3 -59.5q0 -33 3.5 -61.5t12.5 -48.5t25 -31.5t41 -11.5q24 0 40.5 13t27.5 34q4 -3 17.5 -9.5t29 -14.5t29 -14.5t18.5 -9.5
q-20 -48 -63 -74.5t-101 -26.5q-56 0 -93 19t-58.5 52.5t-30.5 80.5t-9 104q0 55 10.5 101t33 79t58.5 51.5t88 18.5z" />
    <glyph glyph-name="d" unicode="d" horiz-adv-x="450" 
d="M291 42q-20 -25 -46 -36t-55 -11q-52 0 -82.5 21.5t-46 57t-19.5 81t-4 93.5q0 46 5.5 91t22 81t47.5 58t82 22q25 0 51 -11t44 -33h3v270h111v-726h-111v40zM223 395q-24 0 -38.5 -12t-22 -32.5t-9.5 -46.5t-2 -53q0 -32 2.5 -59.5t10 -48.5t21.5 -33t38 -12
q26 0 40.5 14t21 36.5t8 49.5t1.5 54q0 25 -2 51t-9.5 46t-21.5 33t-38 13z" />
    <glyph glyph-name="e" unicode="e" horiz-adv-x="444" 
d="M305 145q23 -12 45.5 -24t45.5 -25q-23 -50 -68 -75.5t-100 -25.5q-105 0 -148.5 62t-43.5 190q0 53 8.5 99t30 80.5t57.5 54.5t91 20q51 0 86 -17t57 -47t31.5 -71t9.5 -90v-58h-259q0 -24 3 -46.5t12 -39.5t24 -27t39 -10t44 13.5t35 36.5zM294 295q0 47 -16.5 75.5
t-56.5 28.5t-55 -30t-17 -74h145z" />
    <glyph glyph-name="f" unicode="f" horiz-adv-x="279" 
d="M180 407v-407h-111v407h-52v88h52v99q0 34 10.5 59t28.5 41.5t42 24.5t52 8h65v-98h-44q-22 0 -32.5 -13.5t-10.5 -34.5v-86h87v-88h-87z" />
    <glyph glyph-name="g" unicode="g" horiz-adv-x="454" 
d="M402 -6q0 -90 -47 -145t-143 -55q-51 0 -93 21t-69 61q4 3 16 12.5t25.5 20.5t25.5 20.5t16 12.5q14 -21 34.5 -34t46.5 -13q37 0 57 22.5t20 60.5v71h-3q-19 -25 -47.5 -37.5t-53.5 -12.5q-53 0 -83 22t-45.5 57t-19.5 79t-4 88t4 89.5t19.5 82t46 60t83.5 23.5
q28 0 54.5 -11.5t46.5 -36.5l2 2v41h111v-501zM219 105q24 0 38 12t22 32t10.5 44.5t2.5 50.5q0 29 -1.5 56.5t-8.5 48.5t-21.5 34t-40.5 13q-24 0 -38.5 -12t-22 -32t-9.5 -48t-2 -59q0 -30 2.5 -55.5t10 -44.5t21.5 -29.5t37 -10.5z" />
    <glyph glyph-name="h" unicode="h" horiz-adv-x="460" 
d="M301 0v318q0 37 -18.5 56.5t-50.5 19.5t-52 -20t-20 -58v-316h-110v726h110v-278h4q19 23 47 37.5t59 14.5q64 0 103 -41t39 -111v-348h-111z" />
    <glyph glyph-name="i" unicode="i" horiz-adv-x="225" 
d="M57 592v104h111v-104h-111zM57 0v495h111v-495h-111z" />
    <glyph glyph-name="j" unicode="j" horiz-adv-x="233" 
d="M173 -58q0 -66 -40.5 -104.5t-112.5 -38.5h-31v100h22q29 1 40 20.5t11 49.5v527h111v-554zM62 592v104h111v-104h-111z" />
    <glyph glyph-name="k" unicode="k" horiz-adv-x="462" 
d="M167 304l140 190h136l-151 -192l169 -302h-129l-114 212l-54 -74v-138h-110v725h110v-421h3z" />
    <glyph glyph-name="l" unicode="l" horiz-adv-x="244" 
d="M190 -2q-65 0 -101 28t-36 101v599h111v-577q0 -29 11 -40.5t35 -11.5h16v-99h-36z" />
    <glyph glyph-name="m" unicode="m" horiz-adv-x="715" 
d="M662 0h-110v278q0 54 -13 85t-55 31q-22 0 -35.5 -8t-21.5 -23t-11 -36t-3 -48v-279h-111v278q0 54 -12.5 85t-55.5 31t-57 -31.5t-14 -86.5v-276h-110v494h110v-48q2 0 2 -0.5t2 -0.5q19 26 47 40.5t59 14.5q42 0 71.5 -17.5t47.5 -46.5h1q26 31 57.5 47.5t69.5 16.5
q36 0 63 -13t44.5 -35t26 -52t8.5 -64v-336z" />
    <glyph glyph-name="n" unicode="n" horiz-adv-x="459" 
d="M300 0v318q0 37 -20 56.5t-50 19.5q-32 0 -52 -20.5t-20 -57.5v-316h-110v495h111v-48h3q20 24 48 38.5t59 14.5q67 0 104 -40.5t37 -110.5v-349h-110z" />
    <glyph glyph-name="o" unicode="o" horiz-adv-x="449" 
d="M228 502q64 0 101 -25.5t56 -63.5q14 -28 19 -73.5t5 -93.5q0 -40 -5 -84t-16 -71q-11 -28 -28.5 -46.5t-40 -30t-48.5 -16.5t-53 -5q-54 0 -90.5 20t-56.5 53q-18 29 -25.5 75t-7.5 104q0 45 4.5 87.5t15.5 68.5q20 47 62 74t108 27zM226 400q-22 0 -40 -11t-26 -34
q-7 -18 -9.5 -47.5t-2.5 -67.5q0 -29 1.5 -55t8.5 -45q17 -45 65 -45q23 0 42 11.5t27 45.5q4 14 5.5 41t1.5 61q0 30 -2 55.5t-8 42.5q-17 48 -63 48z" />
    <glyph glyph-name="p" unicode="p" horiz-adv-x="450" 
d="M159 453q19 25 45.5 36t54.5 11q52 0 82 -22.5t46 -59t20.5 -82t4.5 -90.5t-5.5 -90t-22 -81t-47.5 -58t-82 -22q-25 0 -51.5 11t-44.5 34q-1 0 -1.5 -0.5t-1.5 -0.5v-239h-110v695h110v-41q1 0 1.5 -0.5t1.5 -0.5zM227 100q24 0 38.5 12.5t22 33.5t10 47t2.5 53
q0 31 -2.5 58.5t-10 48t-21.5 32t-38 11.5q-26 0 -40.5 -13t-21.5 -35t-8.5 -49.5t-1.5 -56.5q0 -24 2 -49t9 -45.5t21 -34t39 -13.5z" />
    <glyph glyph-name="q" unicode="q" horiz-adv-x="454" 
d="M297 453v41h111v-695h-111v245h-3q-19 -25 -47.5 -37.5t-53.5 -12.5q-51 0 -81.5 21t-46 56t-20.5 80t-5 92q0 45 5 91t21.5 83t46.5 60t81 23q29 0 55 -12t46 -37zM226 99q24 0 38 13.5t21.5 34.5t10 46t2.5 49q0 29 -1.5 56.5t-8.5 49.5t-21.5 35t-40.5 13
q-23 0 -37.5 -12t-22 -33t-10 -49t-2.5 -59q0 -27 2 -53t9.5 -46.5t22 -32.5t38.5 -12z" />
    <glyph glyph-name="r" unicode="r" horiz-adv-x="338" 
d="M259 391q-42 0 -66.5 -22.5t-24.5 -72.5v-297h-111v496h110v-57l3 -1q20 36 49 49.5t65 13.5q15 0 28 -2.5t24 -10.5l-22 -108q-14 7 -27.5 9.5t-27.5 2.5z" />
    <glyph glyph-name="s" unicode="s" horiz-adv-x="424" 
d="M395 147q0 -69 -49 -111t-135 -42q-66 0 -111 23.5t-74 73.5l82 60q34 -59 102 -59q34 0 53.5 15t19.5 41q0 27 -18.5 38t-51.5 19q-35 8 -66.5 18.5t-55.5 27t-38.5 41.5t-14.5 61q0 34 13.5 61.5t36.5 46.5t55 29t69 10q67 0 107.5 -22.5t65.5 -61.5l-74 -64
q-33 51 -96 51q-37 0 -51.5 -15.5t-14.5 -33.5q0 -12 7.5 -20.5t20.5 -14.5t29 -10.5t33 -8.5q34 -8 63 -18.5t49.5 -28t32 -43.5t11.5 -63z" />
    <glyph glyph-name="t" unicode="t" horiz-adv-x="277" 
d="M196 0q-62 0 -93 35t-31 86v286h-52v88h52v130h108v-130h68v-88h-68v-253q0 -26 11 -40.5t37 -14.5h24v-99h-56z" />
    <glyph glyph-name="u" unicode="u" horiz-adv-x="462" 
d="M301 0v46q-1 0 -2 0.5t-2 0.5q-19 -25 -47.5 -38.5t-58.5 -13.5q-68 0 -105 40t-37 110v349h110v-318q0 -37 20.5 -57t49.5 -20q39 0 55.5 28.5t16.5 76.5v290h110v-494h-110z" />
    <glyph glyph-name="v" unicode="v" horiz-adv-x="424" 
d="M216 154q3 12 7.5 31t9.5 39.5t9.5 39.5t7.5 30q4 19 10.5 45.5t13.5 54.5t13.5 54.5t11.5 45.5h120q-4 -10 -15.5 -47.5t-27.5 -89t-33.5 -110t-33.5 -110t-27.5 -89.5t-15.5 -48h-108q-15 46 -35.5 112t-41.5 135.5t-41 135t-35 111.5h120q5 -18 12 -44.5t14 -55
t13.5 -55t11.5 -44.5l36 -141h4z" />
    <glyph glyph-name="w" unicode="w" horiz-adv-x="652" 
d="M642 495q-33 -125 -66 -247.5t-67 -247.5h-107l-30 115l-46 185h-3q-11 -42 -21 -87t-21 -85q-11 -41 -18.5 -70.5t-14.5 -57.5h-108q-33 125 -66 247.5t-67 247.5h118l32 -152q9 -44 18 -87t20 -87h4q11 44 20.5 86t20.5 87q9 38 18 76.5t17 76.5h101l31 -138l46 -191h4
q3 10 5.5 21t6.5 30t10 49t16 77q8 38 15 76t16 76h116v0z" />
    <glyph glyph-name="x" unicode="x" horiz-adv-x="432" 
d="M298 0l-83 166l-83 -166h-126l149 253q-36 60 -71.5 120.5t-71.5 121.5h127l76 -158h1l76 158h125l-143 -243l150 -252h-126z" />
    <glyph glyph-name="y" unicode="y" horiz-adv-x="413" 
d="M230 -93q-17 -56 -53.5 -82t-87.5 -26h-37v95h26q44 0 60 61l18 64l-155 476h118l48 -179l39 -152h4l38 152l48 179h116z" />
    <glyph glyph-name="z" unicode="z" horiz-adv-x="389" 
d="M28 0v96l203 302h-189v97h318v-92l-203 -301h203v-102h-332z" />
    <glyph glyph-name="braceleft" unicode="{" horiz-adv-x="267" 
d="M185 -100q-43 0 -72.5 31t-29.5 83v127q0 57 -14.5 88t-54.5 34v72q35 3 52 32.5t17 76.5v137q0 54 30 84.5t72 30.5h70v-76h-31q-21 0 -31 -21.5t-10 -47.5v-126q0 -27 -6.5 -48t-16.5 -36t-22 -25t-23 -15v-2q12 -6 24 -16t21.5 -25t16 -36t6.5 -48v-124q0 -14 1.5 -27
t6 -24t12.5 -17.5t21 -6.5h31v-75h-70z" />
    <glyph glyph-name="bar" unicode="|" horiz-adv-x="233" 
d="M71 -179v902h91v-902h-91z" />
    <glyph glyph-name="braceright" unicode="}" horiz-adv-x="267" 
d="M254 263q-40 -3 -54.5 -34t-14.5 -88v-127q0 -53 -30 -83.5t-72 -30.5h-70v75h32q13 0 21 6.5t12.5 17.5t6 24t1.5 27v124q0 27 6.5 48t16 36t21.5 25t24 16v2q-11 5 -23 15t-22 25t-16.5 36t-6.5 48v126q0 26 -9 47.5t-32 21.5h-32v75h70q45 0 73.5 -31t28.5 -83v-124
q0 -54 15 -86t54 -36v-72v0z" />
    <glyph glyph-name="asciitilde" unicode="~" horiz-adv-x="465" 
d="M444 308q-26 -51 -56.5 -77t-69.5 -26q-21 0 -42 8.5t-41.5 18.5t-40 18.5t-37.5 8.5q-20 0 -36.5 -10.5t-38.5 -38.5l-61 39q25 48 56.5 74.5t75.5 26.5q22 0 43.5 -8.5t41 -18.5t37.5 -18.5t35 -8.5q20 0 35.5 13t35.5 39q16 -11 31.5 -20.5t31.5 -19.5z" />
    <glyph glyph-name="sterling" unicode="&#xa3;" horiz-adv-x="465" 
d="M31 367h59q-5 23 -11.5 42.5t-12.5 38.5t-10 38t-4 40q0 37 12.5 69t36 55.5t57.5 37t77 13.5q70 0 120.5 -32t76.5 -107l-99 -42q-19 44 -41.5 60t-52.5 16q-24 0 -46.5 -19.5t-22.5 -55.5q0 -17 4.5 -34.5t10.5 -36t12.5 -39t11.5 -44.5h123v-84h-120q-2 -55 -12.5 -98
t-33.5 -85h252v-100h-386v88q24 37 41 73.5t22 82.5q2 9 2.5 18.5t1.5 20.5h-68v84z" />
    <glyph glyph-name="yen" unicode="&#xa5;" horiz-adv-x="465" 
d="M316 353h97v-63h-121l-5 -13v-47h126v-64h-126v-166h-109v166h-123v64h123v47l-5 13h-118v63h93l-138 343h118q15 -42 30.5 -83t29.5 -83l42 -128h5q11 32 21 64.5t21 64.5q15 42 29.5 82.5t28.5 82.5h119z" />
    <glyph glyph-name="section" unicode="&#xa7;" horiz-adv-x="456" 
d="M424 293q0 -34 -15 -62t-41 -46q41 -44 41 -100q0 -36 -14 -65.5t-39 -50.5t-60.5 -32.5t-77.5 -11.5q-51 0 -99 20.5t-83 54.5l62 70q31 -29 61.5 -41.5t59.5 -12.5q42 0 64 17t22 48q0 29 -28 51t-90 48q-34 15 -60 29.5t-44 33t-27 42t-9 55.5t17.5 60.5t43.5 45.5
q-44 42 -44 100q0 34 13 63t36.5 49t55 31.5t69.5 11.5q51 0 94 -15t82 -48q-14 -18 -29 -36.5t-31 -36.5q-34 27 -63 35.5t-55 8.5q-33 0 -51.5 -17.5t-18.5 -37.5q0 -15 8 -26.5t21.5 -22t31 -19.5t35.5 -18l59 -29.5t52 -34t37 -46t14 -65.5zM146 345q0 -18 13 -31.5
t34.5 -25.5t48.5 -23t55 -25q27 15 27 56q0 18 -9.5 28.5t-27.5 20.5t-45 20.5t-62 28.5q-16 -7 -25 -20t-9 -29z" />
    <glyph glyph-name="quotesingle" unicode="'" horiz-adv-x="219" 
d="M67 485v211h85v-211h-85z" />
    <glyph glyph-name="quotedblleft" unicode="&#x201c;" horiz-adv-x="360" 
d="M164 719l-31 -131h28v-132h-124v128l67 135h60zM324 719l-32 -131h29v-132h-124v128l66 135h61z" />
    <glyph glyph-name="guillemotleft" unicode="&#xab;" horiz-adv-x="506" 
d="M361 37l-124 197l124 196h106l-121 -196l121 -197h-106zM169 37l-124 197l124 196h107l-122 -196l122 -197h-107z" />
    <glyph glyph-name="endash" unicode="&#x2013;" horiz-adv-x="500" 
d="M20 225v96h458v-96h-458z" />
    <glyph glyph-name="dagger" unicode="&#x2020;" horiz-adv-x="432" 
d="M268 377v-555h-103v555h-148v94h148v220h103v-220h148v-94h-148z" />
    <glyph glyph-name="periodcentered" unicode="&#xb7;" horiz-adv-x="241" 
d="M58 214v129h124v-129h-124z" />
    <glyph glyph-name="bullet" unicode="&#x2022;" horiz-adv-x="440" 
d="M83 280q0 29 11 55t30 45.5t44.5 30.5t54.5 11t55 -11t45 -30.5t30 -45.5t11 -55t-11 -55t-30 -45t-45 -30t-55 -11t-54.5 11t-44.5 30t-30 45t-11 55z" />
    <glyph glyph-name="quotedblright" unicode="&#x201d;" horiz-adv-x="360" 
d="M200 456l32 131h-29v133h124v-129l-66 -135h-61zM39 456l33 131h-29v133h124v-129l-66 -135h-62z" />
    <glyph glyph-name="guillemotright" unicode="&#xbb;" horiz-adv-x="506" 
d="M46 37l121 197l-121 196h106l124 -196l-124 -197h-106zM238 37l122 197l-122 196h106l124 -196l-124 -197h-106z" />
    <glyph glyph-name="ellipsis" unicode="&#x2026;" horiz-adv-x="821" 
d="M67 0v130h124v-130h-124zM349 0v130h124v-130h-124zM629 0v130h123v-130h-123z" />
    <glyph glyph-name="perthousand" unicode="&#x2030;" horiz-adv-x="996" 
d="M209 -17h-74l370 730h74zM293 387q0 -26 -10 -46.5t-26.5 -35t-38.5 -22t-47 -7.5q-24 0 -46 7.5t-38.5 22t-26.5 35t-10 46.5v202q0 26 9.5 46.5t26 35t38.5 22t47 7.5q51 0 86.5 -29.5t35.5 -81.5v-202zM209 588q0 17 -10 27.5t-28 10.5t-28.5 -10.5t-10.5 -27.5v-200
q0 -17 11 -27.5t28 -10.5t27.5 10.5t10.5 27.5v200zM674 105q0 -26 -10 -46t-26.5 -33.5t-39 -21t-46.5 -7.5t-46 7.5t-38.5 21t-26.5 33.5t-10 46v207q0 25 10 45.5t26.5 34.5t38.5 21.5t46 7.5q25 0 47 -7.5t38.5 -21.5t26.5 -34.5t10 -45.5v-207zM590 310q0 17 -10 26.5
t-28 9.5t-28.5 -9.5t-10.5 -26.5v-203q0 -17 11 -26.5t28 -9.5t27.5 9.5t10.5 26.5v203zM946 105q0 -26 -10 -46t-26.5 -33.5t-39 -21t-46.5 -7.5t-46 7.5t-38.5 21t-26.5 33.5t-10 46v207q0 25 10 45.5t26.5 34.5t38.5 21.5t46 7.5q25 0 47 -7.5t38.5 -21.5t26.5 -34.5
t10 -45.5v-207zM862 310q0 17 -10 26.5t-28 9.5t-28.5 -9.5t-10.5 -26.5v-203q0 -17 11 -26.5t28 -9.5t27.5 9.5t10.5 26.5v203z" />
    <glyph glyph-name="grave" unicode="`" horiz-adv-x="438" 
d="M262 543l-120 174l99 38l84 -181z" />
    <glyph glyph-name="dieresis" unicode="&#xa8;" horiz-adv-x="429" 
d="M252 575v108h107v-108h-107zM71 575v108h106v-108h-106z" />
    <glyph glyph-name="oe" unicode="&#x153;" horiz-adv-x="707" 
d="M570 145q23 -12 45.5 -24t45.5 -25q-23 -50 -68 -75.5t-100 -25.5q-47 0 -80.5 12t-56.5 38q-26 -29 -62 -40.5t-77 -11.5q-47 0 -80 15t-55 41q-31 38 -38 85t-7 111q0 45 5 87.5t16 68.5q20 47 63.5 73.5t106.5 26.5q45 0 77 -14t54 -37q21 24 52.5 37.5t76.5 13.5
q56 0 92 -18.5t56.5 -50.5t28 -75t7.5 -92v-47h-259q0 -22 2.5 -44t10.5 -39.5t23.5 -28.5t41.5 -11q24 0 44 13.5t35 36.5zM226 400q-23 0 -40 -11t-27 -34q-7 -17 -9.5 -47t-2.5 -69q0 -29 1.5 -55t9.5 -44q19 -46 65 -46q23 0 42 13t27 47q4 14 5.5 40t1.5 60
q0 30 -2 55.5t-8 42.5q-8 21 -24 34.5t-39 13.5zM559 295q0 47 -16.5 75.5t-56.5 28.5t-55 -30t-17 -74h145z" />
    <glyph glyph-name="germandbls" unicode="&#xdf;" horiz-adv-x="472" 
d="M344 420q30 -13 47 -34t25 -46.5t9.5 -53t1.5 -53.5q0 -45 -6 -88t-25 -76.5t-54 -53.5t-92 -20h-13.5t-13.5 1v92h10q29 0 45.5 13.5t24 35.5t9 51t1.5 61q0 21 -2.5 43t-10 39.5t-21 29t-36.5 11.5h-8v87h6q34 0 45.5 25t11.5 56q0 11 -2.5 26t-9.5 28.5t-20 23
t-34 9.5q-23 0 -36.5 -8.5t-21 -22.5t-9.5 -31.5t-2 -35.5v-529h-111v526q0 92 43.5 146t136.5 54q45 0 77.5 -13t54 -35.5t32 -54t10.5 -67.5q0 -43 -14 -80t-48 -54v-2v0z" />
    <glyph glyph-name="mu" unicode="&#xb5;" horiz-adv-x="468" 
d="M306 46h-3q-20 -24 -48 -37.5t-59 -13.5q-14 0 -31 7v-203h-111v695h111v-303q0 -43 18 -67t52 -24q23 0 37 9.5t21.5 26t10 39.5t2.5 51v268h110v-494h-110v46z" />
    <glyph glyph-name="mu" unicode="&#x3bc;" horiz-adv-x="468" 
d="M306 46h-3q-20 -24 -48 -37.5t-59 -13.5q-14 0 -31 7v-203h-111v695h111v-303q0 -43 18 -67t52 -24q23 0 37 9.5t21.5 26t10 39.5t2.5 51v268h110v-494h-110v46z" />
    <glyph glyph-name="trademark" unicode="&#x2122;" horiz-adv-x="813" 
d="M670 531q-11 -28 -23 -55.5t-24 -55.5l-35 -79h-55q-8 20 -17 39.5t-18 39.5l-47 112h-2v-241h-77v404h87l53 -121q14 -29 25.5 -57.5t24.5 -57.5h1q25 60 50.5 118t51.5 118h86v-404h-79v240h-2zM222 622v-331h-79v331h-104v74h287v-74h-104z" />
    <glyph glyph-name="plusminus" unicode="&#xb1;" horiz-adv-x="465" 
d="M278 288v-163h-89v163h-168v87h168v166h89v-166h168v-87h-168zM20 0v86h427v-86h-427z" />
    <glyph glyph-name="divide" unicode="&#xf7;" horiz-adv-x="465" 
d="M302 474q0 -27 -19.5 -47t-47.5 -20q-29 0 -49 20t-20 47q0 28 20 47.5t49 19.5q28 0 47.5 -19.5t19.5 -47.5zM18 251v87h430v-87h-430zM302 113q0 -29 -19.5 -48.5t-47.5 -19.5q-29 0 -49 19.5t-20 48.5q0 27 20 47t49 20q28 0 47.5 -20t19.5 -47z" />
    <glyph glyph-name="degree" unicode="&#xb0;" horiz-adv-x="363" 
d="M315 571q0 -27 -10.5 -50.5t-28.5 -41t-42 -27.5t-51 -10t-51.5 10t-42.5 27.5t-28.5 41t-10.5 50.5t10.5 50.5t28.5 41.5t42.5 28t51.5 10t51 -10t42 -28t28.5 -41.5t10.5 -50.5zM245 571q0 26 -18 43.5t-44 17.5t-44 -17.5t-18 -43.5t18 -44t44 -18t44 18t18 44z" />
    <glyph glyph-name="registered" unicode="&#xae;" horiz-adv-x="514" 
d="M258 265q-47 0 -85.5 16.5t-65.5 45.5t-41.5 69.5t-14.5 87.5t15 87.5t42 70t65 46t85 16.5q46 0 84 -16.5t65 -46t42 -70t15 -87.5t-15 -87.5t-42 -69.5t-65 -45.5t-84 -16.5zM258 660q-37 0 -66 -13.5t-49.5 -37t-31.5 -55.5t-11 -69q0 -38 11.5 -69.5t32 -55
t49.5 -36.5t65 -13q37 0 65.5 13.5t48.5 37t30.5 55t10.5 68.5t-11 69t-31 55.5t-48.5 37t-64.5 13.5zM297 356q-10 26 -20 51t-21 51h-26v-102h-49v257h80q36 0 59 -18.5t23 -58.5q0 -23 -9.5 -41t-29.5 -29q4 -11 11 -25.5t13.5 -30t13 -30t10.5 -24.5h-55zM295 536
q0 29 -30 32h-35v-66h30q35 0 35 34z" />
    <glyph glyph-name="copyright" unicode="&#xa9;" horiz-adv-x="758" 
d="M378 553q50 0 85 -27.5t46 -72.5l-71 -24q-5 22 -20.5 36.5t-38.5 14.5q-17 0 -29 -6t-19 -16t-10 -22t-3 -25v-152q0 -26 13.5 -48t46.5 -22q23 0 38.5 14t20.5 38q6 -2 15.5 -5.5t20.5 -7t20.5 -7t15.5 -4.5q-11 -47 -45.5 -73.5t-85.5 -26.5q-36 0 -61.5 11.5
t-42 30.5t-24 44.5t-7.5 54.5v151q0 30 8.5 56t25.5 45.5t42 31t59 11.5zM377 -10q-75 0 -135.5 26.5t-103.5 73t-66 111t-23 140.5t23.5 141t66 112t103 74t135.5 27q74 0 134.5 -26.5t103.5 -74t66.5 -112.5t23.5 -141q0 -75 -23.5 -139.5t-66.5 -111.5t-103.5 -73.5
t-134.5 -26.5zM377 627q-59 0 -106 -22t-80 -61t-50.5 -91t-17.5 -112q0 -59 18 -111t51.5 -90.5t80.5 -60.5t104 -22q59 0 106 22t80 60.5t50.5 90.5t17.5 111q0 61 -18 113t-51 90.5t-80 60.5t-105 22z" />
    <glyph glyph-name="acircumflex" unicode="&#xe2;" horiz-adv-x="444" 
d="M290 0v38l-4 2q-18 -24 -48 -34.5t-61 -10.5q-73 0 -108 41t-35 108q0 32 10 59.5t31 48t53 32.5t76 12h86v45q0 25 -17 42.5t-56 17.5q-27 0 -50 -9.5t-36 -34.5q-4 2 -16 9.5t-25.5 15.5t-25 15.5t-15.5 10.5q23 48 68 70t102 22q39 0 72 -7.5t57.5 -25.5t38.5 -47.5
t14 -73.5v-346h-111zM290 212h-79q-33 0 -51.5 -15.5t-18.5 -45.5q0 -23 16.5 -40t54.5 -17q32 0 55 16.5t23 53.5v48zM228 635q-5 -3 -23.5 -18t-40.5 -32.5t-41 -32t-23 -17.5l-45 40l141 152h71l135 -150l-46 -42z" />
    <glyph glyph-name="adieresis" unicode="&#xe4;" horiz-adv-x="444" 
d="M290 0v38l-4 2q-18 -24 -48 -34.5t-61 -10.5q-73 0 -108 41t-35 108q0 32 10 59.5t31 48t53 32.5t76 12h86v45q0 25 -17 42.5t-56 17.5q-27 0 -50 -9.5t-36 -34.5q-4 2 -16 9.5t-25.5 15.5t-25 15.5t-15.5 10.5q23 48 68 70t102 22q39 0 72 -7.5t57.5 -25.5t38.5 -47.5
t14 -73.5v-346h-111zM290 212h-79q-33 0 -51.5 -15.5t-18.5 -45.5q0 -23 16.5 -40t54.5 -17q32 0 55 16.5t23 53.5v48zM267 575v108h107v-108h-107zM86 575v108h106v-108h-106z" />
    <glyph glyph-name="agrave" unicode="&#xe0;" horiz-adv-x="444" 
d="M290 0v38l-4 2q-18 -24 -48 -34.5t-61 -10.5q-73 0 -108 41t-35 108q0 32 10 59.5t31 48t53 32.5t76 12h86v45q0 25 -17 42.5t-56 17.5q-27 0 -50 -9.5t-36 -34.5q-4 2 -16 9.5t-25.5 15.5t-25 15.5t-15.5 10.5q23 48 68 70t102 22q39 0 72 -7.5t57.5 -25.5t38.5 -47.5
t14 -73.5v-346h-111zM290 212h-79q-33 0 -51.5 -15.5t-18.5 -45.5q0 -23 16.5 -40t54.5 -17q32 0 55 16.5t23 53.5v48zM227 543l-120 174l99 38l84 -181z" />
    <glyph glyph-name="ccedilla" unicode="&#xe7;" horiz-adv-x="404" 
d="M220 501q58 0 101 -27t63 -76q-4 -3 -17.5 -10t-29 -14.5t-29 -14.5t-17.5 -10q-22 49 -67 49q-26 0 -42.5 -11t-25.5 -30.5t-12 -47t-3 -59.5q0 -33 3.5 -61.5t12.5 -48.5t25 -31.5t41 -11.5q24 0 40.5 13t27.5 34q4 -3 17.5 -9.5t29 -14.5t29 -14.5t18.5 -9.5
q-20 -46 -59 -72t-93 -28l-12 -37q26 -3 43.5 -12t28 -21t15 -26t4.5 -26q0 -15 -5.5 -30t-18 -27t-31.5 -19.5t-46 -7.5q-17 0 -45.5 3.5t-52.5 16.5q5 12 9.5 24.5t9.5 24.5q21 -11 37 -13t30 -2q17 0 28.5 9.5t11.5 23.5q0 17 -11.5 25.5t-29.5 8.5q-8 0 -12 -1
q-7 5 -13.5 9.5t-13.5 9.5l21 69q-44 7 -72.5 28t-46 54t-24.5 76.5t-7 94.5q0 55 10.5 101t33 79t58.5 51.5t88 18.5z" />
    <glyph glyph-name="pi" unicode="&#x3c0;" horiz-adv-x="470" 
d="M305 0v405h-141v-405h-110v496h362v-496h-111z" />
    <glyph glyph-name="dieresistonos" unicode="&#x385;" horiz-adv-x="484" 
d="M320 575v106h106v-106h-106zM53 575v106h106v-106h-106zM169 560l60 193l103 -24l-97 -187z" />
    <glyph glyph-name="tonos" unicode="&#x384;" horiz-adv-x="439" 
d="M179 571l81 184l99 -37l-117 -175z" />
    <glyph glyph-name="sfthyphen" unicode="&#xad;" horiz-adv-x="391" 
d="M49 213v98h298v-98h-298z" />
    <glyph glyph-name="Gamma" unicode="&#x393;" horiz-adv-x="461" 
d="M177 590v-590h-114v696h383v-106h-269z" />
    <glyph glyph-name="Delta" unicode="&#x394;" horiz-adv-x="526" 
d="M6 0l202 696h109l202 -696h-513zM372 105q-6 24 -14.5 59.5t-19 76.5t-21.5 84.5t-21 83.5t-18.5 73.5t-12.5 53.5h-5q-7 -25 -15.5 -63t-19.5 -82l-72 -286h219z" />
    <glyph glyph-name="Delta" unicode="&#x2206;" horiz-adv-x="526" 
d="M6 0l202 696h109l202 -696h-513zM372 105q-6 24 -14.5 59.5t-19 76.5t-21.5 84.5t-21 83.5t-18.5 73.5t-12.5 53.5h-5q-7 -25 -15.5 -63t-19.5 -82l-72 -286h219z" />
    <glyph glyph-name="Theta" unicode="&#x398;" horiz-adv-x="516" 
d="M183 402h149v-101h-149v101zM471 212q0 -50 -15.5 -90.5t-44 -69t-67.5 -43.5t-86 -15q-57 0 -98 19t-66.5 50.5t-37.5 73t-12 86.5v263q0 37 11.5 75.5t37 69.5t66 50.5t99.5 19.5q55 0 95 -18.5t66.5 -49t39 -69t12.5 -78.5v-274zM355 489q0 13 -4.5 30.5t-15.5 33.5
t-29.5 27t-47.5 11q-28 0 -47 -10t-31 -25.5t-17.5 -33.5t-5.5 -33l1 -267q0 -25 5.5 -47t17.5 -38t31.5 -25t46.5 -9q39 0 67.5 26.5t28.5 73.5v286z" />
    <glyph glyph-name="Lambda" unicode="&#x39b;" horiz-adv-x="520" 
d="M397 0l-135 527h-4q-11 -44 -20 -77t-17 -62q-14 -53 -26.5 -101.5t-24.5 -95.5t-23.5 -94t-24.5 -97h-119l202 696h109l202 -696h-119z" />
    <glyph glyph-name="Xi" unicode="&#x39e;" horiz-adv-x="483" 
d="M44 590v106h395v-106h-395zM84 300v104h315v-104h-315zM44 0v109h396v-109h-396z" />
    <glyph glyph-name="Pi" unicode="&#x3a0;" horiz-adv-x="543" 
d="M366 0v591h-189v-591h-114v696h417v-696h-114z" />
    <glyph glyph-name="Sigma" unicode="&#x3a3;" horiz-adv-x="429" 
d="M25 0v103l125 255l-127 239v99h373v-105h-242l125 -233l-124 -250h254v-108h-384z" />
    <glyph glyph-name="Iotadieresis" unicode="&#x3aa;" horiz-adv-x="243" 
d="M64 0v696h115v-696h-115zM158 742v108h106v-108h-106zM-24 742v108h108v-108h-108z" />
    <glyph glyph-name="Phi" unicode="&#x3a6;" horiz-adv-x="656" 
d="M272 58q-68 6 -112 29t-70 61.5t-36.5 91.5t-10.5 119q0 62 11.5 114.5t38.5 92t71 63.5t108 30v37h111v-37q64 -6 108 -29.5t71 -61.5t39 -90t12 -116q0 -66 -11 -119.5t-37 -92.5t-70.5 -62.5t-111.5 -29.5v-58h-111v58zM271 555q-65 -5 -90 -57t-25 -136
q0 -47 5.5 -83.5t18.5 -62t35.5 -39.5t55.5 -17v395zM384 160q67 5 91.5 55.5t24.5 147.5q0 85 -25.5 136t-90.5 56v-395z" />
    <glyph glyph-name="Psi" unicode="&#x3a8;" horiz-adv-x="651" 
d="M598 350q0 -46 -17 -84t-46 -65t-68.5 -43t-84.5 -18v-140h-113v140q-45 2 -85 18t-69 44t-46 67t-17 86v341h113v-336q0 -51 29.5 -80t74.5 -32v448h113v-448q45 2 75 29t30 78v341h111v-346v0z" />
    <glyph glyph-name="Omega" unicode="&#x3a9;" horiz-adv-x="517" 
d="M292 116q29 11 46.5 37t17.5 63v271q0 19 -6 37.5t-18 33.5t-30.5 24t-43.5 9q-26 0 -44.5 -9t-31.5 -23.5t-19 -33.5t-6 -38v-263q0 -38 17 -67.5t49 -40.5v-116h-191v105h60q0 1 0.5 1t0.5 1q-29 21 -39 58.5t-10 79.5v239q0 42 13.5 81.5t40 69.5t66.5 48t94 18
q50 0 89.5 -17t67 -46.5t42 -69t14.5 -84.5v-242q0 -43 -11 -78.5t-39 -57.5l1 -1h61v-105h-191v116v0z" />
    <glyph glyph-name="afii00208" unicode="&#x2015;" horiz-adv-x="1013" 
d="M20 225v96h973v-96h-973z" />
    <glyph glyph-name="alpha" unicode="&#x3b1;" horiz-adv-x="457" 
d="M296 453v41h111v-494h-111v43q-1 0 -1.5 0.5t-1.5 0.5q-19 -25 -47 -37.5t-53 -12.5q-53 0 -83 21.5t-46 56t-20 77.5t-4 87t4 90.5t19.5 85t46.5 63.5t85 25q28 0 53.5 -12t45.5 -37zM225 396q-26 0 -40.5 -15.5t-21.5 -40t-8.5 -54t-1.5 -57.5q0 -27 3 -51t11 -41.5
t21.5 -27.5t34.5 -10q22 0 36.5 12t22.5 32t11.5 46t3.5 54q0 33 -2.5 61.5t-10 48.5t-21.5 31.5t-38 11.5z" />
    <glyph glyph-name="beta" unicode="&#x3b2;" horiz-adv-x="463" 
d="M161 244q0 -26 0.5 -52t7 -47.5t21 -35t42.5 -13.5q24 0 38.5 10t23 29t11 46t2.5 60q0 57 -14 90t-60 33h-36v87h28q38 0 51.5 25.5t13.5 62.5q0 39 -17.5 62.5t-51.5 23.5q-20 0 -31.5 -8t-18 -20t-8.5 -27.5t-2 -30.5v-295zM51 511q0 49 9.5 88.5t30 67.5t54 43
t81.5 15q46 0 79 -14t54 -38t31 -56t10 -68q0 -46 -15.5 -81t-49.5 -52v-2q29 -8 46 -25.5t26 -41.5t11.5 -53.5t2.5 -62.5q0 -51 -6.5 -94.5t-23.5 -75t-46.5 -49t-76.5 -17.5q-29 0 -56 10t-48 35q-1 0 -1.5 -0.5t-1.5 -0.5v-186h-110v658z" />
    <glyph glyph-name="psi" unicode="&#x3c8;" horiz-adv-x="594" 
d="M546 176q0 -46 -16.5 -79.5t-44 -55.5t-62.5 -33.5t-71 -12.5v-197h-110v197q-39 1 -74 13.5t-61.5 35t-41.5 55t-15 74.5v322h110v-312q0 -40 23.5 -62t58.5 -25v409h109v-409q16 1 31.5 7t27.5 17t19 26.5t7 36.5v312h110v-319v0z" />
    <glyph glyph-name="delta" unicode="&#x3b4;" horiz-adv-x="445" 
d="M355 612q-27 9 -50.5 13t-41.5 4q-12 0 -25 -2.5t-24 -8t-18 -15t-7 -23.5q0 -23 20.5 -43t54.5 -40q32 -19 61 -38t50 -48q19 -26 26.5 -68.5t7.5 -84.5q0 -26 -1 -53.5t-5 -53.5q-6 -44 -28 -81q-26 -43 -69 -59.5t-86 -16.5q-57 0 -93.5 17.5t-58.5 51.5
q-19 35 -25 78t-6 97q0 38 5 74.5t21 68.5q11 25 30.5 45.5t47.5 32.5q-64 49 -64 122q0 37 13 64.5t36 45.5t54.5 27t69.5 9t70 -6t59 -15zM225 390q-31 -9 -49.5 -29t-23.5 -56q-2 -17 -3.5 -34.5t-1.5 -40.5q0 -28 2 -47t7 -36q8 -25 23.5 -39t43.5 -14q55 0 70 60
q5 17 6 34.5t1 43.5q0 15 -0.5 27t-1.5 26q-2 39 -18.5 65t-54.5 40z" />
    <glyph glyph-name="epsilon" unicode="&#x3b5;" horiz-adv-x="407" 
d="M219 501q63 0 107.5 -26t65.5 -77q-4 -3 -17.5 -9.5t-29.5 -14.5t-29.5 -14.5t-17.5 -9.5q-11 27 -32 37.5t-42 10.5q-31 0 -49.5 -14.5t-18.5 -40.5q0 -21 15.5 -34t47.5 -13h56v-86h-58q-28 0 -46 -15t-18 -41q0 -25 20 -40.5t52 -15.5q27 0 47 12.5t28 35.5
q4 -3 18.5 -10t30 -15t29.5 -15t18 -10q-23 -48 -64.5 -74.5t-107.5 -26.5q-40 0 -73.5 9.5t-58 28.5t-38 48t-13.5 67q0 29 16 60t54 47v1q-38 14 -52 41.5t-14 56.5q0 30 11.5 57t34 47t55 31.5t73.5 11.5z" />
    <glyph glyph-name="phi" unicode="&#x3c6;" horiz-adv-x="579" 
d="M356 500q45 0 82.5 -17t60.5 -48q15 -18 24 -40t13 -46.5t5 -51.5t1 -54q0 -38 -2.5 -69.5t-13.5 -61.5q-9 -32 -27.5 -53.5t-43.5 -35.5t-53.5 -20.5t-57.5 -7.5v-193h-109v193q-66 2 -108 24.5t-65 68.5q-16 27 -20 68t-4 89q0 45 4.5 86.5t18.5 71.5q14 32 38 54.5
t63 33.5q8 -24 17.5 -48.5t18.5 -48.5q-18 -8 -28 -21t-15 -32t-6 -44t-1 -57q0 -23 1 -44t5 -38q15 -62 81 -63v405h121zM432 246q0 29 -1 53t-5 40q-8 30 -30 44t-53 16v-304q73 5 85 66q3 17 3.5 38.5t0.5 46.5z" />
    <glyph glyph-name="gamma" unicode="&#x3b3;" horiz-adv-x="428" 
d="M164 -6q-9 36 -22 84t-27 98.5t-27.5 98t-25.5 80.5q-9 28 -16.5 37t-28.5 9h-6q-2 23 -4 45t-4 45q17 6 34 9t29 3q30 0 48 -15t30 -38t19 -50t14 -51l9.5 -38t11 -45t10.5 -44t10 -36h6q20 80 39.5 157.5t41.5 150.5h118q-39 -121 -77 -241t-74 -246v-205h-108v192z
" />
    <glyph glyph-name="eta" unicode="&#x3b7;" horiz-adv-x="464" 
d="M302 0v318q0 37 -20 56.5t-50 19.5q-32 0 -51.5 -20.5t-19.5 -57.5v-316h-111v495h111v-47h3q19 23 47 37.5t59 14.5q67 0 104.5 -40.5t37.5 -110.5v-349h-110z" />
    <glyph glyph-name="iota" unicode="&#x3b9;" horiz-adv-x="242" 
d="M206 -3q-4 -1 -12 -1h-12q-42 0 -66.5 8.5t-38 26t-17.5 44t-4 62.5v357h108v-361q0 -26 9 -35.5t35 -9.5z" />
    <glyph glyph-name="xi" unicode="&#x3be;" horiz-adv-x="382" 
d="M232 726q24 0 49 -5t48 -16.5t42 -30.5t32 -47q-20 -14 -42 -30t-42 -29q-42 56 -90 56q-36 0 -54 -27t-18 -65q0 -44 24.5 -72t75.5 -28h85v-92h-93q-27 0 -46 -11t-31 -29t-18 -40.5t-6 -44.5q0 -47 19.5 -69.5t53.5 -38.5q48 -20 80.5 -34.5t52 -28.5t28 -29.5
t8.5 -36.5q0 -28 -21 -70t-59 -91q-20 11 -40.5 22.5t-40.5 23.5q15 25 27 47.5t12 36.5q0 20 -35 35q-49 19 -86.5 36.5t-63 41.5t-38.5 59.5t-13 91.5q0 25 5 50.5t16 48.5t28.5 42.5t42.5 32.5q-25 10 -41 27t-25 37.5t-12 42.5t-3 40q0 43 12.5 79t36.5 61.5t59.5 39.5
t80.5 14z" />
    <glyph glyph-name="kappa" unicode="&#x3ba;" horiz-adv-x="459" 
d="M167 304l140 190h136l-151 -193l168 -301h-127l-113 213l-56 -76v-137h-110v494h110v-190h3z" />
    <glyph glyph-name="lambda" unicode="&#x3bb;" horiz-adv-x="425" 
d="M422 83q1 -21 1.5 -42.5t0.5 -41.5q-13 -2 -26.5 -3t-24.5 -1q-24 0 -41 7.5t-28 20.5t-18.5 31t-13.5 40l-32 118q-7 26 -13 50.5t-14 50.5h-4q-9 -36 -19 -71.5t-20 -70.5q-12 -43 -25.5 -86t-25.5 -85h-114l158 479l-20 80q-4 15 -8 28t-11 22.5t-18.5 15.5t-30.5 6
h-7t-8 -1l-3 93q34 8 59 8q47 0 74 -19t41 -70q14 -50 33.5 -118.5t39.5 -141t39 -141t33 -117.5q7 -25 15 -32.5t31 -8.5z" />
    <glyph glyph-name="nu" unicode="&#x3bd;" horiz-adv-x="423" 
d="M214 154q1 7 6.5 27.5t11 44t10.5 44t7 27.5l10 40t15 58.5t15 58.5l10 40h119l-153 -494h-107q-6 21 -18.5 60t-27 87t-31 100.5t-31.5 100.5t-27 86.5t-19 59.5h120q3 -12 10.5 -39.5t15.5 -58.5t15 -59l10 -40l35 -143h4z" />
    <glyph glyph-name="omicron" unicode="&#x3bf;" horiz-adv-x="449" 
d="M228 502q64 0 101 -25.5t56 -63.5q14 -28 19 -73.5t5 -93.5q0 -40 -5 -84t-16 -71q-11 -28 -28.5 -46.5t-40 -30t-48.5 -16.5t-53 -5q-54 0 -90.5 20t-56.5 53q-18 29 -25.5 75t-7.5 104q0 45 4.5 87.5t15.5 68.5q20 47 62 74t108 27zM226 400q-22 0 -40 -11t-26 -34
q-7 -18 -9.5 -47.5t-2.5 -67.5q0 -29 1.5 -55t8.5 -45q17 -45 65 -45q23 0 42 11.5t27 45.5q4 14 5.5 41t1.5 61q0 30 -2 55.5t-8 42.5q-17 48 -63 48z" />
    <glyph glyph-name="omegatonos" unicode="&#x3ce;" horiz-adv-x="660" 
d="M452 -5q-32 1 -66 15.5t-53 48.5h-4q-21 -32 -53 -48t-68 -16q-57 0 -90.5 20.5t-51.5 55.5t-23.5 81.5t-5.5 98.5q0 53 7 98t26.5 78.5t54 53t89.5 20.5q0 -5 0.5 -19.5t1 -31.5t0.5 -32v-19q-41 -5 -54.5 -41.5t-13.5 -118.5q0 -71 13 -106t53 -35q38 0 49.5 26
t11.5 63v157h108v-157q0 -18 3 -34t10 -29t19.5 -20.5t31.5 -7.5q42 0 54.5 36.5t12.5 106.5q0 40 -2.5 69t-10 48t-21 29.5t-34.5 13.5q0 4 0.5 19t1.5 32t1.5 31.5t0.5 19.5q55 -1 89 -20.5t53.5 -53t26.5 -78.5t7 -98q0 -51 -6 -97.5t-24 -82t-52.5 -56t-91.5 -20.5z
M271 571l81 184l99 -37l-117 -175z" />
    <glyph glyph-name="rho" unicode="&#x3c1;" horiz-adv-x="452" 
d="M43 245q0 44 5 88t16 68q20 47 63 74t106 27q62 0 100.5 -25.5t57.5 -63.5q15 -32 19.5 -77t4.5 -95q0 -46 -5 -84.5t-17 -65.5q-17 -45 -51 -70.5t-89 -25.5q-22 0 -48.5 10.5t-46.5 33.5l-4 -1v-236h-111v443zM231 400q-22 0 -39.5 -10.5t-27.5 -33.5q-6 -17 -8 -47.5
t-2 -68.5v-55t8 -45q17 -45 67 -45q20 0 40 12.5t28 46.5q4 14 5.5 39.5t1.5 56.5q0 32 -1.5 58.5t-7.5 43.5q-17 48 -64 48z" />
    <glyph glyph-name="sigma" unicode="&#x3c3;" horiz-adv-x="457" 
d="M367 405q-1 -1 -1 -4q14 -14 22 -32t12.5 -39t6 -44t1.5 -45q0 -42 -4.5 -74t-13.5 -61q-20 -64 -67 -88t-105 -24q-72 0 -112.5 32t-56.5 88q-7 25 -9.5 59t-2.5 71q0 52 6.5 96.5t29.5 79.5q23 36 62.5 55.5t90.5 19.5h214v-90h-73zM224 391q-43 0 -61 -38
q-9 -19 -12 -46t-4 -68q-1 -31 2.5 -58t11.5 -45q9 -20 24 -30.5t38 -10.5q18 0 33 8t25 26q12 25 14.5 53.5t2.5 66.5q0 69 -14 101q-18 41 -60 41z" />
    <glyph glyph-name="tau" unicode="&#x3c4;" horiz-adv-x="309" 
d="M205 404v-249q0 -27 10 -40.5t37 -13.5h27v-101h-58q-62 0 -93.5 35.5t-31.5 86.5v282h-83v91h288v-91h-96z" />
    <glyph glyph-name="theta" unicode="&#x3b8;" horiz-adv-x="443" 
d="M408 247q0 -31 -1 -52t-2.5 -36t-3.5 -25t-4 -19q-9 -35 -27 -58t-42 -37t-52 -20t-57 -6q-57 0 -94 22.5t-57 57.5q-17 28 -23 72.5t-6 92.5v238q0 41 4 80t13 64q18 48 60.5 77t108.5 29q64 0 104 -27t59 -71q13 -30 16.5 -72t3.5 -84v-226zM149 330v-121
q0 -17 1.5 -34t4.5 -27q7 -25 22.5 -39t47.5 -14q26 0 43 16t24 40q3 10 4.5 26t1.5 35v118h-149zM298 469q-1 27 -1.5 45.5t-1.5 30.5t-2.5 19.5t-3.5 13.5q-8 21 -23.5 34.5t-40.5 13.5t-41 -12.5t-25 -33.5q-5 -14 -7.5 -33t-2.5 -42v-90h149v54z" />
    <glyph glyph-name="omega" unicode="&#x3c9;" horiz-adv-x="660" 
d="M626 251q0 -51 -6 -97.5t-24 -81.5t-52 -56t-91 -21q-32 0 -66.5 15t-53.5 49h-4q-21 -32 -53 -48t-68 -16q-57 0 -90.5 20.5t-51.5 55.5t-23.5 81.5t-5.5 98.5q0 53 7 98t26.5 78.5t54 53t89.5 20.5q0 -5 0.5 -19.5t1 -31.5t0.5 -32v-19q-41 -5 -54.5 -41.5
t-13.5 -118.5q0 -71 13 -106t53 -35q38 0 49.5 26t11.5 63v157h108v-157q0 -18 3 -34t10 -29t19.5 -20.5t31.5 -7.5q42 0 54.5 36.5t12.5 106.5q0 40 -2.5 69t-10 48t-21 29.5t-34.5 13.5q0 4 0.5 19t1.5 32t1.5 31.5t0.5 19.5q55 -1 89 -20.5t53.5 -53t26.5 -78.5t7 -98z
" />
    <glyph glyph-name="sigma1" unicode="&#x3c2;" horiz-adv-x="407" 
d="M42 233q0 61 10 110.5t32.5 84.5t60 54t91.5 19q59 0 103.5 -27.5t62.5 -81.5l-88 -50q-13 28 -33.5 42t-46.5 14q-45 0 -63.5 -38.5t-18.5 -113.5q0 -33 4.5 -54.5t17.5 -38t37 -31.5t63 -34q57 -24 78.5 -49.5t21.5 -55.5q0 -31 -23 -73t-56 -84l-81 45q14 23 26.5 46
t12.5 37q0 12 -8 21t-31 19q-53 20 -86.5 41t-52.5 48.5t-26 63.5t-7 86z" />
    <glyph glyph-name="chi" unicode="&#x3c7;" horiz-adv-x="432" 
d="M298 0l-83 166l-83 -166h-126l149 253q-36 60 -71.5 120.5t-71.5 121.5h127l76 -158h1l76 158h125l-143 -243l150 -252h-126z" />
    <glyph glyph-name="upsilon" unicode="&#x3c5;" horiz-adv-x="461" 
d="M412 227q0 -36 -0.5 -61t-7.5 -54q-16 -61 -64 -89t-112 -28q-59 0 -100 23.5t-61 64.5q-9 18 -13.5 41t-5.5 48v322h110v-255q0 -14 0.5 -28.5t2 -28t3 -24.5t3.5 -16q8 -20 24 -32.5t40 -12.5q29 0 48 18t21 50q2 17 2.5 44.5t0.5 52.5v232h109v-267z" />
    <glyph glyph-name="zeta" unicode="&#x3b6;" horiz-adv-x="386" 
d="M157 212q0 -41 21 -63t59 -40q46 -22 77.5 -37.5t50.5 -29t27 -28t8 -35.5q0 -16 -7 -36t-19 -42t-28.5 -45.5t-35.5 -47.5q-20 13 -39 25t-39 24q27 42 36 63t9 30q0 21 -47 40q-36 15 -70 31t-61 40t-43 57.5t-16 83.5q0 40 16 88t46 100t74 105t100 103l-204 1v100
h357v-88q-66 -55 -116.5 -110t-85 -107t-52.5 -98.5t-18 -83.5z" />
    <glyph glyph-name="iotadieresis" unicode="&#x3ca;" horiz-adv-x="242" 
d="M206 -3q-4 -1 -12 -1h-12q-42 0 -66.5 8.5t-38 26t-17.5 44t-4 62.5v357h108v-361q0 -26 9 -35.5t35 -9.5zM147 575v108h107v-108h-107zM-34 575v108h106v-108h-106z" />
    <glyph glyph-name="upsilondieresis" unicode="&#x3cb;" horiz-adv-x="461" 
d="M412 227q0 -36 -0.5 -61t-7.5 -54q-16 -61 -64 -89t-112 -28q-59 0 -100 23.5t-61 64.5q-9 18 -13.5 41t-5.5 48v322h110v-255q0 -14 0.5 -28.5t2 -28t3 -24.5t3.5 -16q8 -20 24 -32.5t40 -12.5q29 0 48 18t21 50q2 17 2.5 44.5t0.5 52.5v232h109v-267zM265 575v108h107
v-108h-107zM84 575v108h106v-108h-106z" />
    <glyph glyph-name="iotadieresistonos" unicode="&#x390;" horiz-adv-x="285" 
d="M229 -3q-4 -1 -12 -1h-12q-42 0 -66.5 8.5t-38 26t-17.5 44t-4 62.5v357h108v-361q0 -26 9 -35.5t35 -9.5zM221 575v106h106v-106h-106zM-46 575v106h106v-106h-106zM70 560l60 193l103 -24l-97 -187z" />
    <glyph glyph-name="upsilondieresistonos" unicode="&#x3b0;" horiz-adv-x="461" 
d="M412 227q0 -36 -0.5 -61t-7.5 -54q-16 -61 -64 -89t-112 -28q-59 0 -100 23.5t-61 64.5q-9 18 -13.5 41t-5.5 48v322h110v-255q0 -14 0.5 -28.5t2 -28t3 -24.5t3.5 -16q8 -20 24 -32.5t40 -12.5q29 0 48 18t21 50q2 17 2.5 44.5t0.5 52.5v232h109v-267zM310 575v106h106
v-106h-106zM43 575v106h106v-106h-106zM159 560l60 193l103 -24l-97 -187z" />
    <glyph glyph-name="Euro" unicode="&#x20ac;" horiz-adv-x="465" 
d="M455 151q-16 -74 -68.5 -115.5t-127.5 -41.5q-51 0 -89 17t-63 46.5t-37.5 70t-12.5 87.5v46h-39v63h39v47h-39v63h39v54q0 41 12 79.5t37 68t63 47.5t90 18q40 0 73 -12t58 -33t41.5 -49.5t23.5 -62.5l-105 -32q-3 14 -10 28.5t-18 26t-26.5 18.5t-36.5 7
q-25 0 -42.5 -9t-28.5 -23t-16 -32t-5 -36v-58h164v-63h-164v-47h164v-63h-164v-53q0 -44 22 -75t70 -31q36 0 60 22t32 58z" />
    <glyph glyph-name="logicalnot" unicode="&#xac;" horiz-adv-x="465" 
d="M445 79h-90v173h-336v88h426v-261z" />
    <glyph glyph-name="space" unicode=" " horiz-adv-x="229" 
 />
    <glyph glyph-name="circumflex" unicode="&#x2c6;" horiz-adv-x="471" 
d="M241 635q-5 -3 -23.5 -18t-40.5 -32.5t-41 -32t-23 -17.5l-45 40l141 152h71l135 -150l-46 -42z" />
    <glyph glyph-name="caron" unicode="&#x2c7;" horiz-adv-x="439" 
d="M354 727l46 -41l-136 -151h-71l-141 152l46 40q4 -3 23 -17.5t40.5 -31.5t40.5 -32t24 -18z" />
    <glyph glyph-name="breve" unicode="&#x2d8;" horiz-adv-x="468" 
d="M237 557q-42 0 -70.5 15t-46 37t-25.5 48t-9 48h86q1 -11 5.5 -22.5t13 -21.5t20 -16.5t26.5 -6.5q16 0 28 6.5t20 16.5t12 21.5t4 22.5h85q-2 -22 -10.5 -48t-25.5 -48t-45 -37t-68 -15z" />
    <glyph glyph-name="tilde" unicode="&#x2dc;" horiz-adv-x="433" 
d="M157 694q17 0 33 -6.5t31.5 -14.5t29.5 -14.5t26 -6.5q15 0 28.5 10t30.5 33l56 -33q-23 -49 -49.5 -71t-56.5 -22q-18 0 -34.5 6.5t-32 14t-30 14t-27.5 6.5q-15 0 -29.5 -9t-32.5 -32q-14 8 -27 16t-27 16q20 45 49 69t62 24z" />
    <glyph glyph-name="Dieresis" unicode="&#xf6cb;" horiz-adv-x="527" 
d="M298 742v108h106v-108h-106zM116 742v108h108v-108h-108z" />
    <glyph glyph-name="acute" unicode="&#xb4;" horiz-adv-x="438" 
d="M160 571l82 184l98 -37l-116 -175z" />
    <glyph glyph-name="cedilla" unicode="&#xb8;" horiz-adv-x="439" 
d="M189 35q14 -1 27 -1h27l-25 -75q26 -3 43.5 -12t28 -21t15 -26t4.5 -26q0 -15 -5.5 -30t-18 -27t-31.5 -19.5t-46 -7.5q-17 0 -45.5 3.5t-52.5 16.5q5 12 9.5 24.5t9.5 24.5q21 -11 37 -13t30 -2q17 0 28.5 9.5t11.5 23.5q0 17 -11.5 25.5t-29.5 8.5q-8 0 -12 -1
q-7 5 -13.5 9.5t-13.5 9.5l33 106v0z" />
    <glyph glyph-name="AE" unicode="&#xc6;" horiz-adv-x="834" 
d="M797 696v-106h-274v-186h235v-104h-235v-191h274v-109h-388v171h-189q-6 -12 -17 -35.5t-22.5 -50t-22.5 -50t-17 -35.5h-124q14 29 40 84t57.5 122.5t66 141.5t66 141.5t57.5 122.5t40 84h453zM406 589q-11 -22 -30 -65.5t-40.5 -91.5t-41 -91.5t-29.5 -65.5h144v314h-3
z" />
    <glyph glyph-name="Ccedilla" unicode="&#xc7;" horiz-adv-x="492" 
d="M466 148q-16 -69 -66.5 -109t-123.5 -44l-11 -36q26 -3 43.5 -12t28 -21t15 -26t4.5 -26q0 -15 -5.5 -30t-18 -27t-31.5 -19.5t-46 -7.5q-17 0 -45.5 3.5t-52.5 16.5q5 12 9.5 24.5t9.5 24.5q21 -11 37 -13t30 -2q17 0 28.5 9.5t11.5 23.5q0 17 -11.5 25.5t-29.5 8.5
q-8 0 -12 -1q-7 5 -13.5 9.5t-13.5 9.5l21 68q-45 6 -78 25t-55 48t-33 66.5t-11 79.5v270q0 41 13 80t39.5 69t66.5 48t95 18q84 0 136.5 -44t69.5 -110l-109 -36q-3 15 -10 29t-19 25.5t-29 18.5t-39 7q-26 0 -44.5 -9t-30.5 -23.5t-18 -32.5t-6 -36v-277q0 -22 6 -42
t18.5 -35t31 -23.5t43.5 -8.5q37 0 63 21t33 58z" />
    <glyph glyph-name="Ntilde" unicode="&#xd1;" horiz-adv-x="579" 
d="M416 0l-164 299l-73 143l-3 -1v-441h-115v696h105l154 -284l82 -156l4 1v439h114v-696h-104zM222 862q17 0 33 -6.5t31.5 -14.5t29.5 -14.5t26 -6.5q15 0 28.5 10t30.5 33l56 -33q-23 -49 -49.5 -71t-56.5 -22q-18 0 -34.5 6.5t-32 14t-30 14t-27.5 6.5q-15 0 -29.5 -9
t-32.5 -32q-14 8 -27 16t-27 16q20 45 49 69t62 24z" />
    <glyph glyph-name="multiply" unicode="&#xd7;" horiz-adv-x="487" 
d="M312 290l145 -147l-62 -61l-145 146l-147 -144q-15 15 -30.5 31t-31.5 31l147 146l-146 146q16 16 31.5 31t30.5 31l145 -147l146 145l62 -64z" />
    <glyph glyph-name="ae" unicode="&#xe6;" horiz-adv-x="699" 
d="M652 92q-23 -50 -67 -73.5t-99 -23.5q-105 0 -150 63q-23 -24 -46.5 -36.5t-44.5 -18.5t-38.5 -7t-29.5 -1q-73 0 -108 41t-35 107q0 32 10 60t31 48.5t53 32.5t76 12h86v40q0 26 -18.5 43.5t-55.5 17.5q-25 0 -49.5 -8t-35.5 -32q-21 12 -41.5 25t-40.5 26
q23 48 67.5 70t101.5 22q43 0 79.5 -9.5t59.5 -38.5q40 49 121 49q54 0 90 -18.5t57 -51t29.5 -77t8.5 -97.5v-44h-259q0 -26 3 -47.5t11.5 -37t24 -24.5t39.5 -9q50 0 79 47zM290 212h-79q-34 0 -52.5 -15.5t-18.5 -45.5q0 -24 16.5 -41t54.5 -17q33 0 56 16.5t23 53.5v49z
M551 295q0 47 -17 75.5t-57 28.5q-20 0 -33.5 -8t-22 -22t-12 -33t-4.5 -41h146z" />
    <glyph glyph-name="eth" unicode="&#xf0;" horiz-adv-x="455" 
d="M210 477q10 0 24.5 -2.5t29.5 -8.5t29 -15.5t23 -22.5h3q-2 35 -6 68t-20 62l-57 -44q-8 10 -16 21t-16 21l57 43q-20 20 -51 32.5t-71 18.5l12 81q75 -6 118.5 -27.5t66.5 -45.5l64 50l35 -40q-17 -13 -33 -25.5t-33 -24.5q15 -22 24 -55t14.5 -73t7 -86t1.5 -93
q0 -35 -2 -69.5t-8 -67t-16.5 -61.5t-26.5 -52q-23 -32 -58.5 -49.5t-89.5 -17.5t-89.5 17.5t-56 49t-28.5 74.5t-8 94q0 37 4.5 74.5t15.5 66.5q17 48 55.5 77.5t101.5 29.5zM220 376q-16 0 -29.5 -5.5t-24 -21.5t-16.5 -44.5t-6 -74.5q0 -31 3.5 -56t12 -43t23 -27.5
t36.5 -9.5q18 0 32.5 7.5t24 24.5t14.5 45t5 69q0 72 -17.5 104t-57.5 32z" />
    <glyph glyph-name="otilde" unicode="&#xf5;" horiz-adv-x="449" 
d="M228 502q64 0 101 -25.5t56 -63.5q14 -28 19 -73.5t5 -93.5q0 -40 -5 -84t-16 -71q-11 -28 -28.5 -46.5t-40 -30t-48.5 -16.5t-53 -5q-54 0 -90.5 20t-56.5 53q-18 29 -25.5 75t-7.5 104q0 45 4.5 87.5t15.5 68.5q20 47 62 74t108 27zM226 400q-22 0 -40 -11t-26 -34
q-7 -18 -9.5 -47.5t-2.5 -67.5q0 -29 1.5 -55t8.5 -45q17 -45 65 -45q23 0 42 11.5t27 45.5q4 14 5.5 41t1.5 61q0 30 -2 55.5t-8 42.5q-17 48 -63 48zM161 694q17 0 33 -6.5t31.5 -14.5t29.5 -14.5t26 -6.5q15 0 28.5 10t30.5 33l56 -33q-23 -49 -49.5 -71t-56.5 -22
q-18 0 -34.5 6.5t-32 14t-30 14t-27.5 6.5q-15 0 -29.5 -9t-32.5 -32q-14 8 -27 16t-27 16q20 45 49 69t62 24z" />
    <glyph glyph-name="dotlessi" unicode="&#x131;" horiz-adv-x="225" 
d="M57 0v495h111v-495h-111z" />
    <glyph glyph-name="florin" unicode="&#x192;" horiz-adv-x="465" 
d="M106 427h87q0 1 1.5 12t3 23t3 22.5t1.5 12.5q4 36 14 72t30 65t51 47t78 18q22 0 45 -4t41 -12l-23 -93q-18 8 -32.5 10t-28.5 2q-17 0 -28.5 -8.5t-19.5 -22.5t-13 -32.5t-7 -37.5l-10 -74h88v-93h-100l-27 -217q-6 -47 -16.5 -85.5t-29 -66t-46 -42.5t-66.5 -15
q-20 0 -47.5 5.5t-50.5 16.5l28 87q19 -8 31.5 -10.5t22.5 -2.5q31 0 45 28t21 85l27 217h-72z" />
    <glyph glyph-name="Adieresis" unicode="&#xc4;" horiz-adv-x="526" 
d="M359 150h-193q-2 -9 -8 -30t-12.5 -45t-12 -45t-8.5 -30h-119l201 696h110l202 -696h-121zM227 392l-36 -140h142l-35 139q-2 9 -6.5 30t-10 44t-10.5 43.5t-6 29.5h-5zM117 742v108h108v-108h-108zM299 742v108h106v-108h-106z" />
    <glyph glyph-name="Eacute" unicode="&#xc9;" horiz-adv-x="473" 
d="M63 0v696h387v-106h-273v-186h235v-104h-235v-191h273v-109h-387zM173 780l159 124l69 -80l-185 -98z" />
    <glyph glyph-name="Odieresis" unicode="&#xd6;" horiz-adv-x="516" 
d="M471 211q0 -50 -15.5 -90t-44 -68.5t-67.5 -43.5t-86 -15q-57 0 -98 18.5t-66.5 50t-37.5 73t-12 87.5v263q0 37 11.5 75t37 69t66 51t99.5 20q55 0 95 -19t66.5 -49.5t39 -69t12.5 -77.5v-275zM355 488q0 13 -4.5 30.5t-15.5 33.5t-29.5 27.5t-47.5 11.5t-48.5 -10.5
t-31 -26t-16.5 -33.5t-5 -34l1 -266q0 -50 23 -84t78 -34q39 0 67.5 26.5t28.5 72.5v286zM297 742v108h106v-108h-106zM115 742v108h108v-108h-108z" />
    <glyph glyph-name="Udieresis" unicode="&#xdc;" horiz-adv-x="535" 
d="M482 696v-485q0 -50 -15.5 -90.5t-44 -68.5t-67.5 -43t-86 -15q-54 0 -94.5 17.5t-67 47.5t-40 70.5t-13.5 86.5v480h114v-483q0 -45 25.5 -77t75.5 -32q42 0 69.5 27.5t27.5 74.5v490h116zM307 742v108h106v-108h-106zM125 742v108h108v-108h-108z" />
    <glyph glyph-name="eacute" unicode="&#xe9;" horiz-adv-x="444" 
d="M305 145q23 -12 45.5 -24t45.5 -25q-23 -50 -68 -75.5t-100 -25.5q-105 0 -148.5 62t-43.5 190q0 53 8.5 99t30 80.5t57.5 54.5t91 20q51 0 86 -17t57 -47t31.5 -71t9.5 -90v-58h-259q0 -24 3 -46.5t12 -39.5t24 -27t39 -10t44 13.5t35 36.5zM294 295q0 47 -16.5 75.5
t-56.5 28.5t-55 -30t-17 -74h145zM169 571l82 184l98 -37l-116 -175z" />
    <glyph glyph-name="egrave" unicode="&#xe8;" horiz-adv-x="444" 
d="M305 145q23 -12 45.5 -24t45.5 -25q-23 -50 -68 -75.5t-100 -25.5q-105 0 -148.5 62t-43.5 190q0 53 8.5 99t30 80.5t57.5 54.5t91 20q51 0 86 -17t57 -47t31.5 -71t9.5 -90v-58h-259q0 -24 3 -46.5t12 -39.5t24 -27t39 -10t44 13.5t35 36.5zM294 295q0 47 -16.5 75.5
t-56.5 28.5t-55 -30t-17 -74h145zM206 543l-120 174l99 38l84 -181z" />
    <glyph glyph-name="ecircumflex" unicode="&#xea;" horiz-adv-x="444" 
d="M305 145q23 -12 45.5 -24t45.5 -25q-23 -50 -68 -75.5t-100 -25.5q-105 0 -148.5 62t-43.5 190q0 53 8.5 99t30 80.5t57.5 54.5t91 20q51 0 86 -17t57 -47t31.5 -71t9.5 -90v-58h-259q0 -24 3 -46.5t12 -39.5t24 -27t39 -10t44 13.5t35 36.5zM294 295q0 47 -16.5 75.5
t-56.5 28.5t-55 -30t-17 -74h145zM222 635q-5 -3 -23.5 -18t-40.5 -32.5t-41 -32t-23 -17.5l-45 40l141 152h71l135 -150l-46 -42z" />
    <glyph glyph-name="edieresis" unicode="&#xeb;" horiz-adv-x="444" 
d="M305 145q23 -12 45.5 -24t45.5 -25q-23 -50 -68 -75.5t-100 -25.5q-105 0 -148.5 62t-43.5 190q0 53 8.5 99t30 80.5t57.5 54.5t91 20q51 0 86 -17t57 -47t31.5 -71t9.5 -90v-58h-259q0 -24 3 -46.5t12 -39.5t24 -27t39 -10t44 13.5t35 36.5zM294 295q0 47 -16.5 75.5
t-56.5 28.5t-55 -30t-17 -74h145zM261 575v108h107v-108h-107zM80 575v108h106v-108h-106z" />
    <glyph glyph-name="icircumflex" unicode="&#xee;" horiz-adv-x="297" 
d="M92 0v495h111v-495h-111zM148 635q-5 -3 -23.5 -18t-40.5 -32.5t-41 -32t-23 -17.5l-45 40l141 152h71l135 -150l-46 -42z" />
    <glyph glyph-name="idieresis" unicode="&#xef;" horiz-adv-x="268" 
d="M78 0v495h111v-495h-111zM171 575v108h107v-108h-107zM-10 575v108h106v-108h-106z" />
    <glyph glyph-name="ocircumflex" unicode="&#xf4;" horiz-adv-x="449" 
d="M228 502q64 0 101 -25.5t56 -63.5q14 -28 19 -73.5t5 -93.5q0 -40 -5 -84t-16 -71q-11 -28 -28.5 -46.5t-40 -30t-48.5 -16.5t-53 -5q-54 0 -90.5 20t-56.5 53q-18 29 -25.5 75t-7.5 104q0 45 4.5 87.5t15.5 68.5q20 47 62 74t108 27zM226 400q-22 0 -40 -11t-26 -34
q-7 -18 -9.5 -47.5t-2.5 -67.5q0 -29 1.5 -55t8.5 -45q17 -45 65 -45q23 0 42 11.5t27 45.5q4 14 5.5 41t1.5 61q0 30 -2 55.5t-8 42.5q-17 48 -63 48zM222 635q-5 -3 -23.5 -18t-40.5 -32.5t-41 -32t-23 -17.5l-45 40l141 152h71l135 -150l-46 -42z" />
    <glyph glyph-name="odieresis" unicode="&#xf6;" horiz-adv-x="449" 
d="M228 502q64 0 101 -25.5t56 -63.5q14 -28 19 -73.5t5 -93.5q0 -40 -5 -84t-16 -71q-11 -28 -28.5 -46.5t-40 -30t-48.5 -16.5t-53 -5q-54 0 -90.5 20t-56.5 53q-18 29 -25.5 75t-7.5 104q0 45 4.5 87.5t15.5 68.5q20 47 62 74t108 27zM226 400q-22 0 -40 -11t-26 -34
q-7 -18 -9.5 -47.5t-2.5 -67.5q0 -29 1.5 -55t8.5 -45q17 -45 65 -45q23 0 42 11.5t27 45.5q4 14 5.5 41t1.5 61q0 30 -2 55.5t-8 42.5q-17 48 -63 48zM259 575v108h107v-108h-107zM78 575v108h106v-108h-106z" />
    <glyph glyph-name="ugrave" unicode="&#xf9;" horiz-adv-x="462" 
d="M301 0v46q-1 0 -2 0.5t-2 0.5q-19 -25 -47.5 -38.5t-58.5 -13.5q-68 0 -105 40t-37 110v349h110v-318q0 -37 20.5 -57t49.5 -20q39 0 55.5 28.5t16.5 76.5v290h110v-494h-110zM223 543l-120 174l99 38l84 -181z" />
    <glyph glyph-name="ucircumflex" unicode="&#xfb;" horiz-adv-x="462" 
d="M301 0v46q-1 0 -2 0.5t-2 0.5q-19 -25 -47.5 -38.5t-58.5 -13.5q-68 0 -105 40t-37 110v349h110v-318q0 -37 20.5 -57t49.5 -20q39 0 55.5 28.5t16.5 76.5v290h110v-494h-110zM231 635q-5 -3 -23.5 -18t-40.5 -32.5t-41 -32t-23 -17.5l-45 40l141 152h71l135 -150
l-46 -42z" />
    <glyph glyph-name="udieresis" unicode="&#xfc;" horiz-adv-x="462" 
d="M301 0v46q-1 0 -2 0.5t-2 0.5q-19 -25 -47.5 -38.5t-58.5 -13.5q-68 0 -105 40t-37 110v349h110v-318q0 -37 20.5 -57t49.5 -20q39 0 55.5 28.5t16.5 76.5v290h110v-494h-110zM265 575v108h107v-108h-107zM84 575v108h106v-108h-106z" />
    <glyph glyph-name="Alpha" unicode="&#x391;" horiz-adv-x="526" 
d="M359 150h-193q-2 -9 -8 -30t-12.5 -45t-12 -45t-8.5 -30h-119l201 696h110l202 -696h-121zM227 392l-36 -140h142l-35 139q-2 9 -6.5 30t-10 44t-10.5 43.5t-6 29.5h-5z" />
    <glyph glyph-name="Beta" unicode="&#x392;" horiz-adv-x="524" 
d="M484 206q0 -100 -53.5 -153t-143.5 -53h-224v696h213q99 0 148.5 -51t49.5 -139q0 -44 -18.5 -81t-66.5 -59v-5q25 -8 43 -23.5t29.5 -36.5t17 -45.5t5.5 -49.5zM362 502q0 42 -22.5 66t-72.5 24h-90v-182h91q49 0 71.5 25.5t22.5 66.5zM372 213q0 44 -22 71t-73 27h-100
v-202h101q27 0 45 8t29 22.5t15.5 33.5t4.5 40z" />
    <glyph glyph-name="Epsilon" unicode="&#x395;" horiz-adv-x="473" 
d="M63 0v696h387v-106h-273v-186h235v-104h-235v-191h273v-109h-387z" />
    <glyph glyph-name="Zeta" unicode="&#x396;" horiz-adv-x="434" 
d="M26 0v102l253 490h-242v104h372v-97l-253 -491h253v-108h-383z" />
    <glyph glyph-name="Eta" unicode="&#x397;" horiz-adv-x="550" 
d="M373 0v301h-196v-301h-115v696h115v-292h196v292h114v-696h-114z" />
    <glyph glyph-name="Iota" unicode="&#x399;" horiz-adv-x="243" 
d="M64 0v696h115v-696h-115z" />
    <glyph glyph-name="Kappa" unicode="&#x39a;" horiz-adv-x="534" 
d="M407 0q-38 78 -75.5 155.5t-75.5 155.5q-20 -30 -40 -60.5t-40 -59.5v-191h-114v696h114v-315h3l204 315h131l-186 -278q51 -106 103 -209.5t104 -208.5h-128z" />
    <glyph glyph-name="Mu" unicode="&#x39c;" horiz-adv-x="669" 
d="M499 0v407h-4l-51 -130l-66 -152h-81l-68 157l-50 126l-4 -1v-407h-114v696h109l98 -228l68 -168h4l67 169l96 227h110v-696h-114z" />
    <glyph glyph-name="Upsilondieresis" unicode="&#x3ab;" horiz-adv-x="476" 
d="M241 404q11 34 23 67t24 67l61 158h121l-176 -412v-284h-112v284l-176 413h124q15 -41 30.5 -81t29.5 -80q11 -32 22.5 -66t22.5 -66h6zM93 742v108h108v-108h-108zM275 742v108h106v-108h-106z" />
    <glyph glyph-name="alphatonos" unicode="&#x3ac;" horiz-adv-x="457" 
d="M296 453v41h111v-494h-111v43q-1 0 -1.5 0.5t-1.5 0.5q-19 -25 -47 -37.5t-53 -12.5q-53 0 -83 21.5t-46 56t-20 77.5t-4 87t4 90.5t19.5 85t46.5 63.5t85 25q28 0 53.5 -12t45.5 -37zM225 396q-26 0 -40.5 -15.5t-21.5 -40t-8.5 -54t-1.5 -57.5q0 -27 3 -51t11 -41.5
t21.5 -27.5t34.5 -10q22 0 36.5 12t22.5 32t11.5 46t3.5 54q0 33 -2.5 61.5t-10 48.5t-21.5 31.5t-38 11.5zM170 571l81 184l99 -37l-117 -175z" />
    <glyph glyph-name="Nu" unicode="&#x39d;" horiz-adv-x="579" 
d="M416 0l-164 299l-73 143l-3 -1v-441h-115v696h105l154 -284l82 -156l4 1v439h114v-696h-104z" />
    <glyph glyph-name="Omicron" unicode="&#x39f;" horiz-adv-x="516" 
d="M471 211q0 -50 -15.5 -90t-44 -68.5t-67.5 -43.5t-86 -15q-57 0 -98 18.5t-66.5 50t-37.5 73t-12 87.5v263q0 37 11.5 75t37 69t66 51t99.5 20q55 0 95 -19t66.5 -49.5t39 -69t12.5 -77.5v-275zM355 488q0 13 -4.5 30.5t-15.5 33.5t-29.5 27.5t-47.5 11.5t-48.5 -10.5
t-31 -26t-16.5 -33.5t-5 -34l1 -266q0 -50 23 -84t78 -34q39 0 67.5 26.5t28.5 72.5v286z" />
    <glyph glyph-name="Rho" unicode="&#x3a1;" horiz-adv-x="502" 
d="M486 481q0 -45 -13 -84t-38.5 -68t-64.5 -45.5t-91 -16.5h-102v-267h-114v696h210q49 0 88 -13t67 -39.5t43 -67t15 -95.5zM373 483q0 52 -25 79.5t-76 27.5h-95v-216h96q51 0 75.5 29.5t24.5 79.5z" />
    <glyph glyph-name="Tau" unicode="&#x3a4;" horiz-adv-x="431" 
d="M271 592v-592h-114v592h-153v104h421v-104h-154z" />
    <glyph glyph-name="Upsilon" unicode="&#x3a5;" horiz-adv-x="476" 
d="M241 404q11 34 23 67t24 67l61 158h121l-176 -412v-284h-112v284l-176 413h124q15 -41 30.5 -81t29.5 -80q11 -32 22.5 -66t22.5 -66h6z" />
    <glyph glyph-name="Chi" unicode="&#x3a7;" horiz-adv-x="495" 
d="M131 0h-129q8 15 22.5 43.5t32.5 63.5t37.5 73t37 73t32 63.5t22.5 43.5l-172 336h130l102 -225l104 225h129l-173 -336l185 -360h-128l-116 247z" />
    <glyph glyph-name="Alphatonos" unicode="&#x386;" horiz-adv-x="526" 
d="M359 150h-193q-2 -9 -8 -30t-12.5 -45t-12 -45t-8.5 -30h-119l201 696h110l202 -696h-121zM227 392l-36 -140h142l-35 139q-2 9 -6.5 30t-10 44t-10.5 43.5t-6 29.5h-5zM-57 549l81 184l99 -37l-117 -175z" />
    <glyph glyph-name="Epsilontonos" unicode="&#x388;" horiz-adv-x="473" 
d="M63 0v696h387v-106h-273v-186h235v-104h-235v-191h273v-109h-387zM-145 554l81 184l99 -37l-117 -175z" />
    <glyph glyph-name="Etatonos" unicode="&#x389;" horiz-adv-x="550" 
d="M373 0v301h-196v-301h-115v696h115v-292h196v292h114v-696h-114zM-143 549l81 184l99 -37l-117 -175z" />
    <glyph glyph-name="Iotatonos" unicode="&#x38a;" horiz-adv-x="243" 
d="M64 0v696h115v-696h-115zM-147 549l81 184l99 -37l-117 -175z" />
    <glyph glyph-name="Omicrontonos" unicode="&#x38c;" horiz-adv-x="516" 
d="M471 211q0 -50 -15.5 -90t-44 -68.5t-67.5 -43.5t-86 -15q-57 0 -98 18.5t-66.5 50t-37.5 73t-12 87.5v263q0 37 11.5 75t37 69t66 51t99.5 20q55 0 95 -19t66.5 -49.5t39 -69t12.5 -77.5v-275zM355 488q0 13 -4.5 30.5t-15.5 33.5t-29.5 27.5t-47.5 11.5t-48.5 -10.5
t-31 -26t-16.5 -33.5t-5 -34l1 -266q0 -50 23 -84t78 -34q39 0 67.5 26.5t28.5 72.5v286zM-124 549l81 184l99 -37l-117 -175z" />
    <glyph glyph-name="Upsilontonos" unicode="&#x38e;" horiz-adv-x="476" 
d="M241 404q11 34 23 67t24 67l61 158h121l-176 -412v-284h-112v284l-176 413h124q15 -41 30.5 -81t29.5 -80q11 -32 22.5 -66t22.5 -66h6zM-185 549l81 184l99 -37l-117 -175z" />
    <glyph glyph-name="epsilontonos" unicode="&#x3ad;" horiz-adv-x="407" 
d="M219 501q63 0 107.5 -26t65.5 -77q-4 -3 -17.5 -9.5t-29.5 -14.5t-29.5 -14.5t-17.5 -9.5q-11 27 -32 37.5t-42 10.5q-31 0 -49.5 -14.5t-18.5 -40.5q0 -21 15.5 -34t47.5 -13h56v-86h-58q-28 0 -46 -15t-18 -41q0 -25 20 -40.5t52 -15.5q27 0 47 12.5t28 35.5
q4 -3 18.5 -10t30 -15t29.5 -15t18 -10q-23 -48 -64.5 -74.5t-107.5 -26.5q-40 0 -73.5 9.5t-58 28.5t-38 48t-13.5 67q0 29 16 60t54 47v1q-38 14 -52 41.5t-14 56.5q0 30 11.5 57t34 47t55 31.5t73.5 11.5zM159 571l81 184l99 -37l-117 -175z" />
    <glyph glyph-name="etatonos" unicode="&#x3ae;" horiz-adv-x="464" 
d="M302 0v318q0 37 -20 56.5t-50 19.5q-32 0 -51.5 -20.5t-19.5 -57.5v-316h-111v495h111v-47h3q19 23 47 37.5t59 14.5q67 0 104.5 -40.5t37.5 -110.5v-349h-110zM151 571l81 184l99 -37l-117 -175z" />
    <glyph glyph-name="iotatonos" unicode="&#x3af;" horiz-adv-x="242" 
d="M206 -3q-4 -1 -12 -1h-12q-42 0 -66.5 8.5t-38 26t-17.5 44t-4 62.5v357h108v-361q0 -26 9 -35.5t35 -9.5zM60 571l81 184l99 -37l-117 -175z" />
    <glyph glyph-name="omicrontonos" unicode="&#x3cc;" horiz-adv-x="449" 
d="M228 502q64 0 101 -25.5t56 -63.5q14 -28 19 -73.5t5 -93.5q0 -40 -5 -84t-16 -71q-11 -28 -28.5 -46.5t-40 -30t-48.5 -16.5t-53 -5q-54 0 -90.5 20t-56.5 53q-18 29 -25.5 75t-7.5 104q0 45 4.5 87.5t15.5 68.5q20 47 62 74t108 27zM226 400q-22 0 -40 -11t-26 -34
q-7 -18 -9.5 -47.5t-2.5 -67.5q0 -29 1.5 -55t8.5 -45q17 -45 65 -45q23 0 42 11.5t27 45.5q4 14 5.5 41t1.5 61q0 30 -2 55.5t-8 42.5q-17 48 -63 48zM170 571l81 184l99 -37l-117 -175z" />
    <glyph glyph-name="Omegatonos" unicode="&#x38f;" horiz-adv-x="517" 
d="M292 116q29 11 46.5 37t17.5 63v271q0 19 -6 37.5t-18 33.5t-30.5 24t-43.5 9q-26 0 -44.5 -9t-31.5 -23.5t-19 -33.5t-6 -38v-263q0 -38 17 -67.5t49 -40.5v-116h-191v105h60q0 1 0.5 1t0.5 1q-29 21 -39 58.5t-10 79.5v239q0 42 13.5 81.5t40 69.5t66.5 48t94 18
q50 0 89.5 -17t67 -46.5t42 -69t14.5 -84.5v-242q0 -43 -11 -78.5t-39 -57.5l1 -1h61v-105h-191v116zM-124 549l81 184l99 -37l-117 -175z" />
    <glyph glyph-name="upsilontonos" unicode="&#x3cd;" horiz-adv-x="461" 
d="M412 227q0 -36 -0.5 -61t-7.5 -54q-16 -61 -64 -89t-112 -28q-59 0 -100 23.5t-61 64.5q-9 18 -13.5 41t-5.5 48v322h110v-255q0 -14 0.5 -28.5t2 -28t3 -24.5t3.5 -16q8 -20 24 -32.5t40 -12.5q29 0 48 18t21 50q2 17 2.5 44.5t0.5 52.5v232h109v-267zM174 571l81 184
l99 -37l-117 -175z" />
    <glyph glyph-name="exclam" unicode="!" horiz-adv-x="260" 
d="M175 187h-89l-11 509h110zM75 0v111h112v-111h-112z" />
    <glyph glyph-name="guilsinglleft" unicode="&#x2039;" horiz-adv-x="330" 
d="M170 37l-124 197l124 196h106l-122 -196l122 -197h-106z" />
    <glyph glyph-name="guilsinglright" unicode="&#x203a;" horiz-adv-x="325" 
d="M46 37l122 197l-122 196h106l124 -196l-124 -197h-106z" />
    <glyph glyph-name="exclamdown" unicode="&#xa1;" horiz-adv-x="260" 
d="M85 408h91l9 -509h-109zM187 595v-111h-112v111h112z" />
    <glyph glyph-name="quotesinglbase" unicode="&#x201a;" horiz-adv-x="245" 
d="M56 -134l32 131h-29v132h124v-128l-66 -135h-61z" />
    <glyph glyph-name="quotedblbase" unicode="&#x201e;" horiz-adv-x="438" 
d="M56 -134l32 131h-29v132h124v-128l-66 -135h-61zM251 -134l32 131h-29v132h124v-128l-66 -135h-61z" />
    <glyph glyph-name="questiondown" unicode="&#xbf;" horiz-adv-x="445" 
d="M55 -24q0 46 12 75t33 58q12 18 26 35.5t26.5 36t21 38.5t8.5 43v45h112v-47q0 -41 -13.5 -74.5t-35.5 -64.5q-29 -40 -49 -71t-21 -62q0 -17 3.5 -33t12 -28.5t23 -20t36.5 -7.5q35 0 56.5 26.5t23.5 70.5q9 -1 24 -3t31.5 -4.5t31.5 -4t24 -2.5q-5 -47 -22 -82.5
t-43 -59.5t-60 -36t-73 -12q-93 0 -140.5 50t-47.5 134zM295 493v-111h-112v111h112z" />
    <glyph glyph-name="daggerdbl" unicode="&#x2021;" horiz-adv-x="432" 
d="M165 377h-148v94h148v220h103v-220h148v-94h-148v-164h148v-94h-148v-297h-103v297h-148v94h148v164z" />
    <glyph glyph-name="OE" unicode="&#x152;" horiz-adv-x="729" 
d="M314 0q-26 -6 -56 -6q-57 0 -98 18.5t-66.5 50t-37.5 72.5t-12 87v265q0 37 11.5 75t37 69t66 50.5t99.5 19.5q14 0 27 -1.5t25 -3.5h384v-106h-273v-186h234v-104h-234v-191h273v-109h-380zM258 103q25 0 49 13v463q-10 5 -22 8.5t-27 3.5q-28 0 -47 -10t-31 -25
t-17 -32.5t-5 -32.5v-271q0 -50 22.5 -83.5t77.5 -33.5z" />
    <glyph glyph-name="brokenbar" unicode="&#xa6;" horiz-adv-x="233" 
d="M71 301v420h91v-420h-91zM162 240v-421h-91v421h91z" />
    <glyph glyph-name="emdash" unicode="&#x2014;" horiz-adv-x="1000" 
d="M20 225v96h959v-96h-959z" />
    <glyph glyph-name="Thorn" unicode="&#xde;" horiz-adv-x="502" 
d="M485 355q0 -45 -13 -84t-38.5 -68t-64.5 -45.5t-91 -16.5h-102l1 -141h-114v711h114l-1 -141h96q49 0 88 -13t67 -39.5t43 -67t15 -95.5zM372 357q0 52 -25 79.5t-76 27.5h-95v-216h96q51 0 75.5 29.5t24.5 79.5z" />
    <glyph glyph-name="thorn" unicode="&#xfe;" horiz-adv-x="450" 
d="M159 453q19 25 45.5 36t54.5 11q52 0 82 -22.5t46 -59t20.5 -82t4.5 -90.5t-5.5 -90t-22 -81t-47.5 -58t-82 -22q-25 0 -51.5 11t-44.5 34q-1 0 -1.5 -0.5t-1.5 -0.5v-239h-110v906h110v-252q1 0 1.5 -0.5t1.5 -0.5zM227 100q24 0 38.5 12.5t22 33.5t10 47t2.5 53
q0 31 -2.5 58.5t-10 48t-21.5 32t-38 11.5q-26 0 -40.5 -13t-21.5 -35t-8.5 -49.5t-1.5 -56.5q0 -24 2 -49t9 -45.5t21 -34t39 -13.5z" />
    <glyph glyph-name="Circumflex" unicode="&#xf6c0;" horiz-adv-x="511" 
d="M255 808l-132 -80l-41 44l141 127h69l137 -126l-42 -45z" />
    <glyph glyph-name="commaaccent" unicode="&#xf6c3;" horiz-adv-x="511" 
d="M192 -275l32 99h-29v117h116v-114l-62 -102h-57z" />
    <glyph glyph-name="Acute" unicode="&#xf6c9;" horiz-adv-x="474" 
d="M173 780l159 124l69 -80l-185 -98z" />
    <glyph glyph-name="Caron" unicode="&#xf6ca;" horiz-adv-x="511" 
d="M386 901l42 -44l-137 -126h-70l-140 127l41 43l132 -80z" />
    <glyph glyph-name="DieresisAcute" unicode="&#xf6cc;" horiz-adv-x="446" 
d="M322 762v106h105v-106h-105zM21 762v106h106v-106h-106zM138 768l102 176l93 -46l-136 -163z" />
    <glyph glyph-name="DieresisGrave" unicode="&#xf6cd;" horiz-adv-x="446" 
d="M320 764v105h106v-105h-106zM20 764v105h106v-105h-106zM252 733l-132 162l94 45l98 -176z" />
    <glyph glyph-name="Grave" unicode="&#xf6ce;" horiz-adv-x="561" 
d="M292 732l-188 100l72 81l160 -126z" />
    <glyph glyph-name="Hungarumlaut" unicode="&#xf6cf;" horiz-adv-x="566" 
d="M104 774l152 132l73 -72l-179 -111zM292 775l154 130l71 -72l-179 -109z" />
    <glyph glyph-name="Macron" unicode="&#xf6d0;" horiz-adv-x="507" 
d="M121 757v95h270v-95h-270z" />
    <glyph glyph-name="cyrBreve" unicode="&#xf6d1;" horiz-adv-x="526" 
d="M263 739q-42 0 -70.5 14.5t-46 36.5t-25.5 47.5t-9 47.5h86q1 -10 5.5 -22t13 -22t20 -16.5t26.5 -6.5q16 0 28 6.5t20 16.5t12 22t4 22h85q-2 -22 -10.5 -47.5t-25.5 -47.5t-45 -36.5t-68 -14.5z" />
    <glyph glyph-name="cyrbreve" unicode="&#xf6d4;" horiz-adv-x="463" 
d="M241 557q-42 0 -70.5 14.5t-46 36.5t-25.5 48t-9 48h86q1 -11 5.5 -22.5t13 -22t20 -17t26.5 -6.5q16 0 28 6.5t20 17t12 22t4 22.5h85q-2 -22 -10.5 -48t-25.5 -48t-45 -36.5t-68 -14.5z" />
    <glyph glyph-name="dotaccent" unicode="&#x2d9;" horiz-adv-x="399" 
d="M159 575v108h106v-108h-106z" />
    <glyph glyph-name="ring" unicode="&#x2da;" horiz-adv-x="444" 
d="M280 633q0 17 -11.5 28t-28.5 11t-29 -11t-12 -28q0 -16 12 -27t29 -11t28.5 11t11.5 27zM139 633q0 20 8 38t21.5 31.5t32 21t39.5 7.5q42 0 70.5 -28.5t28.5 -69.5q0 -20 -7.5 -37.5t-21 -30.5t-31.5 -20.5t-39 -7.5t-39.5 7.5t-32 20.5t-21.5 30.5t-8 37.5z" />
    <glyph glyph-name="ogonek" unicode="&#x2db;" horiz-adv-x="313" 
d="M102 -100q0 21 9.5 47t32.5 58h70q0 -1 1 -1q-37 -54 -37 -83q0 -23 9.5 -34.5t32.5 -11.5q11 0 25 3.5t33 11.5l22 -57q-22 -12 -47.5 -19.5t-50.5 -7.5q-44 0 -72 27t-28 67z" />
    <glyph glyph-name="hungarumlaut" unicode="&#x2dd;" horiz-adv-x="459" 
d="M113 578l82 184l98 -36l-117 -176zM257 571l82 184l98 -37l-117 -175z" />
    <glyph glyph-name="macron" unicode="&#xaf;" horiz-adv-x="438" 
d="M94 580v95h271v-95h-271z" />
    <glyph glyph-name="Scaron" unicode="&#x160;" horiz-adv-x="504" 
d="M474 198q0 -95 -58 -149.5t-164 -54.5q-84 0 -139 33.5t-86 86.5l94 68q23 -36 55 -57.5t78 -21.5q55 0 77.5 26.5t22.5 65.5q0 24 -9 41t-25 29.5t-39 21.5t-50 17q-50 16 -85 34t-57.5 41.5t-32.5 54t-10 69.5q0 43 15 79.5t43 63t66.5 41t86.5 14.5q78 0 126.5 -26
t77.5 -71l-87 -73q-23 32 -52 47t-67 15q-45 0 -69 -24.5t-24 -61.5q0 -21 11 -36.5t30 -27.5t45 -21.5t55 -18.5q49 -15 81.5 -34.5t52.5 -44.5t28.5 -56t8.5 -70zM379 901l42 -44l-137 -126h-70l-140 127l41 43l132 -80z" />
    <glyph glyph-name="Zcaron" unicode="&#x17d;" horiz-adv-x="434" 
d="M26 0v102l253 490h-242v104h372v-97l-253 -491h253v-108h-383zM359 901l42 -44l-137 -126h-70l-140 127l41 43l132 -80z" />
    <glyph glyph-name="scaron" unicode="&#x161;" horiz-adv-x="424" 
d="M395 147q0 -69 -49 -111t-135 -42q-66 0 -111 23.5t-74 73.5l82 60q34 -59 102 -59q34 0 53.5 15t19.5 41q0 27 -18.5 38t-51.5 19q-35 8 -66.5 18.5t-55.5 27t-38.5 41.5t-14.5 61q0 34 13.5 61.5t36.5 46.5t55 29t69 10q67 0 107.5 -22.5t65.5 -61.5l-74 -64
q-33 51 -96 51q-37 0 -51.5 -15.5t-14.5 -33.5q0 -12 7.5 -20.5t20.5 -14.5t29 -10.5t33 -8.5q34 -8 63 -18.5t49.5 -28t32 -43.5t11.5 -63zM337 727l46 -41l-136 -151h-71l-141 152l46 40q4 -3 23 -17.5t40.5 -31.5t40.5 -32t24 -18z" />
    <glyph glyph-name="zcaron" unicode="&#x17e;" horiz-adv-x="389" 
d="M28 0v96l203 302h-189v97h318v-92l-203 -301h203v-102h-332zM326 727l46 -41l-136 -151h-71l-141 152l46 40q4 -3 23 -17.5t40.5 -31.5t40.5 -32t24 -18z" />
    <glyph glyph-name="Ydieresis" unicode="&#x178;" horiz-adv-x="476" 
d="M241 404q11 34 23 67t24 67l61 158h121l-176 -412v-284h-112v284l-176 413h124q15 -41 30.5 -81t29.5 -80q11 -32 22.5 -66t22.5 -66h6zM95 742v108h108v-108h-108zM277 742v108h106v-108h-106z" />
    <glyph glyph-name="Agrave" unicode="&#xc0;" horiz-adv-x="526" 
d="M359 150h-193q-2 -9 -8 -30t-12.5 -45t-12 -45t-8.5 -30h-119l201 696h110l202 -696h-121zM227 392l-36 -140h142l-35 139q-2 9 -6.5 30t-10 44t-10.5 43.5t-6 29.5h-5zM274 732l-188 100l72 81l160 -126z" />
    <glyph glyph-name="Aacute" unicode="&#xc1;" horiz-adv-x="526" 
d="M359 150h-193q-2 -9 -8 -30t-12.5 -45t-12 -45t-8.5 -30h-119l201 696h110l202 -696h-121zM227 392l-36 -140h142l-35 139q-2 9 -6.5 30t-10 44t-10.5 43.5t-6 29.5h-5zM213 780l159 124l69 -80l-185 -98z" />
    <glyph glyph-name="Acircumflex" unicode="&#xc2;" horiz-adv-x="526" 
d="M359 150h-193q-2 -9 -8 -30t-12.5 -45t-12 -45t-8.5 -30h-119l201 696h110l202 -696h-121zM262 808l-132 -80l-41 44l141 127h69l137 -126l-42 -45zM227 392l-36 -140h142l-35 139q-2 9 -6.5 30t-10 44t-10.5 43.5t-6 29.5h-5z" />
    <glyph glyph-name="Atilde" unicode="&#xc3;" horiz-adv-x="526" 
d="M359 150h-193q-2 -9 -8 -30t-12.5 -45t-12 -45t-8.5 -30h-119l201 696h110l202 -696h-121zM193 864q17 0 33 -6.5t31.5 -14.5t29.5 -14.5t26 -6.5q15 0 28.5 10t30.5 33l56 -33q-23 -49 -49.5 -71t-56.5 -22q-18 0 -34.5 6.5t-32 14t-30 14t-27.5 6.5q-15 0 -29.5 -9
t-32.5 -32q-14 8 -27 16t-27 16q20 45 49 69t62 24zM227 392l-36 -140h142l-35 139q-2 9 -6.5 30t-10 44t-10.5 43.5t-6 29.5h-5z" />
    <glyph glyph-name="Aring" unicode="&#xc5;" horiz-adv-x="526" 
d="M359 150h-193q-2 -9 -8 -30t-12.5 -45t-12 -45t-8.5 -30h-119l201 696h110l202 -696h-121zM162 801q0 20 8 38t21.5 31.5t32 21t39.5 7.5q42 0 70.5 -28.5t28.5 -69.5q0 -20 -7.5 -37.5t-21 -30.5t-31.5 -20.5t-39 -7.5t-39.5 7.5t-32 20.5t-21.5 30.5t-8 37.5zM227 392
l-36 -140h142l-35 139q-2 9 -6.5 30t-10 44t-10.5 43.5t-6 29.5h-5zM303 801q0 17 -11.5 28t-28.5 11t-29 -11t-12 -28q0 -16 12 -27t29 -11t28.5 11t11.5 27z" />
    <glyph glyph-name="Egrave" unicode="&#xc8;" horiz-adv-x="473" 
d="M63 0v696h387v-106h-273v-186h235v-104h-235v-191h273v-109h-387zM273 732l-188 100l72 81l160 -126z" />
    <glyph glyph-name="Ecircumflex" unicode="&#xca;" horiz-adv-x="473" 
d="M63 0v696h387v-106h-273v-186h235v-104h-235v-191h273v-109h-387zM255 808l-132 -80l-41 44l141 127h69l137 -126l-42 -45z" />
    <glyph glyph-name="Edieresis" unicode="&#xcb;" horiz-adv-x="473" 
d="M63 0v696h387v-106h-273v-186h235v-104h-235v-191h273v-109h-387zM289 745v108h107v-108h-107zM108 745v108h106v-108h-106z" />
    <glyph glyph-name="Igrave" unicode="&#xcc;" horiz-adv-x="243" 
d="M64 0v696h115v-696h-115zM134 732l-188 100l72 81l160 -126z" />
    <glyph glyph-name="Iacute" unicode="&#xcd;" horiz-adv-x="243" 
d="M64 0v696h115v-696h-115zM66 780l159 124l69 -80l-185 -98z" />
    <glyph glyph-name="Icircumflex" unicode="&#xce;" horiz-adv-x="243" 
d="M64 0v696h115v-696h-115zM121 808l-132 -80l-41 44l141 127h69l137 -126l-42 -45z" />
    <glyph glyph-name="Idieresis" unicode="&#xcf;" horiz-adv-x="243" 
d="M64 0v696h115v-696h-115zM157 745v108h107v-108h-107zM-24 745v108h106v-108h-106z" />
    <glyph glyph-name="Eth" unicode="&#xd0;" horiz-adv-x="537" 
d="M11 394h51v302h213q70 0 120 -26t73 -86q14 -37 16.5 -91.5t2.5 -123.5q0 -85 -1 -145.5t-17 -103.5q-13 -35 -34 -58t-48 -36.5t-59 -19.5t-66 -6h-200v318h-51v76zM372 437q0 71 -25 112t-89 41h-81v-196h107v-76h-107v-212h82q64 0 88.5 33.5t24.5 93.5v204z" />
    <glyph glyph-name="Ograve" unicode="&#xd2;" horiz-adv-x="516" 
d="M471 211q0 -50 -15.5 -90t-44 -68.5t-67.5 -43.5t-86 -15q-57 0 -98 18.5t-66.5 50t-37.5 73t-12 87.5v263q0 37 11.5 75t37 69t66 51t99.5 20q55 0 95 -19t66.5 -49.5t39 -69t12.5 -77.5v-275zM355 488q0 13 -4.5 30.5t-15.5 33.5t-29.5 27.5t-47.5 11.5t-48.5 -10.5
t-31 -26t-16.5 -33.5t-5 -34l1 -266q0 -50 23 -84t78 -34q39 0 67.5 26.5t28.5 72.5v286zM299 732l-188 100l72 81l160 -126z" />
    <glyph glyph-name="Oacute" unicode="&#xd3;" horiz-adv-x="516" 
d="M471 211q0 -50 -15.5 -90t-44 -68.5t-67.5 -43.5t-86 -15q-57 0 -98 18.5t-66.5 50t-37.5 73t-12 87.5v263q0 37 11.5 75t37 69t66 51t99.5 20q55 0 95 -19t66.5 -49.5t39 -69t12.5 -77.5v-275zM355 488q0 13 -4.5 30.5t-15.5 33.5t-29.5 27.5t-47.5 11.5t-48.5 -10.5
t-31 -26t-16.5 -33.5t-5 -34l1 -266q0 -50 23 -84t78 -34q39 0 67.5 26.5t28.5 72.5v286zM186 780l159 124l69 -80l-185 -98z" />
    <glyph glyph-name="Ocircumflex" unicode="&#xd4;" horiz-adv-x="516" 
d="M471 211q0 -50 -15.5 -90t-44 -68.5t-67.5 -43.5t-86 -15q-57 0 -98 18.5t-66.5 50t-37.5 73t-12 87.5v263q0 37 11.5 75t37 69t66 51t99.5 20q55 0 95 -19t66.5 -49.5t39 -69t12.5 -77.5v-275zM355 488q0 13 -4.5 30.5t-15.5 33.5t-29.5 27.5t-47.5 11.5t-48.5 -10.5
t-31 -26t-16.5 -33.5t-5 -34l1 -266q0 -50 23 -84t78 -34q39 0 67.5 26.5t28.5 72.5v286zM255 808l-132 -80l-41 44l141 127h69l137 -126l-42 -45z" />
    <glyph glyph-name="Otilde" unicode="&#xd5;" horiz-adv-x="516" 
d="M471 211q0 -50 -15.5 -90t-44 -68.5t-67.5 -43.5t-86 -15q-57 0 -98 18.5t-66.5 50t-37.5 73t-12 87.5v263q0 37 11.5 75t37 69t66 51t99.5 20q55 0 95 -19t66.5 -49.5t39 -69t12.5 -77.5v-275zM355 488q0 13 -4.5 30.5t-15.5 33.5t-29.5 27.5t-47.5 11.5t-48.5 -10.5
t-31 -26t-16.5 -33.5t-5 -34l1 -266q0 -50 23 -84t78 -34q39 0 67.5 26.5t28.5 72.5v286zM194 864q17 0 33 -6.5t31.5 -14.5t29.5 -14.5t26 -6.5q15 0 28.5 10t30.5 33l56 -33q-23 -49 -49.5 -71t-56.5 -22q-18 0 -34.5 6.5t-32 14t-30 14t-27.5 6.5q-15 0 -29.5 -9
t-32.5 -32q-14 8 -27 16t-27 16q20 45 49 69t62 24z" />
    <glyph glyph-name="Ugrave" unicode="&#xd9;" horiz-adv-x="535" 
d="M482 696v-485q0 -50 -15.5 -90.5t-44 -68.5t-67.5 -43t-86 -15q-54 0 -94.5 17.5t-67 47.5t-40 70.5t-13.5 86.5v480h114v-483q0 -45 25.5 -77t75.5 -32q42 0 69.5 27.5t27.5 74.5v490h116zM304 732l-188 100l72 81l160 -126z" />
    <glyph glyph-name="Uacute" unicode="&#xda;" horiz-adv-x="535" 
d="M482 696v-485q0 -50 -15.5 -90.5t-44 -68.5t-67.5 -43t-86 -15q-54 0 -94.5 17.5t-67 47.5t-40 70.5t-13.5 86.5v480h114v-483q0 -45 25.5 -77t75.5 -32q42 0 69.5 27.5t27.5 74.5v490h116zM183 780l159 124l69 -80l-185 -98z" />
    <glyph glyph-name="Ucircumflex" unicode="&#xdb;" horiz-adv-x="535" 
d="M482 696v-485q0 -50 -15.5 -90.5t-44 -68.5t-67.5 -43t-86 -15q-54 0 -94.5 17.5t-67 47.5t-40 70.5t-13.5 86.5v480h114v-483q0 -45 25.5 -77t75.5 -32q42 0 69.5 27.5t27.5 74.5v490h116zM261 808l-132 -80l-41 44l141 127h69l137 -126l-42 -45z" />
    <glyph glyph-name="Yacute" unicode="&#xdd;" horiz-adv-x="476" 
d="M241 404q11 34 23 67t24 67l61 158h121l-176 -412v-284h-112v284l-176 413h124q15 -41 30.5 -81t29.5 -80q11 -32 22.5 -66t22.5 -66h6zM161 780l159 124l69 -80l-185 -98z" />
    <glyph glyph-name="aacute" unicode="&#xe1;" horiz-adv-x="444" 
d="M290 0v38l-4 2q-18 -24 -48 -34.5t-61 -10.5q-73 0 -108 41t-35 108q0 32 10 59.5t31 48t53 32.5t76 12h86v45q0 25 -17 42.5t-56 17.5q-27 0 -50 -9.5t-36 -34.5q-4 2 -16 9.5t-25.5 15.5t-25 15.5t-15.5 10.5q23 48 68 70t102 22q39 0 72 -7.5t57.5 -25.5t38.5 -47.5
t14 -73.5v-346h-111zM290 212h-79q-33 0 -51.5 -15.5t-18.5 -45.5q0 -23 16.5 -40t54.5 -17q32 0 55 16.5t23 53.5v48zM190 571l82 184l98 -37l-116 -175z" />
    <glyph glyph-name="atilde" unicode="&#xe3;" horiz-adv-x="444" 
d="M290 0v38l-4 2q-18 -24 -48 -34.5t-61 -10.5q-73 0 -108 41t-35 108q0 32 10 59.5t31 48t53 32.5t76 12h86v45q0 25 -17 42.5t-56 17.5q-27 0 -50 -9.5t-36 -34.5q-4 2 -16 9.5t-25.5 15.5t-25 15.5t-15.5 10.5q23 48 68 70t102 22q39 0 72 -7.5t57.5 -25.5t38.5 -47.5
t14 -73.5v-346h-111zM168 694q17 0 33 -6.5t31.5 -14.5t29.5 -14.5t26 -6.5q15 0 28.5 10t30.5 33l56 -33q-23 -49 -49.5 -71t-56.5 -22q-18 0 -34.5 6.5t-32 14t-30 14t-27.5 6.5q-15 0 -29.5 -9t-32.5 -32q-14 8 -27 16t-27 16q20 45 49 69t62 24zM290 212h-79
q-33 0 -51.5 -15.5t-18.5 -45.5q0 -23 16.5 -40t54.5 -17q32 0 55 16.5t23 53.5v48z" />
    <glyph glyph-name="aring" unicode="&#xe5;" horiz-adv-x="444" 
d="M290 0v38l-4 2q-18 -24 -48 -34.5t-61 -10.5q-73 0 -108 41t-35 108q0 32 10 59.5t31 48t53 32.5t76 12h86v45q0 25 -17 42.5t-56 17.5q-27 0 -50 -9.5t-36 -34.5q-4 2 -16 9.5t-25.5 15.5t-25 15.5t-15.5 10.5q23 48 68 70t102 22q39 0 72 -7.5t57.5 -25.5t38.5 -47.5
t14 -73.5v-346h-111zM290 212h-79q-33 0 -51.5 -15.5t-18.5 -45.5q0 -23 16.5 -40t54.5 -17q32 0 55 16.5t23 53.5v48zM270 633q0 17 -11.5 28t-28.5 11t-29 -11t-12 -28q0 -16 12 -27t29 -11t28.5 11t11.5 27zM129 633q0 20 8 38t21.5 31.5t32 21t39.5 7.5q42 0 70.5 -28.5
t28.5 -69.5q0 -20 -7.5 -37.5t-21 -30.5t-31.5 -20.5t-39 -7.5t-39.5 7.5t-32 20.5t-21.5 30.5t-8 37.5z" />
    <glyph glyph-name="igrave" unicode="&#xec;" horiz-adv-x="225" 
d="M57 0v495h111v-495h-111zM87 543l-120 174l99 38l84 -181z" />
    <glyph glyph-name="iacute" unicode="&#xed;" horiz-adv-x="225" 
d="M57 0v495h111v-495h-111zM63 571l82 184l98 -37l-116 -175z" />
    <glyph glyph-name="ntilde" unicode="&#xf1;" horiz-adv-x="459" 
d="M300 0v318q0 37 -20 56.5t-50 19.5q-32 0 -52 -20.5t-20 -57.5v-316h-110v495h111v-48h3q20 24 48 38.5t59 14.5q67 0 104 -40.5t37 -110.5v-349h-110zM151 694q17 0 33 -6.5t31.5 -14.5t29.5 -14.5t26 -6.5q15 0 28.5 10t30.5 33l56 -33q-23 -49 -49.5 -71t-56.5 -22
q-18 0 -34.5 6.5t-32 14t-30 14t-27.5 6.5q-15 0 -29.5 -9t-32.5 -32q-14 8 -27 16t-27 16q20 45 49 69t62 24z" />
    <glyph glyph-name="ograve" unicode="&#xf2;" horiz-adv-x="449" 
d="M228 502q64 0 101 -25.5t56 -63.5q14 -28 19 -73.5t5 -93.5q0 -40 -5 -84t-16 -71q-11 -28 -28.5 -46.5t-40 -30t-48.5 -16.5t-53 -5q-54 0 -90.5 20t-56.5 53q-18 29 -25.5 75t-7.5 104q0 45 4.5 87.5t15.5 68.5q20 47 62 74t108 27zM226 400q-22 0 -40 -11t-26 -34
q-7 -18 -9.5 -47.5t-2.5 -67.5q0 -29 1.5 -55t8.5 -45q17 -45 65 -45q23 0 42 11.5t27 45.5q4 14 5.5 41t1.5 61q0 30 -2 55.5t-8 42.5q-17 48 -63 48zM210 543l-120 174l99 38l84 -181z" />
    <glyph glyph-name="oacute" unicode="&#xf3;" horiz-adv-x="449" 
d="M228 502q64 0 101 -25.5t56 -63.5q14 -28 19 -73.5t5 -93.5q0 -40 -5 -84t-16 -71q-11 -28 -28.5 -46.5t-40 -30t-48.5 -16.5t-53 -5q-54 0 -90.5 20t-56.5 53q-18 29 -25.5 75t-7.5 104q0 45 4.5 87.5t15.5 68.5q20 47 62 74t108 27zM226 400q-22 0 -40 -11t-26 -34
q-7 -18 -9.5 -47.5t-2.5 -67.5q0 -29 1.5 -55t8.5 -45q17 -45 65 -45q23 0 42 11.5t27 45.5q4 14 5.5 41t1.5 61q0 30 -2 55.5t-8 42.5q-17 48 -63 48zM167 571l82 184l98 -37l-116 -175z" />
    <glyph glyph-name="uacute" unicode="&#xfa;" horiz-adv-x="462" 
d="M301 0v46q-1 0 -2 0.5t-2 0.5q-19 -25 -47.5 -38.5t-58.5 -13.5q-68 0 -105 40t-37 110v349h110v-318q0 -37 20.5 -57t49.5 -20q39 0 55.5 28.5t16.5 76.5v290h110v-494h-110zM172 571l82 184l98 -37l-116 -175z" />
    <glyph glyph-name="yacute" unicode="&#xfd;" horiz-adv-x="413" 
d="M230 -93q-17 -56 -53.5 -82t-87.5 -26h-37v95h26q44 0 60 61l18 64l-155 476h118l48 -179l39 -152h4l38 152l48 179h116zM162 571l82 184l98 -37l-116 -175z" />
    <glyph glyph-name="ydieresis" unicode="&#xff;" horiz-adv-x="413" 
d="M230 -93q-17 -56 -53.5 -82t-87.5 -26h-37v95h26q44 0 60 61l18 64l-155 476h118l48 -179l39 -152h4l38 152l48 179h116zM243 575v108h107v-108h-107zM62 575v108h106v-108h-106z" />
    <glyph glyph-name="Amacron" unicode="&#x100;" horiz-adv-x="526" 
d="M359 150h-193q-2 -9 -8 -30t-12.5 -45t-12 -45t-8.5 -30h-119l201 696h110l202 -696h-121zM127 757v95h270v-95h-270zM227 392l-36 -140h142l-35 139q-2 9 -6.5 30t-10 44t-10.5 43.5t-6 29.5h-5z" />
    <glyph glyph-name="amacron" unicode="&#x101;" horiz-adv-x="444" 
d="M290 0v38l-4 2q-18 -24 -48 -34.5t-61 -10.5q-73 0 -108 41t-35 108q0 32 10 59.5t31 48t53 32.5t76 12h86v45q0 25 -17 42.5t-56 17.5q-27 0 -50 -9.5t-36 -34.5q-4 2 -16 9.5t-25.5 15.5t-25 15.5t-15.5 10.5q23 48 68 70t102 22q39 0 72 -7.5t57.5 -25.5t38.5 -47.5
t14 -73.5v-346h-111zM290 212h-79q-33 0 -51.5 -15.5t-18.5 -45.5q0 -23 16.5 -40t54.5 -17q32 0 55 16.5t23 53.5v48zM94 580v95h271v-95h-271z" />
    <glyph glyph-name="Abreve" unicode="&#x102;" horiz-adv-x="526" 
d="M359 150h-193q-2 -9 -8 -30t-12.5 -45t-12 -45t-8.5 -30h-119l201 696h110l202 -696h-121zM264 739q-42 0 -70.5 14.5t-46 36.5t-25.5 47.5t-9 47.5h86q1 -10 5.5 -22t13 -22t20 -16.5t26.5 -6.5q16 0 28 6.5t20 16.5t12 22t4 22h85q-2 -22 -10.5 -47.5t-25.5 -47.5
t-45 -36.5t-68 -14.5zM227 392l-36 -140h142l-35 139q-2 9 -6.5 30t-10 44t-10.5 43.5t-6 29.5h-5z" />
    <glyph glyph-name="abreve" unicode="&#x103;" horiz-adv-x="444" 
d="M290 0v38l-4 2q-18 -24 -48 -34.5t-61 -10.5q-73 0 -108 41t-35 108q0 32 10 59.5t31 48t53 32.5t76 12h86v45q0 25 -17 42.5t-56 17.5q-27 0 -50 -9.5t-36 -34.5q-4 2 -16 9.5t-25.5 15.5t-25 15.5t-15.5 10.5q23 48 68 70t102 22q39 0 72 -7.5t57.5 -25.5t38.5 -47.5
t14 -73.5v-346h-111zM290 212h-79q-33 0 -51.5 -15.5t-18.5 -45.5q0 -23 16.5 -40t54.5 -17q32 0 55 16.5t23 53.5v48zM227 557q-42 0 -70.5 15t-46 37t-25.5 48t-9 48h86q1 -11 5.5 -22.5t13 -21.5t20 -16.5t26.5 -6.5q16 0 28 6.5t20 16.5t12 21.5t4 22.5h85
q-2 -22 -10.5 -48t-25.5 -48t-45 -37t-68 -15z" />
    <glyph glyph-name="Aogonek" unicode="&#x104;" horiz-adv-x="526" 
d="M359 150h-193q-2 -9 -8 -30t-12.5 -45t-12 -45t-8.5 -30h-119l201 696h110l202 -696h-49q-34 -51 -34 -79q0 -23 9.5 -34.5t32.5 -11.5q11 0 25 3.5t33 11.5l22 -57q-22 -12 -47.5 -19.5t-50.5 -7.5q-44 0 -72 27t-28 67q0 20 9 45t29 55zM227 392l-36 -140h142l-35 139
q-2 9 -6.5 30t-10 44t-10.5 43.5t-6 29.5h-5z" />
    <glyph glyph-name="aogonek" unicode="&#x105;" horiz-adv-x="444" 
d="M250 -100q0 21 9 46t31 56v36l-4 2q-18 -24 -48 -34.5t-61 -10.5q-73 0 -108 41t-35 108q0 32 10 59.5t31 48t53 32.5t76 12h86v45q0 25 -17 42.5t-56 17.5q-27 0 -50 -9.5t-36 -34.5q-4 2 -16 9.5t-25.5 15.5t-25 15.5t-15.5 10.5q23 48 68 70t102 22q39 0 72 -7.5
t57.5 -25.5t38.5 -47.5t14 -73.5v-346h-41q-34 -51 -34 -79q0 -23 9.5 -34.5t32.5 -11.5q11 0 25 3.5t33 11.5l22 -57q-22 -12 -47.5 -19.5t-50.5 -7.5q-44 0 -72 27t-28 67zM290 212h-79q-33 0 -51.5 -15.5t-18.5 -45.5q0 -23 16.5 -40t54.5 -17q32 0 55 16.5t23 53.5v48z
" />
    <glyph glyph-name="Cacute" unicode="&#x106;" horiz-adv-x="492" 
d="M466 148q-17 -73 -72 -113.5t-133 -40.5q-54 0 -94 17t-67 47t-40 70.5t-13 87.5v270q0 41 13 80t39.5 69t66.5 48t95 18q84 0 136.5 -44t69.5 -110l-109 -36q-3 15 -10 29t-19 25.5t-29 18.5t-39 7q-26 0 -44.5 -9t-30.5 -23.5t-18 -32.5t-6 -36v-277q0 -22 6 -42
t18.5 -35t31 -23.5t43.5 -8.5q37 0 63 21t33 58zM175 780l159 124l69 -80l-185 -98z" />
    <glyph glyph-name="cacute" unicode="&#x107;" horiz-adv-x="404" 
d="M220 501q58 0 101 -27t63 -76q-4 -3 -17.5 -10t-29 -14.5t-29 -14.5t-17.5 -10q-22 49 -67 49q-26 0 -42.5 -11t-25.5 -30.5t-12 -47t-3 -59.5q0 -33 3.5 -61.5t12.5 -48.5t25 -31.5t41 -11.5q24 0 40.5 13t27.5 34q4 -3 17.5 -9.5t29 -14.5t29 -14.5t18.5 -9.5
q-20 -48 -63 -74.5t-101 -26.5q-56 0 -93 19t-58.5 52.5t-30.5 80.5t-9 104q0 55 10.5 101t33 79t58.5 51.5t88 18.5zM160 571l82 184l98 -37l-116 -175z" />
    <glyph glyph-name="Ccircumflex" unicode="&#x108;" horiz-adv-x="492" 
d="M466 148q-17 -73 -72 -113.5t-133 -40.5q-54 0 -94 17t-67 47t-40 70.5t-13 87.5v270q0 41 13 80t39.5 69t66.5 48t95 18q84 0 136.5 -44t69.5 -110l-109 -36q-3 15 -10 29t-19 25.5t-29 18.5t-39 7q-26 0 -44.5 -9t-30.5 -23.5t-18 -32.5t-6 -36v-277q0 -22 6 -42
t18.5 -35t31 -23.5t43.5 -8.5q37 0 63 21t33 58zM258 808l-132 -80l-41 44l141 127h69l137 -126l-42 -45z" />
    <glyph glyph-name="ccircumflex" unicode="&#x109;" horiz-adv-x="404" 
d="M220 501q58 0 101 -27t63 -76q-4 -3 -17.5 -10t-29 -14.5t-29 -14.5t-17.5 -10q-22 49 -67 49q-26 0 -42.5 -11t-25.5 -30.5t-12 -47t-3 -59.5q0 -33 3.5 -61.5t12.5 -48.5t25 -31.5t41 -11.5q24 0 40.5 13t27.5 34q4 -3 17.5 -9.5t29 -14.5t29 -14.5t18.5 -9.5
q-20 -48 -63 -74.5t-101 -26.5q-56 0 -93 19t-58.5 52.5t-30.5 80.5t-9 104q0 55 10.5 101t33 79t58.5 51.5t88 18.5zM221 635q-5 -3 -23.5 -18t-40.5 -32.5t-41 -32t-23 -17.5l-45 40l141 152h71l135 -150l-46 -42z" />
    <glyph glyph-name="Cdotaccent" unicode="&#x10a;" horiz-adv-x="492" 
d="M466 148q-17 -73 -72 -113.5t-133 -40.5q-54 0 -94 17t-67 47t-40 70.5t-13 87.5v270q0 41 13 80t39.5 69t66.5 48t95 18q84 0 136.5 -44t69.5 -110l-109 -36q-3 15 -10 29t-19 25.5t-29 18.5t-39 7q-26 0 -44.5 -9t-30.5 -23.5t-18 -32.5t-6 -36v-277q0 -22 6 -42
t18.5 -35t31 -23.5t43.5 -8.5q37 0 63 21t33 58zM205 752v108h106v-108h-106z" />
    <glyph glyph-name="cdotaccent" unicode="&#x10b;" horiz-adv-x="404" 
d="M220 501q58 0 101 -27t63 -76q-4 -3 -17.5 -10t-29 -14.5t-29 -14.5t-17.5 -10q-22 49 -67 49q-26 0 -42.5 -11t-25.5 -30.5t-12 -47t-3 -59.5q0 -33 3.5 -61.5t12.5 -48.5t25 -31.5t41 -11.5q24 0 40.5 13t27.5 34q4 -3 17.5 -9.5t29 -14.5t29 -14.5t18.5 -9.5
q-20 -48 -63 -74.5t-101 -26.5q-56 0 -93 19t-58.5 52.5t-30.5 80.5t-9 104q0 55 10.5 101t33 79t58.5 51.5t88 18.5zM161 576v108h106v-108h-106z" />
    <glyph glyph-name="Ccaron" unicode="&#x10c;" horiz-adv-x="492" 
d="M466 148q-17 -73 -72 -113.5t-133 -40.5q-54 0 -94 17t-67 47t-40 70.5t-13 87.5v270q0 41 13 80t39.5 69t66.5 48t95 18q84 0 136.5 -44t69.5 -110l-109 -36q-3 15 -10 29t-19 25.5t-29 18.5t-39 7q-26 0 -44.5 -9t-30.5 -23.5t-18 -32.5t-6 -36v-277q0 -22 6 -42
t18.5 -35t31 -23.5t43.5 -8.5q37 0 63 21t33 58zM393 901l42 -44l-137 -126h-70l-140 127l41 43l132 -80z" />
    <glyph glyph-name="ccaron" unicode="&#x10d;" horiz-adv-x="404" 
d="M220 501q58 0 101 -27t63 -76q-4 -3 -17.5 -10t-29 -14.5t-29 -14.5t-17.5 -10q-22 49 -67 49q-26 0 -42.5 -11t-25.5 -30.5t-12 -47t-3 -59.5q0 -33 3.5 -61.5t12.5 -48.5t25 -31.5t41 -11.5q24 0 40.5 13t27.5 34q4 -3 17.5 -9.5t29 -14.5t29 -14.5t18.5 -9.5
q-20 -48 -63 -74.5t-101 -26.5q-56 0 -93 19t-58.5 52.5t-30.5 80.5t-9 104q0 55 10.5 101t33 79t58.5 51.5t88 18.5zM345 728l46 -41l-136 -151h-71l-141 152l46 40q4 -3 23 -17.5t40.5 -31.5t40.5 -32t24 -18z" />
    <glyph glyph-name="Dcaron" unicode="&#x10e;" horiz-adv-x="537" 
d="M372 437q0 71 -25 112t-89 41h-81v-484h82q64 0 88.5 33.5t24.5 93.5v204zM275 696q70 0 120 -26t73 -86q14 -37 16.5 -91.5t2.5 -123.5q0 -85 -1 -145.5t-17 -103.5q-13 -35 -34 -58t-48 -36.5t-59 -19.5t-66 -6h-200v696h213zM373 901l42 -44l-137 -126h-70l-140 127
l41 43l132 -80z" />
    <glyph glyph-name="dcaron" unicode="&#x10f;" horiz-adv-x="566" 
d="M448 507l32 99h-29v117h116v-114l-62 -102h-57zM291 42q-20 -25 -46 -36t-55 -11q-52 0 -82.5 21.5t-46 57t-19.5 81t-4 93.5q0 46 5.5 91t22 81t47.5 58t82 22q25 0 51 -11t44 -33h3v270h111v-726h-111v40zM223 395q-24 0 -38.5 -12t-22 -32.5t-9.5 -46.5t-2 -53
q0 -32 2.5 -59.5t10 -48.5t21.5 -33t38 -12q26 0 40.5 14t21 36.5t8 49.5t1.5 54q0 25 -2 51t-9.5 46t-21.5 33t-38 13z" />
    <glyph glyph-name="Dcroat" unicode="&#x110;" horiz-adv-x="537" 
d="M14 395h48v301h213q70 0 120 -26t73 -86q14 -37 16.5 -91.5t2.5 -123.5q0 -85 -1 -145.5t-17 -103.5q-13 -35 -34 -58t-48 -36.5t-59 -19.5t-66 -6h-200v319h-48v76zM372 437q0 71 -25 112t-89 41h-81v-195h85v-76h-85v-213h82q64 0 88.5 33.5t24.5 93.5v204z" />
    <glyph glyph-name="dcroat" unicode="&#x111;" horiz-adv-x="456" 
d="M177 631h116v95h111v-95h45v-69h-45v-562h-111v40l-2 2q-20 -25 -46 -36t-55 -11q-52 0 -82.5 21.5t-46 57t-19.5 81t-4 93.5q0 46 5.5 91t22 81t47.5 58t82 22q25 0 51 -11t44 -33h3v106h-116v69zM223 395q-24 0 -38.5 -12t-22 -32.5t-9.5 -46.5t-2 -53q0 -32 2.5 -59.5
t10 -48.5t21.5 -33t38 -12q26 0 40.5 14t21 36.5t8 49.5t1.5 54q0 25 -2 51t-9.5 46t-21.5 33t-38 13z" />
    <glyph glyph-name="Emacron" unicode="&#x112;" horiz-adv-x="473" 
d="M63 0v696h387v-106h-273v-186h235v-104h-235v-191h273v-109h-387zM118 757v95h270v-95h-270z" />
    <glyph glyph-name="emacron" unicode="&#x113;" horiz-adv-x="444" 
d="M305 145q23 -12 45.5 -24t45.5 -25q-23 -50 -68 -75.5t-100 -25.5q-105 0 -148.5 62t-43.5 190q0 53 8.5 99t30 80.5t57.5 54.5t91 20q51 0 86 -17t57 -47t31.5 -71t9.5 -90v-58h-259q0 -24 3 -46.5t12 -39.5t24 -27t39 -10t44 13.5t35 36.5zM294 295q0 47 -16.5 75.5
t-56.5 28.5t-55 -30t-17 -74h145zM94 580v95h271v-95h-271z" />
    <glyph glyph-name="Ebreve" unicode="&#x114;" horiz-adv-x="473" 
d="M63 0v696h387v-106h-273v-186h235v-104h-235v-191h273v-109h-387zM257 738q-42 0 -70.5 14.5t-46 36.5t-25.5 47.5t-9 47.5h86q1 -10 5.5 -22t13 -22t20 -16.5t26.5 -6.5q16 0 28 6.5t20 16.5t12 22t4 22h85q-2 -22 -10.5 -47.5t-25.5 -47.5t-45 -36.5t-68 -14.5z" />
    <glyph glyph-name="ebreve" unicode="&#x115;" horiz-adv-x="444" 
d="M305 145q23 -12 45.5 -24t45.5 -25q-23 -50 -68 -75.5t-100 -25.5q-105 0 -148.5 62t-43.5 190q0 53 8.5 99t30 80.5t57.5 54.5t91 20q51 0 86 -17t57 -47t31.5 -71t9.5 -90v-58h-259q0 -24 3 -46.5t12 -39.5t24 -27t39 -10t44 13.5t35 36.5zM294 295q0 47 -16.5 75.5
t-56.5 28.5t-55 -30t-17 -74h145zM227 557q-42 0 -70.5 15t-46 37t-25.5 48t-9 48h86q1 -11 5.5 -22.5t13 -21.5t20 -16.5t26.5 -6.5q16 0 28 6.5t20 16.5t12 21.5t4 22.5h85q-2 -22 -10.5 -48t-25.5 -48t-45 -37t-68 -15z" />
    <glyph glyph-name="Edotaccent" unicode="&#x116;" horiz-adv-x="473" 
d="M63 0v696h387v-106h-273v-186h235v-104h-235v-191h273v-109h-387zM198 750v108h106v-108h-106z" />
    <glyph glyph-name="edotaccent" unicode="&#x117;" horiz-adv-x="444" 
d="M305 145q23 -12 45.5 -24t45.5 -25q-23 -50 -68 -75.5t-100 -25.5q-105 0 -148.5 62t-43.5 190q0 53 8.5 99t30 80.5t57.5 54.5t91 20q51 0 86 -17t57 -47t31.5 -71t9.5 -90v-58h-259q0 -24 3 -46.5t12 -39.5t24 -27t39 -10t44 13.5t35 36.5zM294 295q0 47 -16.5 75.5
t-56.5 28.5t-55 -30t-17 -74h145zM172 575v108h106v-108h-106z" />
    <glyph glyph-name="Eogonek" unicode="&#x118;" horiz-adv-x="473" 
d="M338 -100q0 20 9 45t29 55h-313v696h387v-106h-273v-186h235v-104h-235v-191h273v-104q0 -1 1 -1q-1 -1 -1 -2v-2h-2q-34 -51 -34 -79q0 -23 9.5 -34.5t32.5 -11.5q11 0 25 3.5t33 11.5l22 -57q-22 -12 -47.5 -19.5t-50.5 -7.5q-44 0 -72 27t-28 67z" />
    <glyph glyph-name="eogonek" unicode="&#x119;" horiz-adv-x="444" 
d="M245 -56q0 12 2.5 25t9.5 28q-8 -1 -14.5 -1.5t-14.5 -0.5q-105 0 -148.5 62t-43.5 190q0 53 8.5 99t30 80.5t57.5 54.5t91 20q51 0 86 -17t57 -47t31.5 -71t9.5 -90v-58h-259q0 -24 3 -46.5t12 -39.5t24 -27t39 -10t44 13.5t35 36.5q23 -12 45.5 -24t45.5 -25
q-16 -36 -47 -61q-14 -22 -21 -39t-7 -31q0 -23 9.5 -34.5t32.5 -11.5q11 0 25 3.5t33 11.5l22 -57q-22 -12 -47.5 -19.5t-50.5 -7.5q-44 0 -72 27t-28 67zM294 295q0 47 -16.5 75.5t-56.5 28.5t-55 -30t-17 -74h145z" />
    <glyph glyph-name="Ecaron" unicode="&#x11a;" horiz-adv-x="473" 
d="M63 0v696h387v-106h-273v-186h235v-104h-235v-191h273v-109h-387zM384 901l42 -44l-137 -126h-70l-140 127l41 43l132 -80z" />
    <glyph glyph-name="ecaron" unicode="&#x11b;" horiz-adv-x="444" 
d="M305 145q23 -12 45.5 -24t45.5 -25q-23 -50 -68 -75.5t-100 -25.5q-105 0 -148.5 62t-43.5 190q0 53 8.5 99t30 80.5t57.5 54.5t91 20q51 0 86 -17t57 -47t31.5 -71t9.5 -90v-58h-259q0 -24 3 -46.5t12 -39.5t24 -27t39 -10t44 13.5t35 36.5zM294 295q0 47 -16.5 75.5
t-56.5 28.5t-55 -30t-17 -74h145zM354 727l46 -41l-136 -151h-71l-141 152l46 40q4 -3 23 -17.5t40.5 -31.5t40.5 -32t24 -18z" />
    <glyph glyph-name="Gcircumflex" unicode="&#x11c;" horiz-adv-x="523" 
d="M263 701q42 0 76.5 -11.5t60.5 -32.5t43.5 -49.5t25.5 -61.5l-109 -34q-3 15 -10 29t-19 25t-29 18t-39 7q-26 0 -44.5 -9t-30.5 -23.5t-18 -32.5t-6 -36v-278q0 -22 6 -42t18.5 -35t31 -24t43.5 -9q50 0 75.5 28.5t25.5 69.5v82h-104v99h218v-165q0 -50 -15 -91
t-42.5 -70t-67.5 -45t-90 -16q-54 0 -94 17t-66.5 47t-39.5 70.5t-13 87.5v270q0 41 12.5 80t39 69t66.5 48t95 18zM258 808l-132 -80l-41 44l141 127h69l137 -126l-42 -45z" />
    <glyph glyph-name="gcircumflex" unicode="&#x11d;" horiz-adv-x="454" 
d="M402 -6q0 -90 -47 -145t-143 -55q-51 0 -93 21t-69 61q4 3 16 12.5t25.5 20.5t25.5 20.5t16 12.5q14 -21 34.5 -34t46.5 -13q37 0 57 22.5t20 60.5v71h-3q-19 -25 -47.5 -37.5t-53.5 -12.5q-53 0 -83 22t-45.5 57t-19.5 79t-4 88t4 89.5t19.5 82t46 60t83.5 23.5
q28 0 54.5 -11.5t46.5 -36.5l2 2v41h111v-501zM219 105q24 0 38 12t22 32t10.5 44.5t2.5 50.5q0 29 -1.5 56.5t-8.5 48.5t-21.5 34t-40.5 13q-24 0 -38.5 -12t-22 -32t-9.5 -48t-2 -59q0 -30 2.5 -55.5t10 -44.5t21.5 -29.5t37 -10.5zM231 635q-5 -3 -23.5 -18t-40.5 -32.5
t-41 -32t-23 -17.5l-45 40l141 152h71l135 -150l-46 -42z" />
    <glyph glyph-name="Gbreve" unicode="&#x11e;" horiz-adv-x="523" 
d="M263 701q42 0 76.5 -11.5t60.5 -32.5t43.5 -49.5t25.5 -61.5l-109 -34q-3 15 -10 29t-19 25t-29 18t-39 7q-26 0 -44.5 -9t-30.5 -23.5t-18 -32.5t-6 -36v-278q0 -22 6 -42t18.5 -35t31 -24t43.5 -9q50 0 75.5 28.5t25.5 69.5v82h-104v99h218v-165q0 -50 -15 -91
t-42.5 -70t-67.5 -45t-90 -16q-54 0 -94 17t-66.5 47t-39.5 70.5t-13 87.5v270q0 41 12.5 80t39 69t66.5 48t95 18zM261 739q-42 0 -70.5 14.5t-46 36.5t-25.5 47.5t-9 47.5h86q1 -10 5.5 -22t13 -22t20 -16.5t26.5 -6.5q16 0 28 6.5t20 16.5t12 22t4 22h85
q-2 -22 -10.5 -47.5t-25.5 -47.5t-45 -36.5t-68 -14.5z" />
    <glyph glyph-name="gbreve" unicode="&#x11f;" horiz-adv-x="454" 
d="M402 -6q0 -90 -47 -145t-143 -55q-51 0 -93 21t-69 61q4 3 16 12.5t25.5 20.5t25.5 20.5t16 12.5q14 -21 34.5 -34t46.5 -13q37 0 57 22.5t20 60.5v71h-3q-19 -25 -47.5 -37.5t-53.5 -12.5q-53 0 -83 22t-45.5 57t-19.5 79t-4 88t4 89.5t19.5 82t46 60t83.5 23.5
q28 0 54.5 -11.5t46.5 -36.5l2 2v41h111v-501zM219 105q24 0 38 12t22 32t10.5 44.5t2.5 50.5q0 29 -1.5 56.5t-8.5 48.5t-21.5 34t-40.5 13q-24 0 -38.5 -12t-22 -32t-9.5 -48t-2 -59q0 -30 2.5 -55.5t10 -44.5t21.5 -29.5t37 -10.5zM234 557q-42 0 -70.5 15t-46 37
t-25.5 48t-9 48h86q1 -11 5.5 -22.5t13 -21.5t20 -16.5t26.5 -6.5q16 0 28 6.5t20 16.5t12 21.5t4 22.5h85q-2 -22 -10.5 -48t-25.5 -48t-45 -37t-68 -15z" />
    <glyph glyph-name="Gdotaccent" unicode="&#x120;" horiz-adv-x="523" 
d="M263 701q42 0 76.5 -11.5t60.5 -32.5t43.5 -49.5t25.5 -61.5l-109 -34q-3 15 -10 29t-19 25t-29 18t-39 7q-26 0 -44.5 -9t-30.5 -23.5t-18 -32.5t-6 -36v-278q0 -22 6 -42t18.5 -35t31 -24t43.5 -9q50 0 75.5 28.5t25.5 69.5v82h-104v99h218v-165q0 -50 -15 -91
t-42.5 -70t-67.5 -45t-90 -16q-54 0 -94 17t-66.5 47t-39.5 70.5t-13 87.5v270q0 41 12.5 80t39 69t66.5 48t95 18zM209 750v108h106v-108h-106z" />
    <glyph glyph-name="gdotaccent" unicode="&#x121;" horiz-adv-x="454" 
d="M402 -6q0 -90 -47 -145t-143 -55q-51 0 -93 21t-69 61q4 3 16 12.5t25.5 20.5t25.5 20.5t16 12.5q14 -21 34.5 -34t46.5 -13q37 0 57 22.5t20 60.5v71h-3q-19 -25 -47.5 -37.5t-53.5 -12.5q-53 0 -83 22t-45.5 57t-19.5 79t-4 88t4 89.5t19.5 82t46 60t83.5 23.5
q28 0 54.5 -11.5t46.5 -36.5l2 2v41h111v-501zM219 105q24 0 38 12t22 32t10.5 44.5t2.5 50.5q0 29 -1.5 56.5t-8.5 48.5t-21.5 34t-40.5 13q-24 0 -38.5 -12t-22 -32t-9.5 -48t-2 -59q0 -30 2.5 -55.5t10 -44.5t21.5 -29.5t37 -10.5zM176 575v108h106v-108h-106z" />
    <glyph glyph-name="Gcommaaccent" unicode="&#x122;" horiz-adv-x="523" 
d="M263 701q42 0 76.5 -11.5t60.5 -32.5t43.5 -49.5t25.5 -61.5l-109 -34q-3 15 -10 29t-19 25t-29 18t-39 7q-26 0 -44.5 -9t-30.5 -23.5t-18 -32.5t-6 -36v-278q0 -22 6 -42t18.5 -35t31 -24t43.5 -9q50 0 75.5 28.5t25.5 69.5v82h-104v99h218v-165q0 -50 -15 -91
t-42.5 -70t-67.5 -45t-90 -16q-54 0 -94 17t-66.5 47t-39.5 70.5t-13 87.5v270q0 41 12.5 80t39 69t66.5 48t95 18zM198 -275l32 99h-29v117h116v-114l-62 -102h-57z" />
    <glyph glyph-name="gcommaaccent" unicode="&#x123;" horiz-adv-x="454" 
d="M402 -6q0 -90 -47 -145t-143 -55q-51 0 -93 21t-69 61q4 3 16 12.5t25.5 20.5t25.5 20.5t16 12.5q14 -21 34.5 -34t46.5 -13q37 0 57 22.5t20 60.5v71h-3q-19 -25 -47.5 -37.5t-53.5 -12.5q-53 0 -83 22t-45.5 57t-19.5 79t-4 88t4 89.5t19.5 82t46 60t83.5 23.5
q28 0 54.5 -11.5t46.5 -36.5l2 2v41h111v-501zM219 105q24 0 38 12t22 32t10.5 44.5t2.5 50.5q0 29 -1.5 56.5t-8.5 48.5t-21.5 34t-40.5 13q-24 0 -38.5 -12t-22 -32t-9.5 -48t-2 -59q0 -30 2.5 -55.5t10 -44.5t21.5 -29.5t37 -10.5zM230 785h56q-6 -24 -13 -47t-13 -47h26
v-117h-115v114z" />
    <glyph glyph-name="Hcircumflex" unicode="&#x124;" horiz-adv-x="550" 
d="M373 0v301h-196v-301h-115v696h115v-292h196v292h114v-696h-114zM270 808l-132 -80l-41 44l141 127h69l137 -126l-42 -45z" />
    <glyph glyph-name="hcircumflex" unicode="&#x125;" horiz-adv-x="460" 
d="M301 0v318q0 37 -18.5 56.5t-50.5 19.5t-52 -20t-20 -58v-316h-110v726h110v-278h4q19 23 47 37.5t59 14.5q64 0 103 -41t39 -111v-348h-111zM103 808l-132 -80l-41 44l141 127h69l137 -126l-42 -45z" />
    <glyph glyph-name="Hbar" unicode="&#x126;" horiz-adv-x="550" 
d="M373 0v301h-196v-301h-115v525h-47v70h47v101h115v-101h196v101h114v-101h46v-70h-46v-525h-114zM373 404v121h-196v-121h196z" />
    <glyph glyph-name="hbar" unicode="&#x127;" horiz-adv-x="460" 
d="M301 0v318q0 37 -18.5 56.5t-50.5 19.5t-52 -20t-20 -58v-316h-110v573h-50v71h50v82h110v-82h158v-71h-158v-125h4q19 23 47 37.5t59 14.5q64 0 103 -41t39 -111v-348h-111z" />
    <glyph glyph-name="Itilde" unicode="&#x128;" horiz-adv-x="243" 
d="M64 0v696h115v-696h-115zM59 864q17 0 33 -6.5t31.5 -14.5t29.5 -14.5t26 -6.5q15 0 28.5 10t30.5 33l56 -33q-23 -49 -49.5 -71t-56.5 -22q-18 0 -34.5 6.5t-32 14t-30 14t-27.5 6.5q-15 0 -29.5 -9t-32.5 -32q-14 8 -27 16t-27 16q20 45 49 69t62 24z" />
    <glyph glyph-name="itilde" unicode="&#x129;" horiz-adv-x="281" 
d="M90 0v495h111v-495h-111zM81 694q17 0 33 -6.5t31.5 -14.5t29.5 -14.5t26 -6.5q15 0 28.5 10t30.5 33l56 -33q-23 -49 -49.5 -71t-56.5 -22q-18 0 -34.5 6.5t-32 14t-30 14t-27.5 6.5q-15 0 -29.5 -9t-32.5 -32q-14 8 -27 16t-27 16q20 45 49 69t62 24z" />
    <glyph glyph-name="Imacron" unicode="&#x12a;" horiz-adv-x="243" 
d="M64 0v696h115v-696h-115zM-12 757v95h270v-95h-270z" />
    <glyph glyph-name="imacron" unicode="&#x12b;" horiz-adv-x="225" 
d="M57 0v495h111v-495h-111zM-22 580v95h271v-95h-271z" />
    <glyph glyph-name="Ibreve" unicode="&#x12c;" horiz-adv-x="243" 
d="M125 744q-42 0 -70.5 14.5t-46 36.5t-25.5 47.5t-9 47.5h86q1 -10 5.5 -22t13 -22t20 -16.5t26.5 -6.5q16 0 28 6.5t20 16.5t12 22t4 22h85q-2 -22 -10.5 -47.5t-25.5 -47.5t-45 -36.5t-68 -14.5zM64 0v696h115v-696h-115z" />
    <glyph glyph-name="ibreve" unicode="&#x12d;" horiz-adv-x="260" 
d="M81 0v495h111v-495h-111zM132 557q-42 0 -70.5 15t-46 37t-25.5 48t-9 48h86q1 -11 5.5 -22.5t13 -21.5t20 -16.5t26.5 -6.5q16 0 28 6.5t20 16.5t12 21.5t4 22.5h85q-2 -22 -10.5 -48t-25.5 -48t-45 -37t-68 -15z" />
    <glyph glyph-name="Iogonek" unicode="&#x12e;" horiz-adv-x="243" 
d="M46 -100q0 20 9 45t29 55h-20v696h115v-696h-23q-34 -51 -34 -79q0 -23 9.5 -34.5t32.5 -11.5q11 0 25 3.5t33 11.5l22 -57q-22 -12 -47.5 -19.5t-50.5 -7.5q-44 0 -72 27t-28 67z" />
    <glyph glyph-name="iogonek" unicode="&#x12f;" horiz-adv-x="225" 
d="M40 -99q0 20 9 44.5t29 54.5h-21v495h111v-495h-19q-33 -48 -33 -78q0 -23 9.5 -34.5t32.5 -11.5q11 0 25 3.5t33 11.5l22 -57q-22 -12 -47.5 -19.5t-50.5 -7.5q-44 0 -72 27t-28 67zM57 592v104h111v-104h-111z" />
    <glyph glyph-name="Idotaccent" unicode="&#x130;" horiz-adv-x="243" 
d="M64 0v696h115v-696h-115zM68 750v108h106v-108h-106z" />
    <glyph glyph-name="IJ" unicode="&#x132;" horiz-adv-x="650" 
d="M64 0v696h115v-696h-115zM588 190q0 -52 -15.5 -89t-42.5 -60.5t-63 -34.5t-76 -11q-51 0 -93.5 18.5t-73.5 60.5l80 73q16 -23 39.5 -34t44.5 -11q38 0 62 22.5t24 68.5v503h114v-506z" />
    <glyph glyph-name="ij" unicode="&#x133;" horiz-adv-x="461" 
d="M401 -58q0 -66 -40.5 -104.5t-112.5 -38.5h-31v100h22q29 1 40 20.5t11 49.5v527h111v-554zM57 0v495h111v-495h-111zM290 592v104h111v-104h-111zM57 592v104h111v-104h-111z" />
    <glyph glyph-name="Jcircumflex" unicode="&#x134;" horiz-adv-x="421" 
d="M359 191q0 -52 -15.5 -89t-42.5 -60.5t-63 -34.5t-76 -11q-51 0 -93.5 18.5t-73.5 60.5l80 73q16 -23 39.5 -34t44.5 -11q38 0 62 22.5t24 68.5v503h114v-506zM300 810l-132 -80l-41 44l141 127h69l137 -126l-42 -45z" />
    <glyph glyph-name="jcircumflex" unicode="&#x135;" horiz-adv-x="252" 
d="M181 -58q0 -66 -40.5 -104.5t-112.5 -38.5h-31v100h22q29 1 40.5 20.5t11.5 49.5v527h110v-554zM127 635q-5 -3 -23.5 -18t-40.5 -32.5t-41 -32t-23 -17.5l-45 40l141 152h70l136 -150l-46 -42z" />
    <glyph glyph-name="Kcommaaccent" unicode="&#x136;" horiz-adv-x="534" 
d="M407 0q-38 78 -75.5 155.5t-75.5 155.5q-20 -30 -40 -60.5t-40 -59.5v-191h-114v696h114v-315h3l204 315h131l-186 -278q51 -106 103 -209.5t104 -208.5h-128zM217 -255l32 99h-29v117h116v-114l-62 -102h-57z" />
    <glyph glyph-name="kcommaaccent" unicode="&#x137;" horiz-adv-x="462" 
d="M167 304l140 190h136l-151 -192l169 -302h-129l-114 212l-54 -74v-138h-110v725h110v-421h3zM182 -275l32 99h-29v117h116v-114l-62 -102h-57z" />
    <glyph glyph-name="kgreenlandic" unicode="&#x138;" horiz-adv-x="459" 
d="M167 304l140 190h136l-151 -193l168 -301h-127l-113 213l-56 -76v-137h-110v494h110v-190h3z" />
    <glyph glyph-name="Lacute" unicode="&#x139;" horiz-adv-x="462" 
d="M63 0v696h114v-587h269v-109h-383zM73 780l159 124l69 -80l-185 -98z" />
    <glyph glyph-name="lacute" unicode="&#x13a;" horiz-adv-x="244" 
d="M190 -2q-65 0 -101 28t-36 101v599h111v-577q0 -29 11 -40.5t35 -11.5h16v-99h-36zM55 792l159 124l69 -80l-185 -98z" />
    <glyph glyph-name="Lcommaaccent" unicode="&#x13b;" horiz-adv-x="462" 
d="M63 0v696h114v-587h269v-109h-383zM190 -275l32 99h-29v117h116v-114l-62 -102h-57z" />
    <glyph glyph-name="lcommaaccent" unicode="&#x13c;" horiz-adv-x="244" 
d="M190 -2q-65 0 -101 28t-36 101v599h111v-577q0 -29 11 -40.5t35 -11.5h16v-99h-36zM69 -270l32 99h-29v117h116v-114l-62 -102h-57z" />
    <glyph glyph-name="Lcaron" unicode="&#x13d;" horiz-adv-x="462" 
d="M63 0v696h114v-587h269v-109h-383zM264 478l32 99h-29v117h116v-114l-62 -102h-57z" />
    <glyph glyph-name="lcaron" unicode="&#x13e;" horiz-adv-x="327" 
d="M207 506l32 99h-29v117h116v-114l-62 -102h-57zM190 -2q-65 0 -101 28t-36 101v599h111v-577q0 -29 11 -40.5t35 -11.5h16v-99h-36z" />
    <glyph glyph-name="Ldot" unicode="&#x13f;" horiz-adv-x="462" 
d="M63 0v696h114v-587h269v-109h-383zM293 304v108h106v-108h-106z" />
    <glyph glyph-name="ldot" unicode="&#x140;" horiz-adv-x="319" 
d="M212 327v108h106v-108h-106zM190 -2q-65 0 -101 28t-36 101v599h111v-577q0 -29 11 -40.5t35 -11.5h16v-99h-36z" />
    <glyph glyph-name="Lslash" unicode="&#x141;" horiz-adv-x="485" 
d="M86 0v238l-48 -29l-38 61l86 52v374h114v-304l94 58l37 -62l-131 -80v-199h269v-109h-383z" />
    <glyph glyph-name="lslash" unicode="&#x142;" horiz-adv-x="297" 
d="M226 -2q-65 0 -101 28t-36 101v144l-46 -28l-39 61l85 52v370h111v-302l59 36l37 -61l-96 -59v-191q0 -29 11 -40.5t35 -11.5h16v-99h-36z" />
    <glyph glyph-name="Nacute" unicode="&#x143;" horiz-adv-x="579" 
d="M416 0l-164 299l-73 143l-3 -1v-441h-115v696h105l154 -284l82 -156l4 1v439h114v-696h-104zM212 780l159 124l69 -80l-185 -98z" />
    <glyph glyph-name="nacute" unicode="&#x144;" horiz-adv-x="459" 
d="M300 0v318q0 37 -20 56.5t-50 19.5q-32 0 -52 -20.5t-20 -57.5v-316h-110v495h111v-48h3q20 24 48 38.5t59 14.5q67 0 104 -40.5t37 -110.5v-349h-110zM158 571l82 184l98 -37l-116 -175z" />
    <glyph glyph-name="Ncommaaccent" unicode="&#x145;" horiz-adv-x="579" 
d="M416 0l-164 299l-73 143l-3 -1v-441h-115v696h105l154 -284l82 -156l4 1v439h114v-696h-104zM226 -255l32 99h-29v117h116v-114l-62 -102h-57z" />
    <glyph glyph-name="ncommaaccent" unicode="&#x146;" horiz-adv-x="459" 
d="M300 0v318q0 37 -20 56.5t-50 19.5q-32 0 -52 -20.5t-20 -57.5v-316h-110v495h111v-48h3q20 24 48 38.5t59 14.5q67 0 104 -40.5t37 -110.5v-349h-110zM167 -275l32 99h-29v117h116v-114l-62 -102h-57z" />
    <glyph glyph-name="Ncaron" unicode="&#x147;" horiz-adv-x="579" 
d="M416 0l-164 299l-73 143l-3 -1v-441h-115v696h105l154 -284l82 -156l4 1v439h114v-696h-104zM426 901l42 -44l-137 -126h-70l-140 127l41 43l132 -80z" />
    <glyph glyph-name="ncaron" unicode="&#x148;" horiz-adv-x="459" 
d="M300 0v318q0 37 -20 56.5t-50 19.5q-32 0 -52 -20.5t-20 -57.5v-316h-110v495h111v-48h3q20 24 48 38.5t59 14.5q67 0 104 -40.5t37 -110.5v-349h-110zM345 727l46 -41l-136 -151h-71l-141 152l46 40q4 -3 23 -17.5t40.5 -31.5t40.5 -32t24 -18z" />
    <glyph glyph-name="napostrophe" unicode="&#x149;" horiz-adv-x="527" 
d="M368 0v318q0 37 -20 56.5t-50 19.5q-32 0 -52 -20.5t-20 -57.5v-316h-110v495h111v-48h3q20 24 48 38.5t59 14.5q67 0 104 -40.5t37 -110.5v-349h-110zM-2 452l32 99h-29v117h116v-114l-62 -102h-57z" />
    <glyph glyph-name="Eng" unicode="&#x14a;" horiz-adv-x="579" 
d="M519 -59q0 -34 -9.5 -56t-25.5 -35.5t-38 -19t-47 -5.5q-34 0 -70 12l15 85q6 -1 12 -1.5t11 -0.5q26 0 34 12.5t8 35.5v49q-6 11 -23.5 44t-41 77t-50 93t-50 93t-41.5 77.5t-25 45.5h-3v-447h-114v696h104l116 -214l69 -129q14 -25 26 -50.5t26 -51.5q1 0 1.5 0.5
t2.5 0.5v444h113v-755z" />
    <glyph glyph-name="eng" unicode="&#x14b;" horiz-adv-x="459" 
d="M410 -59q0 -33 -9 -55.5t-24.5 -36.5t-36 -20t-44.5 -6q-38 0 -76 14l15 85q6 -1 12 -1.5t11 -0.5q29 0 35.5 15.5t6.5 41.5v341q0 37 -19 56.5t-51 19.5q-31 0 -51.5 -21t-20.5 -58v-315h-110v495h111v-48h3q20 24 50 38.5t61 14.5q38 0 64.5 -12.5t42.5 -34.5t23 -53
t7 -67v-392z" />
    <glyph glyph-name="Omacron" unicode="&#x14c;" horiz-adv-x="516" 
d="M471 211q0 -50 -15.5 -90t-44 -68.5t-67.5 -43.5t-86 -15q-57 0 -98 18.5t-66.5 50t-37.5 73t-12 87.5v263q0 37 11.5 75t37 69t66 51t99.5 20q55 0 95 -19t66.5 -49.5t39 -69t12.5 -77.5v-275zM355 488q0 13 -4.5 30.5t-15.5 33.5t-29.5 27.5t-47.5 11.5t-48.5 -10.5
t-31 -26t-16.5 -33.5t-5 -34l1 -266q0 -50 23 -84t78 -34q39 0 67.5 26.5t28.5 72.5v286zM121 757v95h270v-95h-270z" />
    <glyph glyph-name="omacron" unicode="&#x14d;" horiz-adv-x="449" 
d="M228 502q64 0 101 -25.5t56 -63.5q14 -28 19 -73.5t5 -93.5q0 -40 -5 -84t-16 -71q-11 -28 -28.5 -46.5t-40 -30t-48.5 -16.5t-53 -5q-54 0 -90.5 20t-56.5 53q-18 29 -25.5 75t-7.5 104q0 45 4.5 87.5t15.5 68.5q20 47 62 74t108 27zM226 400q-22 0 -40 -11t-26 -34
q-7 -18 -9.5 -47.5t-2.5 -67.5q0 -29 1.5 -55t8.5 -45q17 -45 65 -45q23 0 42 11.5t27 45.5q4 14 5.5 41t1.5 61q0 30 -2 55.5t-8 42.5q-17 48 -63 48zM85 580v95h271v-95h-271z" />
    <glyph glyph-name="Obreve" unicode="&#x14e;" horiz-adv-x="516" 
d="M471 211q0 -50 -15.5 -90t-44 -68.5t-67.5 -43.5t-86 -15q-57 0 -98 18.5t-66.5 50t-37.5 73t-12 87.5v263q0 37 11.5 75t37 69t66 51t99.5 20q55 0 95 -19t66.5 -49.5t39 -69t12.5 -77.5v-275zM355 488q0 13 -4.5 30.5t-15.5 33.5t-29.5 27.5t-47.5 11.5t-48.5 -10.5
t-31 -26t-16.5 -33.5t-5 -34l1 -266q0 -50 23 -84t78 -34q39 0 67.5 26.5t28.5 72.5v286zM254 739q-42 0 -70.5 14.5t-46 36.5t-25.5 47.5t-9 47.5h86q1 -10 5.5 -22t13 -22t20 -16.5t26.5 -6.5q16 0 28 6.5t20 16.5t12 22t4 22h85q-2 -22 -10.5 -47.5t-25.5 -47.5
t-45 -36.5t-68 -14.5z" />
    <glyph glyph-name="obreve" unicode="&#x14f;" horiz-adv-x="449" 
d="M228 502q64 0 101 -25.5t56 -63.5q14 -28 19 -73.5t5 -93.5q0 -40 -5 -84t-16 -71q-11 -28 -28.5 -46.5t-40 -30t-48.5 -16.5t-53 -5q-54 0 -90.5 20t-56.5 53q-18 29 -25.5 75t-7.5 104q0 45 4.5 87.5t15.5 68.5q20 47 62 74t108 27zM226 400q-22 0 -40 -11t-26 -34
q-7 -18 -9.5 -47.5t-2.5 -67.5q0 -29 1.5 -55t8.5 -45q17 -45 65 -45q23 0 42 11.5t27 45.5q4 14 5.5 41t1.5 61q0 30 -2 55.5t-8 42.5q-17 48 -63 48zM226 557q-42 0 -70.5 15t-46 37t-25.5 48t-9 48h86q1 -11 5.5 -22.5t13 -21.5t20 -16.5t26.5 -6.5q16 0 28 6.5t20 16.5
t12 21.5t4 22.5h85q-2 -22 -10.5 -48t-25.5 -48t-45 -37t-68 -15z" />
    <glyph glyph-name="Ohungarumlaut" unicode="&#x150;" horiz-adv-x="516" 
d="M471 211q0 -50 -15.5 -90t-44 -68.5t-67.5 -43.5t-86 -15q-57 0 -98 18.5t-66.5 50t-37.5 73t-12 87.5v263q0 37 11.5 75t37 69t66 51t99.5 20q55 0 95 -19t66.5 -49.5t39 -69t12.5 -77.5v-275zM355 488q0 13 -4.5 30.5t-15.5 33.5t-29.5 27.5t-47.5 11.5t-48.5 -10.5
t-31 -26t-16.5 -33.5t-5 -34l1 -266q0 -50 23 -84t78 -34q39 0 67.5 26.5t28.5 72.5v286zM92 774l152 132l73 -72l-179 -111zM280 775l154 130l71 -72l-179 -109z" />
    <glyph glyph-name="ohungarumlaut" unicode="&#x151;" horiz-adv-x="449" 
d="M228 502q64 0 101 -25.5t56 -63.5q14 -28 19 -73.5t5 -93.5q0 -40 -5 -84t-16 -71q-11 -28 -28.5 -46.5t-40 -30t-48.5 -16.5t-53 -5q-54 0 -90.5 20t-56.5 53q-18 29 -25.5 75t-7.5 104q0 45 4.5 87.5t15.5 68.5q20 47 62 74t108 27zM226 400q-22 0 -40 -11t-26 -34
q-7 -18 -9.5 -47.5t-2.5 -67.5q0 -29 1.5 -55t8.5 -45q17 -45 65 -45q23 0 42 11.5t27 45.5q4 14 5.5 41t1.5 61q0 30 -2 55.5t-8 42.5q-17 48 -63 48zM107 578l82 184l98 -36l-117 -176zM251 571l82 184l98 -37l-117 -175z" />
    <glyph glyph-name="Racute" unicode="&#x154;" horiz-adv-x="528" 
d="M370 0l-104 290h-89v-290h-114v696h224q43 0 80 -12.5t63.5 -37.5t41.5 -62.5t15 -87.5q0 -66 -28 -114t-83 -73l119 -309h-125zM375 496q0 49 -25 72.5t-72 23.5h-101v-199h100q45 0 71.5 26t26.5 77zM160 780l159 124l69 -80l-185 -98z" />
    <glyph glyph-name="racute" unicode="&#x155;" horiz-adv-x="338" 
d="M259 391q-42 0 -66.5 -22.5t-24.5 -72.5v-297h-111v496h110v-57l3 -1q20 36 49 49.5t65 13.5q15 0 28 -2.5t24 -10.5l-22 -108q-14 7 -27.5 9.5t-27.5 2.5zM125 571l82 184l98 -37l-116 -175z" />
    <glyph glyph-name="Rcommaaccent" unicode="&#x156;" horiz-adv-x="528" 
d="M370 0l-104 290h-89v-290h-114v696h224q43 0 80 -12.5t63.5 -37.5t41.5 -62.5t15 -87.5q0 -66 -28 -114t-83 -73l119 -309h-125zM375 496q0 49 -25 72.5t-72 23.5h-101v-199h100q45 0 71.5 26t26.5 77zM208 -255l32 99h-29v117h116v-114l-62 -102h-57z" />
    <glyph glyph-name="rcommaaccent" unicode="&#x157;" horiz-adv-x="338" 
d="M259 391q-42 0 -66.5 -22.5t-24.5 -72.5v-297h-111v496h110v-57l3 -1q20 36 49 49.5t65 13.5q15 0 28 -2.5t24 -10.5l-22 -108q-14 7 -27.5 9.5t-27.5 2.5zM51 -275l32 99h-29v117h116v-114l-62 -102h-57z" />
    <glyph glyph-name="Rcaron" unicode="&#x158;" horiz-adv-x="528" 
d="M370 0l-104 290h-89v-290h-114v696h224q43 0 80 -12.5t63.5 -37.5t41.5 -62.5t15 -87.5q0 -66 -28 -114t-83 -73l119 -309h-125zM375 496q0 49 -25 72.5t-72 23.5h-101v-199h100q45 0 71.5 26t26.5 77zM368 901l42 -44l-137 -126h-70l-140 127l41 43l132 -80z" />
    <glyph glyph-name="rcaron" unicode="&#x159;" horiz-adv-x="338" 
d="M259 391q-42 0 -66.5 -22.5t-24.5 -72.5v-297h-111v496h110v-57l3 -1q20 36 49 49.5t65 13.5q15 0 28 -2.5t24 -10.5l-22 -108q-14 7 -27.5 9.5t-27.5 2.5zM299 727l46 -41l-136 -151h-71l-141 152l46 40q4 -3 23 -17.5t40.5 -31.5t40.5 -32t24 -18z" />
    <glyph glyph-name="Sacute" unicode="&#x15a;" horiz-adv-x="504" 
d="M474 198q0 -95 -58 -149.5t-164 -54.5q-84 0 -139 33.5t-86 86.5l94 68q23 -36 55 -57.5t78 -21.5q55 0 77.5 26.5t22.5 65.5q0 24 -9 41t-25 29.5t-39 21.5t-50 17q-50 16 -85 34t-57.5 41.5t-32.5 54t-10 69.5q0 43 15 79.5t43 63t66.5 41t86.5 14.5q78 0 126.5 -26
t77.5 -71l-87 -73q-23 32 -52 47t-67 15q-45 0 -69 -24.5t-24 -61.5q0 -21 11 -36.5t30 -27.5t45 -21.5t55 -18.5q49 -15 81.5 -34.5t52.5 -44.5t28.5 -56t8.5 -70zM180 780l159 124l69 -80l-185 -98z" />
    <glyph glyph-name="sacute" unicode="&#x15b;" horiz-adv-x="424" 
d="M395 147q0 -69 -49 -111t-135 -42q-66 0 -111 23.5t-74 73.5l82 60q34 -59 102 -59q34 0 53.5 15t19.5 41q0 27 -18.5 38t-51.5 19q-35 8 -66.5 18.5t-55.5 27t-38.5 41.5t-14.5 61q0 34 13.5 61.5t36.5 46.5t55 29t69 10q67 0 107.5 -22.5t65.5 -61.5l-74 -64
q-33 51 -96 51q-37 0 -51.5 -15.5t-14.5 -33.5q0 -12 7.5 -20.5t20.5 -14.5t29 -10.5t33 -8.5q34 -8 63 -18.5t49.5 -28t32 -43.5t11.5 -63zM152 571l82 184l98 -37l-116 -175z" />
    <glyph glyph-name="Scircumflex" unicode="&#x15c;" horiz-adv-x="504" 
d="M474 198q0 -95 -58 -149.5t-164 -54.5q-84 0 -139 33.5t-86 86.5l94 68q23 -36 55 -57.5t78 -21.5q55 0 77.5 26.5t22.5 65.5q0 24 -9 41t-25 29.5t-39 21.5t-50 17q-50 16 -85 34t-57.5 41.5t-32.5 54t-10 69.5q0 43 15 79.5t43 63t66.5 41t86.5 14.5q78 0 126.5 -26
t77.5 -71l-87 -73q-23 32 -52 47t-67 15q-45 0 -69 -24.5t-24 -61.5q0 -21 11 -36.5t30 -27.5t45 -21.5t55 -18.5q49 -15 81.5 -34.5t52.5 -44.5t28.5 -56t8.5 -70zM255 808l-132 -80l-41 44l141 127h69l137 -126l-42 -45z" />
    <glyph glyph-name="scircumflex" unicode="&#x15d;" horiz-adv-x="424" 
d="M395 147q0 -69 -49 -111t-135 -42q-66 0 -111 23.5t-74 73.5l82 60q34 -59 102 -59q34 0 53.5 15t19.5 41q0 27 -18.5 38t-51.5 19q-35 8 -66.5 18.5t-55.5 27t-38.5 41.5t-14.5 61q0 34 13.5 61.5t36.5 46.5t55 29t69 10q67 0 107.5 -22.5t65.5 -61.5l-74 -64
q-33 51 -96 51q-37 0 -51.5 -15.5t-14.5 -33.5q0 -12 7.5 -20.5t20.5 -14.5t29 -10.5t33 -8.5q34 -8 63 -18.5t49.5 -28t32 -43.5t11.5 -63zM215 635q-5 -3 -23.5 -18t-40.5 -32.5t-41 -32t-23 -17.5l-45 40l141 152h71l135 -150l-46 -42z" />
    <glyph glyph-name="Scedilla" unicode="&#x15e;" horiz-adv-x="504" 
d="M474 198q0 -91 -54 -145t-152 -58l-11 -36q26 -3 43.5 -12t28 -21t15 -26t4.5 -26q0 -15 -5.5 -30t-18 -27t-31.5 -19.5t-46 -7.5q-17 0 -45.5 3.5t-52.5 16.5q5 12 9.5 24.5t9.5 24.5q21 -11 37 -13t30 -2q17 0 28.5 9.5t11.5 23.5q0 17 -11.5 25.5t-29.5 8.5
q-8 0 -12 -1q-7 5 -13.5 9.5t-13.5 9.5l20 67q-69 7 -114.5 38.5t-73.5 79.5l94 68q23 -36 55 -57.5t78 -21.5q55 0 77.5 26.5t22.5 65.5q0 24 -9 41t-25 29.5t-39 21.5t-50 17q-50 16 -85 34t-57.5 41.5t-32.5 54t-10 69.5q0 43 15 79.5t43 63t66.5 41t86.5 14.5
q78 0 126.5 -26t77.5 -71l-87 -73q-23 32 -52 47t-67 15q-45 0 -69 -24.5t-24 -61.5q0 -21 11 -36.5t30 -27.5t45 -21.5t55 -18.5q49 -15 81.5 -34.5t52.5 -44.5t28.5 -56t8.5 -70z" />
    <glyph glyph-name="scedilla" unicode="&#x15f;" horiz-adv-x="424" 
d="M395 147q0 -64 -41.5 -104.5t-115.5 -47.5l-12 -36q26 -3 43.5 -12t28 -21t15 -26t4.5 -26q0 -15 -5.5 -30t-18 -27t-31.5 -19.5t-46 -7.5q-17 0 -45.5 3.5t-52.5 16.5q5 12 9.5 24.5t9.5 24.5q21 -11 37 -13t30 -2q17 0 28.5 9.5t11.5 23.5q0 17 -11.5 25.5t-29.5 8.5
q-8 0 -12 -1q-7 5 -13.5 9.5t-13.5 9.5l20 66q-55 5 -93.5 28t-64.5 68l82 60q34 -59 102 -59q34 0 53.5 15t19.5 41q0 27 -18.5 38t-51.5 19q-35 8 -66.5 18.5t-55.5 27t-38.5 41.5t-14.5 61q0 34 13.5 61.5t36.5 46.5t55 29t69 10q67 0 107.5 -22.5t65.5 -61.5l-74 -64
q-33 51 -96 51q-37 0 -51.5 -15.5t-14.5 -33.5q0 -12 7.5 -20.5t20.5 -14.5t29 -10.5t33 -8.5q34 -8 63 -18.5t49.5 -28t32 -43.5t11.5 -63z" />
    <glyph glyph-name="Tcommaaccent" unicode="&#x162;" horiz-adv-x="431" 
d="M271 592v-592h-114v592h-153v104h421v-104h-154zM156 -275l32 99h-29v117h116v-114l-62 -102h-57z" />
    <glyph glyph-name="tcommaaccent" unicode="&#x163;" horiz-adv-x="277" 
d="M196 0q-62 0 -93 35t-31 86v286h-52v88h52v130h108v-130h68v-88h-68v-253q0 -26 11 -40.5t37 -14.5h24v-99h-56zM79 -275l32 99h-29v117h116v-114l-62 -102h-57z" />
    <glyph glyph-name="Tcaron" unicode="&#x164;" horiz-adv-x="431" 
d="M271 592v-592h-114v592h-153v104h421v-104h-154zM349 901l42 -44l-137 -126h-70l-140 127l41 43l132 -80z" />
    <glyph glyph-name="tcaron" unicode="&#x165;" horiz-adv-x="349" 
d="M230 554l32 99h-29v117h116v-114l-62 -102h-57zM196 0q-62 0 -93 35t-31 86v286h-52v88h52v130h108v-130h68v-88h-68v-253q0 -26 11 -40.5t37 -14.5h24v-99h-56z" />
    <glyph glyph-name="Tbar" unicode="&#x166;" horiz-adv-x="431" 
d="M271 592v-193h125v-80h-125v-319h-114v319h-120v80h120v193h-153v104h421v-104h-154z" />
    <glyph glyph-name="tbar" unicode="&#x167;" horiz-adv-x="277" 
d="M196 0q-62 0 -93 35t-31 86v129h-52v73h52v84h-52v88h52v130h108v-130h68v-88h-68v-84h68v-73h-68v-96q0 -26 11 -40.5t37 -14.5h24v-99h-56z" />
    <glyph glyph-name="Utilde" unicode="&#x168;" horiz-adv-x="535" 
d="M482 696v-485q0 -50 -15.5 -90.5t-44 -68.5t-67.5 -43t-86 -15q-54 0 -94.5 17.5t-67 47.5t-40 70.5t-13.5 86.5v480h114v-483q0 -45 25.5 -77t75.5 -32q42 0 69.5 27.5t27.5 74.5v490h116zM206 866q17 0 33 -6.5t31.5 -14.5t29.5 -14.5t26 -6.5q15 0 28.5 10t30.5 33
l56 -33q-23 -49 -49.5 -71t-56.5 -22q-18 0 -34.5 6.5t-32 14t-30 14t-27.5 6.5q-15 0 -29.5 -9t-32.5 -32q-14 8 -27 16t-27 16q20 45 49 69t62 24z" />
    <glyph glyph-name="utilde" unicode="&#x169;" horiz-adv-x="462" 
d="M301 0v46q-1 0 -2 0.5t-2 0.5q-19 -25 -47.5 -38.5t-58.5 -13.5q-68 0 -105 40t-37 110v349h110v-318q0 -37 20.5 -57t49.5 -20q39 0 55.5 28.5t16.5 76.5v290h110v-494h-110zM164 694q17 0 33 -6.5t31.5 -14.5t29.5 -14.5t26 -6.5q15 0 28.5 10t30.5 33l56 -33
q-23 -49 -49.5 -71t-56.5 -22q-18 0 -34.5 6.5t-32 14t-30 14t-27.5 6.5q-15 0 -29.5 -9t-32.5 -32q-14 8 -27 16t-27 16q20 45 49 69t62 24z" />
    <glyph glyph-name="Umacron" unicode="&#x16a;" horiz-adv-x="535" 
d="M482 696v-485q0 -50 -15.5 -90.5t-44 -68.5t-67.5 -43t-86 -15q-54 0 -94.5 17.5t-67 47.5t-40 70.5t-13.5 86.5v480h114v-483q0 -45 25.5 -77t75.5 -32q42 0 69.5 27.5t27.5 74.5v490h116zM135 757v95h270v-95h-270z" />
    <glyph glyph-name="umacron" unicode="&#x16b;" horiz-adv-x="462" 
d="M301 0v46q-1 0 -2 0.5t-2 0.5q-19 -25 -47.5 -38.5t-58.5 -13.5q-68 0 -105 40t-37 110v349h110v-318q0 -37 20.5 -57t49.5 -20q39 0 55.5 28.5t16.5 76.5v290h110v-494h-110zM97 580v95h271v-95h-271z" />
    <glyph glyph-name="Ubreve" unicode="&#x16c;" horiz-adv-x="535" 
d="M482 696v-485q0 -50 -15.5 -90.5t-44 -68.5t-67.5 -43t-86 -15q-54 0 -94.5 17.5t-67 47.5t-40 70.5t-13.5 86.5v480h114v-483q0 -45 25.5 -77t75.5 -32q42 0 69.5 27.5t27.5 74.5v490h116zM274 725q-42 0 -70.5 15t-46 37t-25.5 48t-9 48h86q1 -11 5.5 -22.5t13 -21.5
t20 -16.5t26.5 -6.5q16 0 28 6.5t20 16.5t12 21.5t4 22.5h85q-2 -22 -10.5 -48t-25.5 -48t-45 -37t-68 -15z" />
    <glyph glyph-name="ubreve" unicode="&#x16d;" horiz-adv-x="462" 
d="M301 0v46q-1 0 -2 0.5t-2 0.5q-19 -25 -47.5 -38.5t-58.5 -13.5q-68 0 -105 40t-37 110v349h110v-318q0 -37 20.5 -57t49.5 -20q39 0 55.5 28.5t16.5 76.5v290h110v-494h-110zM236 557q-42 0 -70.5 15t-46 37t-25.5 48t-9 48h86q1 -11 5.5 -22.5t13 -21.5t20 -16.5
t26.5 -6.5q16 0 28 6.5t20 16.5t12 21.5t4 22.5h85q-2 -22 -10.5 -48t-25.5 -48t-45 -37t-68 -15z" />
    <glyph glyph-name="Uring" unicode="&#x16e;" horiz-adv-x="535" 
d="M482 696v-485q0 -50 -15.5 -90.5t-44 -68.5t-67.5 -43t-86 -15q-54 0 -94.5 17.5t-67 47.5t-40 70.5t-13.5 86.5v480h114v-483q0 -45 25.5 -77t75.5 -32q42 0 69.5 27.5t27.5 74.5v490h116zM308 807q0 17 -11.5 28t-28.5 11t-29 -11t-12 -28q0 -16 12 -27t29 -11t28.5 11
t11.5 27zM167 807q0 20 8 38t21.5 31.5t32 21t39.5 7.5q42 0 70.5 -28.5t28.5 -69.5q0 -20 -7.5 -37.5t-21 -30.5t-31.5 -20.5t-39 -7.5t-39.5 7.5t-32 20.5t-21.5 30.5t-8 37.5z" />
    <glyph glyph-name="uring" unicode="&#x16f;" horiz-adv-x="462" 
d="M301 0v46q-1 0 -2 0.5t-2 0.5q-19 -25 -47.5 -38.5t-58.5 -13.5q-68 0 -105 40t-37 110v349h110v-318q0 -37 20.5 -57t49.5 -20q39 0 55.5 28.5t16.5 76.5v290h110v-494h-110zM276 633q0 17 -11.5 28t-28.5 11t-29 -11t-12 -28q0 -16 12 -27t29 -11t28.5 11t11.5 27z
M135 633q0 20 8 38t21.5 31.5t32 21t39.5 7.5q42 0 70.5 -28.5t28.5 -69.5q0 -20 -7.5 -37.5t-21 -30.5t-31.5 -20.5t-39 -7.5t-39.5 7.5t-32 20.5t-21.5 30.5t-8 37.5z" />
    <glyph glyph-name="Uhungarumlaut" unicode="&#x170;" horiz-adv-x="535" 
d="M482 696v-485q0 -50 -15.5 -90.5t-44 -68.5t-67.5 -43t-86 -15q-54 0 -94.5 17.5t-67 47.5t-40 70.5t-13.5 86.5v480h114v-483q0 -45 25.5 -77t75.5 -32q42 0 69.5 27.5t27.5 74.5v490h116zM104 774l152 132l73 -72l-179 -111zM292 775l154 130l71 -72l-179 -109z" />
    <glyph glyph-name="uhungarumlaut" unicode="&#x171;" horiz-adv-x="462" 
d="M301 0v46q-1 0 -2 0.5t-2 0.5q-19 -25 -47.5 -38.5t-58.5 -13.5q-68 0 -105 40t-37 110v349h110v-318q0 -37 20.5 -57t49.5 -20q39 0 55.5 28.5t16.5 76.5v290h110v-494h-110zM101 578l82 184l98 -36l-117 -176zM245 571l82 184l98 -37l-117 -175z" />
    <glyph glyph-name="Uogonek" unicode="&#x172;" horiz-adv-x="535" 
d="M198 -100q0 20 8 43.5t28 52.5q-45 6 -79 25t-56.5 48t-33.5 67t-11 80v480h114v-483q0 -45 25.5 -77t75.5 -32q42 0 69.5 27.5t27.5 74.5v490h116v-485q0 -91 -48.5 -147t-127.5 -67q-16 -24 -24 -42.5t-8 -33.5q0 -23 9.5 -34.5t32.5 -11.5q11 0 25 3.5t33 11.5l22 -57
q-22 -12 -47.5 -19.5t-50.5 -7.5q-44 0 -72 27t-28 67z" />
    <glyph glyph-name="uogonek" unicode="&#x173;" horiz-adv-x="462" 
d="M262 -98q0 20 9 45t30 55v44q-1 0 -2 0.5t-2 0.5q-19 -25 -47.5 -38.5t-58.5 -13.5q-68 0 -105 40t-37 110v349h110v-318q0 -37 20.5 -57t49.5 -20q39 0 55.5 28.5t16.5 76.5v290h110v-494h-40q-33 -48 -33 -77q0 -23 9.5 -34.5t32.5 -11.5q11 0 25 3.5t33 11.5l22 -57
q-22 -12 -47.5 -19.5t-50.5 -7.5q-44 0 -72 27t-28 67z" />
    <glyph glyph-name="Wcircumflex" unicode="&#x174;" horiz-adv-x="725" 
d="M571 0h-102q-17 75 -36 150.5t-36 151.5l-33 145h-3l-16 -72l-16 -72q-17 -76 -36.5 -152t-36.5 -151h-102l-143 695h123q12 -72 25 -142.5t25 -142.5q8 -42 14 -84.5t13 -84.5h4q7 32 13.5 65t14.5 65q19 81 37 162t37 162h92l75 -326q7 -33 13.5 -65t14.5 -65h4l25 166
q15 89 26.5 157t22.5 133h123zM360 808l-132 -80l-41 44l141 127h69l137 -126l-42 -45z" />
    <glyph glyph-name="wcircumflex" unicode="&#x175;" horiz-adv-x="652" 
d="M642 495q-33 -125 -66 -247.5t-67 -247.5h-107l-30 115l-46 185h-3q-11 -42 -21 -87t-21 -85q-11 -41 -18.5 -70.5t-14.5 -57.5h-108q-33 125 -66 247.5t-67 247.5h118l32 -152q9 -44 18 -87t20 -87h4q11 44 20.5 86t20.5 87q9 38 18 76.5t17 76.5h101l31 -138l46 -191h4
q3 10 5.5 21t6.5 30t10 49t16 77q8 38 15 76t16 76h116zM322 635q-5 -3 -23.5 -18t-40.5 -32.5t-41 -32t-23 -17.5l-45 40l141 152h71l135 -150l-46 -42z" />
    <glyph glyph-name="Ycircumflex" unicode="&#x176;" horiz-adv-x="476" 
d="M241 404q11 34 23 67t24 67l61 158h121l-176 -412v-284h-112v284l-176 413h124q15 -41 30.5 -81t29.5 -80q11 -32 22.5 -66t22.5 -66h6zM240 808l-132 -80l-41 44l141 127h69l137 -126l-42 -45z" />
    <glyph glyph-name="ycircumflex" unicode="&#x177;" horiz-adv-x="413" 
d="M230 -93q-17 -56 -53.5 -82t-87.5 -26h-37v95h26q44 0 60 61l18 64l-155 476h118l48 -179l39 -152h4l38 152l48 179h116zM204 635q-5 -3 -23.5 -18t-40.5 -32.5t-41 -32t-23 -17.5l-45 40l141 152h71l135 -150l-46 -42z" />
    <glyph glyph-name="Zacute" unicode="&#x179;" horiz-adv-x="434" 
d="M26 0v102l253 490h-242v104h372v-97l-253 -491h253v-108h-383zM143 780l159 124l69 -80l-185 -98z" />
    <glyph glyph-name="zacute" unicode="&#x17a;" horiz-adv-x="389" 
d="M28 0v96l203 302h-189v97h318v-92l-203 -301h203v-102h-332zM153 571l82 184l98 -37l-116 -175z" />
    <glyph glyph-name="Zdotaccent" unicode="&#x17b;" horiz-adv-x="434" 
d="M26 0v102l253 490h-242v104h372v-97l-253 -491h253v-108h-383zM174 750v108h106v-108h-106z" />
    <glyph glyph-name="zdotaccent" unicode="&#x17c;" horiz-adv-x="389" 
d="M28 0v96l203 302h-189v97h318v-92l-203 -301h203v-102h-332zM157 575v108h106v-108h-106z" />
    <glyph glyph-name="AEacute" unicode="&#x1fc;" horiz-adv-x="834" 
d="M797 696v-106h-274v-186h235v-104h-235v-191h274v-109h-388v171h-189q-6 -12 -17 -35.5t-22.5 -50t-22.5 -50t-17 -35.5h-124q14 29 40 84t57.5 122.5t66 141.5t66 141.5t57.5 122.5t40 84h453zM406 589q-11 -22 -30 -65.5t-40.5 -91.5t-41 -91.5t-29.5 -65.5h144v314h-3
zM457 780l159 124l69 -80l-185 -98z" />
    <glyph glyph-name="aeacute" unicode="&#x1fd;" horiz-adv-x="699" 
d="M652 92q-23 -50 -67 -73.5t-99 -23.5q-105 0 -150 63q-23 -24 -46.5 -36.5t-44.5 -18.5t-38.5 -7t-29.5 -1q-73 0 -108 41t-35 107q0 32 10 60t31 48.5t53 32.5t76 12h86v40q0 26 -18.5 43.5t-55.5 17.5q-25 0 -49.5 -8t-35.5 -32q-21 12 -41.5 25t-40.5 26
q23 48 67.5 70t101.5 22q43 0 79.5 -9.5t59.5 -38.5q40 49 121 49q54 0 90 -18.5t57 -51t29.5 -77t8.5 -97.5v-44h-259q0 -26 3 -47.5t11.5 -37t24 -24.5t39.5 -9q50 0 79 47zM311 571l82 184l98 -37l-116 -175zM290 212h-79q-34 0 -52.5 -15.5t-18.5 -45.5q0 -24 16.5 -41
t54.5 -17q33 0 56 16.5t23 53.5v49zM551 295q0 47 -17 75.5t-57 28.5q-20 0 -33.5 -8t-22 -22t-12 -33t-4.5 -41h146z" />
    <glyph glyph-name="Oslash" unicode="&#xd8;" horiz-adv-x="516" 
d="M471 211q0 -50 -15.5 -90t-44 -68.5t-67.5 -43.5t-86 -15t-82 12t-61 34l-28 -50l-48 31l37 67q-17 29 -24.5 63t-7.5 72v263q0 37 11.5 75t37 69t66 51t99.5 20q42 0 75.5 -11.5t58.5 -31.5l24 43l50 -30l-32 -57q19 -29 28 -62t9 -66v-275zM355 471l-181 -324
q12 -20 32.5 -32t52.5 -12q39 0 67.5 26.5t28.5 72.5v269zM258 591q-29 0 -48.5 -10.5t-31 -26t-16.5 -33.5t-5 -34l1 -252l176 319q-11 16 -29.5 26.5t-46.5 10.5z" />
    <glyph glyph-name="oslash" unicode="&#xf8;" horiz-adv-x="449" 
d="M228 502q33 0 58 -7t45 -20l21 35l40 -22l-27 -45q6 -7 10.5 -14.5t9.5 -15.5q14 -28 19 -73.5t5 -93.5q0 -40 -5 -84t-16 -71q-11 -28 -28.5 -46.5t-40 -30t-48.5 -16.5t-53 -5q-32 0 -58 7t-46 20l-18 -31l-38 22l23 40q-3 4 -5.5 7.5t-4.5 7.5q-18 29 -25.5 75
t-7.5 104q0 45 4.5 87.5t15.5 68.5q20 47 62 74t108 27zM299 254q0 20 -1 38t-3 33l-124 -209q18 -21 52 -21q23 0 42 11.5t27 45.5q4 14 5.5 41t1.5 61zM226 400q-22 0 -40 -11t-26 -34q-7 -18 -9.5 -47.5t-2.5 -67.5q0 -20 0.5 -37.5t2.5 -33.5l123 209q-18 22 -48 22z
" />
    <glyph glyph-name="Oslashacute" unicode="&#x1fe;" horiz-adv-x="516" 
d="M471 211q0 -50 -15.5 -90t-44 -68.5t-67.5 -43.5t-86 -15t-82 12t-61 34l-28 -50l-48 31l37 67q-17 29 -24.5 63t-7.5 72v263q0 37 11.5 75t37 69t66 51t99.5 20q42 0 75.5 -11.5t58.5 -31.5l24 43l50 -30l-32 -57q19 -29 28 -62t9 -66v-275zM355 471l-181 -324
q12 -20 32.5 -32t52.5 -12q39 0 67.5 26.5t28.5 72.5v269zM258 591q-29 0 -48.5 -10.5t-31 -26t-16.5 -33.5t-5 -34l1 -252l176 319q-11 16 -29.5 26.5t-46.5 10.5zM173 780l159 124l69 -80l-185 -98z" />
    <glyph glyph-name="oslashacute" unicode="&#x1ff;" horiz-adv-x="449" 
d="M228 502q33 0 58 -7t45 -20l21 35l40 -22l-27 -45q6 -7 10.5 -14.5t9.5 -15.5q14 -28 19 -73.5t5 -93.5q0 -40 -5 -84t-16 -71q-11 -28 -28.5 -46.5t-40 -30t-48.5 -16.5t-53 -5q-32 0 -58 7t-46 20l-18 -31l-38 22l23 40q-3 4 -5.5 7.5t-4.5 7.5q-18 29 -25.5 75
t-7.5 104q0 45 4.5 87.5t15.5 68.5q20 47 62 74t108 27zM172 571l82 184l98 -37l-116 -175zM299 254q0 20 -1 38t-3 33l-124 -209q18 -21 52 -21q23 0 42 11.5t27 45.5q4 14 5.5 41t1.5 61zM226 400q-22 0 -40 -11t-26 -34q-7 -18 -9.5 -47.5t-2.5 -67.5q0 -20 0.5 -37.5
t2.5 -33.5l123 209q-18 22 -48 22z" />
    <glyph glyph-name="paragraph" unicode="&#xb6;" horiz-adv-x="499" 
d="M191 315h-2q-44 2 -74.5 19.5t-49.5 44t-27.5 59t-8.5 65.5q0 32 8.5 67t29.5 64.5t56 48.5t87 19h51t53.5 -0.5t63.5 -0.5h81v-80h-40v-696h-82v696h-63v-696h-83v390z" />
    <glyph glyph-name="cent" unicode="&#xa2;" horiz-adv-x="465" 
d="M220 -107v103q-48 4 -80 24.5t-50.5 54t-26.5 78.5t-8 98q0 52 9 95.5t29 76t51 52.5t76 25v91h39v-91q53 -3 91.5 -30t57.5 -72q-23 -13 -46 -25l-46 -24q-20 43 -57 48v-301q20 3 33.5 15.5t23.5 31.5l93 -47q-19 -45 -58 -71t-92 -29v-103h-39zM166 250q0 -59 11 -98
t43 -51v293q-34 -12 -44 -50.5t-10 -93.5z" />
    <glyph glyph-name="currency" unicode="&#xa4;" horiz-adv-x="545" 
d="M33 497l62 63l67 -67q50 32 105 32q56 0 106 -31l66 67q15 -17 30.5 -32t31.5 -31l-67 -66q15 -25 23.5 -50t8.5 -51q0 -58 -32 -110q17 -15 34 -32t33 -32l-63 -64q-17 17 -33 33.5t-32 33.5q-52 -32 -107 -32q-56 0 -106 32l-66 -67q-30 32 -62 62l67 66
q-17 25 -23.5 51.5t-6.5 54.5q0 51 31 104zM153 326q0 -23 8.5 -43t23.5 -35t34.5 -24t41.5 -9q25 0 46.5 8.5t37.5 23.5t25.5 35.5t9.5 44.5t-9 45t-24.5 36t-36 23.5t-44.5 8.5q-23 0 -43.5 -9t-36 -24t-24.5 -36t-9 -45z" />
    <glyph glyph-name="afii10023" unicode="&#x401;" horiz-adv-x="473" 
d="M63 0v696h387v-106h-273v-186h235v-104h-235v-191h273v-109h-387zM292 742v108h106v-108h-106zM110 742v108h108v-108h-108z" />
    <glyph glyph-name="afii10051" unicode="&#x402;" horiz-adv-x="619" 
d="M269 416q27 25 64.5 39.5t71.5 14.5q47 0 79 -15.5t52 -45.5t28.5 -74t8.5 -100q0 -63 -12 -110.5t-39 -79t-70 -46t-105 -12.5v91q37 3 59 16t33.5 33.5t15 46.5t3.5 56q0 29 -3 54t-12.5 43t-26.5 28.5t-44 10.5q-33 0 -61.5 -16t-44.5 -38v-312h-114v593h-147v102h452
v-102h-191v-177h3z" />
    <glyph glyph-name="afii10052" unicode="&#x403;" horiz-adv-x="461" 
d="M177 590v-590h-114v696h383v-106h-269zM165 780l159 124l69 -80l-185 -98z" />
    <glyph glyph-name="afii10053" unicode="&#x404;" horiz-adv-x="492" 
d="M466 151q-16 -74 -70 -115.5t-135 -41.5q-106 0 -160 60t-54 160v274q0 48 15 87.5t42.5 67.5t67 43t89.5 15q84 0 138 -42.5t68 -113.5q-28 -8 -55 -17t-54 -17q-8 36 -31 57t-62 21q-51 0 -77.5 -29.5t-26.5 -71.5v-85h190v-104h-190v-84q0 -21 5 -41t17 -36t30.5 -26
t45.5 -10q40 0 65 22t32 60z" />
    <glyph glyph-name="afii10054" unicode="&#x405;" horiz-adv-x="504" 
d="M474 198q0 -95 -58 -149.5t-164 -54.5q-84 0 -139 33.5t-86 86.5l94 68q23 -36 55 -57.5t78 -21.5q55 0 77.5 26.5t22.5 65.5q0 24 -9 41t-25 29.5t-39 21.5t-50 17q-50 16 -85 34t-57.5 41.5t-32.5 54t-10 69.5q0 43 15 79.5t43 63t66.5 41t86.5 14.5q78 0 126.5 -26
t77.5 -71l-87 -73q-23 32 -52 47t-67 15q-45 0 -69 -24.5t-24 -61.5q0 -21 11 -36.5t30 -27.5t45 -21.5t55 -18.5q49 -15 81.5 -34.5t52.5 -44.5t28.5 -56t8.5 -70z" />
    <glyph glyph-name="afii10055" unicode="&#x406;" horiz-adv-x="243" 
d="M64 0v696h115v-696h-115z" />
    <glyph glyph-name="afii10056" unicode="&#x407;" horiz-adv-x="243" 
d="M64 0v696h115v-696h-115zM157 754v108h107v-108h-107zM-24 754v108h106v-108h-106z" />
    <glyph glyph-name="afii10057" unicode="&#x408;" horiz-adv-x="421" 
d="M359 190q0 -52 -15.5 -89t-42.5 -60.5t-63 -34.5t-76 -11q-51 0 -93.5 18.5t-73.5 60.5l80 73q16 -23 39.5 -34t44.5 -11q38 0 62 22.5t24 68.5v503h114v-506z" />
    <glyph glyph-name="afii10058" unicode="&#x409;" horiz-adv-x="792" 
d="M115 696h346v-276h104q55 0 94 -15.5t64 -43t37 -65t12 -80.5q0 -106 -56.5 -161t-154.5 -55h-215v591h-126v-258q0 -83 -9 -143t-30 -101.5t-56 -66.5t-88 -37l-31 90q31 13 52 30t34 44t18 67.5t5 100.5v379zM657 213q0 47 -22.5 74.5t-76.5 27.5h-97v-209h97
q52 0 75.5 29.5t23.5 77.5z" />
    <glyph glyph-name="afii10059" unicode="&#x40a;" horiz-adv-x="791" 
d="M346 0v309h-171v-309h-115v696h115v-281h171v281h115v-281h100q55 0 94.5 -14.5t65.5 -41t38.5 -63.5t12.5 -82q0 -107 -56.5 -160.5t-154.5 -53.5h-215zM556 106q53 0 77 28t24 76q0 47 -24 73t-78 26h-95v-203h96z" />
    <glyph glyph-name="afii10060" unicode="&#x40b;" horiz-adv-x="624" 
d="M457 0v265q0 21 -3 39.5t-12 32t-25 21.5t-42 8q-29 0 -56.5 -14.5t-47.5 -37.5v-314h-115v593h-147v103h459v-103h-197v-173l3 -2q31 26 67 39.5t71 13.5q81 0 120.5 -45.5t39.5 -118.5v-307h-115z" />
    <glyph glyph-name="afii10145" unicode="&#x40f;" horiz-adv-x="545" 
d="M483 696v-696h-158v-152h-103v152h-159v696h114v-588h192v588h114z" />
    <glyph glyph-name="afii10017" unicode="&#x410;" horiz-adv-x="526" 
d="M359 150h-193q-2 -9 -8 -30t-12.5 -45t-12 -45t-8.5 -30h-119l201 696h110l202 -696h-121zM227 392l-36 -140h142l-35 139q-2 9 -6.5 30t-10 44t-10.5 43.5t-6 29.5h-5z" />
    <glyph glyph-name="afii10018" unicode="&#x411;" horiz-adv-x="507" 
d="M172 106h96q53 0 76.5 28.5t23.5 77.5q0 47 -23.5 74.5t-77.5 27.5h-95v-208zM172 420h100q55 0 94.5 -15.5t65.5 -42.5t38.5 -64.5t12.5 -82.5q0 -107 -56.5 -161t-153.5 -54h-216v696h370v-106h-255v-170z" />
    <glyph glyph-name="afii10019" unicode="&#x412;" horiz-adv-x="524" 
d="M484 206q0 -100 -53.5 -153t-143.5 -53h-224v696h213q99 0 148.5 -51t49.5 -139q0 -44 -18.5 -81t-66.5 -59v-5q25 -8 43 -23.5t29.5 -36.5t17 -45.5t5.5 -49.5zM362 502q0 42 -22.5 66t-72.5 24h-90v-182h91q49 0 71.5 25.5t22.5 66.5zM372 213q0 44 -22 71t-73 27h-100
v-202h101q27 0 45 8t29 22.5t15.5 33.5t4.5 40z" />
    <glyph glyph-name="afii10020" unicode="&#x413;" horiz-adv-x="461" 
d="M177 590v-590h-114v696h383v-106h-269z" />
    <glyph glyph-name="afii10021" unicode="&#x414;" horiz-adv-x="608" 
d="M113 -143h-99v237q13 2 25 4.5t25 5.5q22 19 34.5 44t20 61.5t10.5 86t5 116.5l10 284h384q0 -149 0.5 -297t0.5 -297h55v-245h-99v143h-372v-143zM416 102v490h-172l-8 -209q-2 -45 -4 -87t-6.5 -78t-12.5 -65.5t-22 -50.5h225z" />
    <glyph glyph-name="afii10022" unicode="&#x415;" horiz-adv-x="473" 
d="M63 0v696h387v-106h-273v-186h235v-104h-235v-191h273v-109h-387z" />
    <glyph glyph-name="afii10025" unicode="&#x417;" horiz-adv-x="489" 
d="M22 155q9 3 23.5 7.5t30.5 10t30.5 10.5t23.5 8q8 -43 37 -66.5t69 -23.5q45 0 70.5 29t25.5 78q0 22 -4.5 41t-15.5 33.5t-29 23t-45 8.5h-54v97h55q42 0 66 25t24 72q0 38 -23 61.5t-65 23.5q-41 0 -67.5 -24t-36.5 -62l-105 38q17 72 71.5 114.5t139.5 42.5
q97 0 149 -47t52 -138q0 -17 -3.5 -39t-12 -43.5t-24 -40t-39.5 -28.5v-4q25 -10 41.5 -27.5t26.5 -39.5t13.5 -45.5t3.5 -45.5q0 -52 -15.5 -91t-44 -65.5t-68 -40t-87.5 -13.5q-86 0 -142.5 42t-70.5 119z" />
    <glyph glyph-name="afii10026" unicode="&#x418;" horiz-adv-x="576" 
d="M61 0v696h113v-466q1 0 1.5 -0.5t1.5 -0.5q23 43 43.5 86t41.5 86q38 74 75 147t74 148h106v-696h-114v454h-2q-17 -33 -34 -67t-34 -67l-164 -320h-108z" />
    <glyph glyph-name="afii10029" unicode="&#x41b;" horiz-adv-x="561" 
d="M223 332q0 -83 -8.5 -143.5t-30 -102t-57.5 -66t-90 -35.5l-31 89q32 13 53.5 30.5t34.5 44.5t18.5 67t5.5 100v380h376v-696h-113v590h-158v-258z" />
    <glyph glyph-name="afii10030" unicode="&#x41c;" horiz-adv-x="669" 
d="M499 0v407h-4l-51 -130l-66 -152h-81l-68 157l-50 126l-4 -1v-407h-114v696h109l98 -228l68 -168h4l67 169l96 227h110v-696h-114z" />
    <glyph glyph-name="afii10031" unicode="&#x41d;" horiz-adv-x="550" 
d="M373 0v301h-196v-301h-115v696h115v-292h196v292h114v-696h-114z" />
    <glyph glyph-name="afii10032" unicode="&#x41e;" horiz-adv-x="516" 
d="M471 211q0 -50 -15.5 -90t-44 -68.5t-67.5 -43.5t-86 -15q-57 0 -98 18.5t-66.5 50t-37.5 73t-12 87.5v263q0 37 11.5 75t37 69t66 51t99.5 20q55 0 95 -19t66.5 -49.5t39 -69t12.5 -77.5v-275zM355 488q0 13 -4.5 30.5t-15.5 33.5t-29.5 27.5t-47.5 11.5t-48.5 -10.5
t-31 -26t-16.5 -33.5t-5 -34l1 -266q0 -50 23 -84t78 -34q39 0 67.5 26.5t28.5 72.5v286z" />
    <glyph glyph-name="afii10033" unicode="&#x41f;" horiz-adv-x="543" 
d="M366 0v591h-189v-591h-114v696h417v-696h-114z" />
    <glyph glyph-name="afii10034" unicode="&#x420;" horiz-adv-x="502" 
d="M486 481q0 -45 -13 -84t-38.5 -68t-64.5 -45.5t-91 -16.5h-102v-267h-114v696h210q49 0 88 -13t67 -39.5t43 -67t15 -95.5zM373 483q0 52 -25 79.5t-76 27.5h-95v-216h96q51 0 75.5 29.5t24.5 79.5z" />
    <glyph glyph-name="afii10035" unicode="&#x421;" horiz-adv-x="492" 
d="M466 148q-17 -73 -72 -113.5t-133 -40.5q-54 0 -94 17t-67 47t-40 70.5t-13 87.5v270q0 41 13 80t39.5 69t66.5 48t95 18q84 0 136.5 -44t69.5 -110l-109 -36q-3 15 -10 29t-19 25.5t-29 18.5t-39 7q-26 0 -44.5 -9t-30.5 -23.5t-18 -32.5t-6 -36v-277q0 -22 6 -42
t18.5 -35t31 -23.5t43.5 -8.5q37 0 63 21t33 58z" />
    <glyph glyph-name="afii10036" unicode="&#x422;" horiz-adv-x="431" 
d="M271 592v-592h-114v592h-153v104h421v-104h-154z" />
    <glyph glyph-name="afii10037" unicode="&#x423;" horiz-adv-x="480" 
d="M469 695q-44 -138 -86 -274.5t-87 -274.5q-16 -49 -34 -78.5t-38 -45t-43 -20.5t-50 -6h-56v94h41q21 0 36.5 11t29.5 43q2 6 5 12.5t5 14.5l-181 524h118l66 -215l50 -164h5q8 28 22.5 79t30.5 107.5t31 109t23 83.5h112v0z" />
    <glyph glyph-name="afii10038" unicode="&#x424;" horiz-adv-x="656" 
d="M272 58q-68 6 -112 29t-70 61.5t-36.5 91.5t-10.5 119q0 62 11.5 114.5t38.5 92t71 63.5t108 30v37h111v-37q64 -6 108 -29.5t71 -61.5t39 -90t12 -116q0 -66 -11 -119.5t-37 -92.5t-70.5 -62.5t-111.5 -29.5v-58h-111v58zM271 555q-65 -5 -90 -57t-25 -136
q0 -47 5.5 -83.5t18.5 -62t35.5 -39.5t55.5 -17v395zM384 160q67 5 91.5 55.5t24.5 147.5q0 85 -25.5 136t-90.5 56v-395z" />
    <glyph glyph-name="afii10039" unicode="&#x425;" horiz-adv-x="495" 
d="M131 0h-129q8 15 22.5 43.5t32.5 63.5t37.5 73t37 73t32 63.5t22.5 43.5l-172 336h130l102 -225l104 225h129l-173 -336l185 -360h-128l-116 247z" />
    <glyph glyph-name="afii10040" unicode="&#x426;" horiz-adv-x="567" 
d="M451 0h-389v696h115v-590h194v590h114v-591h64v-249h-98v144z" />
    <glyph glyph-name="afii10041" unicode="&#x427;" horiz-adv-x="529" 
d="M160 696v-198q0 -74 22.5 -103.5t73.5 -29.5q20 0 46.5 6.5t49.5 20.5v304h114v-696h-114v293q-26 -13 -58.5 -19.5t-64.5 -6.5q-90 0 -136 51t-46 168v210h113z" />
    <glyph glyph-name="afii10042" unicode="&#x428;" horiz-adv-x="781" 
d="M720 696v-696h-659v696h115v-590h157v590h115v-590h159v590h113z" />
    <glyph glyph-name="afii10043" unicode="&#x429;" horiz-adv-x="805" 
d="M685 0h-625v696h115v-590h157v590h115v-590h159v590h114v-591h64v-249h-99v144z" />
    <glyph glyph-name="afii10044" unicode="&#x42a;" horiz-adv-x="633" 
d="M191 0v590h-179v106h293v-275h102q55 0 94.5 -15.5t65 -42.5t37.5 -65t12 -83q0 -106 -56 -160.5t-154 -54.5h-215zM502 212q0 48 -23.5 75t-77.5 27h-96v-208h97q52 0 76 29t24 77z" />
    <glyph glyph-name="afii10045" unicode="&#x42b;" horiz-adv-x="724" 
d="M64 0v696h114v-276h102q55 0 94.5 -15t65 -42.5t37.5 -65t12 -82.5q0 -107 -56 -161t-154 -54h-215zM275 106q52 0 76 28.5t24 77.5q0 47 -23.5 74.5t-77.5 27.5h-96v-208h97zM548 0v696h114v-696h-114z" />
    <glyph glyph-name="afii10046" unicode="&#x42c;" horiz-adv-x="504" 
d="M488 215q0 -106 -56.5 -160.5t-154.5 -54.5h-215v696h115v-275h100q55 0 94.5 -15.5t65.5 -42.5t38.5 -65t12.5 -83zM373 212q0 48 -23.5 75t-77.5 27h-96v-208h97q52 0 76 29t24 77z" />
    <glyph glyph-name="afii10047" unicode="&#x42d;" horiz-adv-x="495" 
d="M152 408h177v76q0 20 -3.5 39.5t-14 35t-29 25t-47.5 9.5q-22 0 -39 -7.5t-29.5 -19.5t-20.5 -27.5t-11 -31.5l-108 35q8 34 25 63t43.5 50.5t61.5 33.5t79 12q62 0 102 -19.5t63.5 -51t33 -71.5t9.5 -80v-261q0 -47 -12.5 -87.5t-38.5 -71t-66.5 -48t-95.5 -17.5
q-81 0 -135 41.5t-70 116.5l110 34q7 -39 32.5 -62t62.5 -23q28 0 47 10t30 26.5t16 38t5 43.5v85h-177v104z" />
    <glyph glyph-name="afii10048" unicode="&#x42e;" horiz-adv-x="696" 
d="M447 701q54 0 92.5 -16t63 -44.5t36.5 -67t12 -83.5v-284q0 -102 -55 -157t-150 -55q-54 0 -92.5 16.5t-63 45.5t-36 69t-11.5 87v89h-72v-301h-114v696h114v-292h72v86q0 42 12 80.5t36.5 67.5t63 46t92.5 17zM446 592q-26 0 -43.5 -8.5t-28 -23t-15.5 -32t-5 -35.5
l1 -284q0 -48 21 -78t71 -30q40 0 65 24.5t25 72.5v295q0 16 -4.5 34t-15 32t-28 23.5t-43.5 9.5z" />
    <glyph glyph-name="afii10065" unicode="&#x430;" horiz-adv-x="444" 
d="M290 0v38l-4 2q-18 -24 -48 -34.5t-61 -10.5q-73 0 -108 41t-35 108q0 32 10 59.5t31 48t53 32.5t76 12h86v45q0 25 -17 42.5t-56 17.5q-27 0 -50 -9.5t-36 -34.5q-4 2 -16 9.5t-25.5 15.5t-25 15.5t-15.5 10.5q23 48 68 70t102 22q39 0 72 -7.5t57.5 -25.5t38.5 -47.5
t14 -73.5v-346h-111zM290 212h-79q-33 0 -51.5 -15.5t-18.5 -45.5q0 -23 16.5 -40t54.5 -17q32 0 55 16.5t23 53.5v48z" />
    <glyph glyph-name="afii10070" unicode="&#x435;" horiz-adv-x="444" 
d="M305 145q23 -12 45.5 -24t45.5 -25q-23 -50 -68 -75.5t-100 -25.5q-105 0 -148.5 62t-43.5 190q0 53 8.5 99t30 80.5t57.5 54.5t91 20q51 0 86 -17t57 -47t31.5 -71t9.5 -90v-58h-259q0 -24 3 -46.5t12 -39.5t24 -27t39 -10t44 13.5t35 36.5zM294 295q0 47 -16.5 75.5
t-56.5 28.5t-55 -30t-17 -74h145z" />
    <glyph glyph-name="afii10080" unicode="&#x43e;" horiz-adv-x="449" 
d="M228 502q64 0 101 -25.5t56 -63.5q14 -28 19 -73.5t5 -93.5q0 -40 -5 -84t-16 -71q-11 -28 -28.5 -46.5t-40 -30t-48.5 -16.5t-53 -5q-54 0 -90.5 20t-56.5 53q-18 29 -25.5 75t-7.5 104q0 45 4.5 87.5t15.5 68.5q20 47 62 74t108 27zM226 400q-22 0 -40 -11t-26 -34
q-7 -18 -9.5 -47.5t-2.5 -67.5q0 -29 1.5 -55t8.5 -45q17 -45 65 -45q23 0 42 11.5t27 45.5q4 14 5.5 41t1.5 61q0 30 -2 55.5t-8 42.5q-17 48 -63 48z" />
    <glyph glyph-name="afii10081" unicode="&#x43f;" horiz-adv-x="470" 
d="M305 0v405h-141v-405h-110v496h362v-496h-111z" />
    <glyph glyph-name="afii10082" unicode="&#x440;" horiz-adv-x="450" 
d="M159 453q19 25 45.5 36t54.5 11q52 0 82 -22.5t46 -59t20.5 -82t4.5 -90.5t-5.5 -90t-22 -81t-47.5 -58t-82 -22q-25 0 -51.5 11t-44.5 34q-1 0 -1.5 -0.5t-1.5 -0.5v-239h-110v695h110v-41q1 0 1.5 -0.5t1.5 -0.5zM227 100q24 0 38.5 12.5t22 33.5t10 47t2.5 53
q0 31 -2.5 58.5t-10 48t-21.5 32t-38 11.5q-26 0 -40.5 -13t-21.5 -35t-8.5 -49.5t-1.5 -56.5q0 -24 2 -49t9 -45.5t21 -34t39 -13.5z" />
    <glyph glyph-name="afii10083" unicode="&#x441;" horiz-adv-x="404" 
d="M220 501q58 0 101 -27t63 -76q-4 -3 -17.5 -10t-29 -14.5t-29 -14.5t-17.5 -10q-22 49 -67 49q-26 0 -42.5 -11t-25.5 -30.5t-12 -47t-3 -59.5q0 -33 3.5 -61.5t12.5 -48.5t25 -31.5t41 -11.5q24 0 40.5 13t27.5 34q4 -3 17.5 -9.5t29 -14.5t29 -14.5t18.5 -9.5
q-20 -48 -63 -74.5t-101 -26.5q-56 0 -93 19t-58.5 52.5t-30.5 80.5t-9 104q0 55 10.5 101t33 79t58.5 51.5t88 18.5z" />
    <glyph glyph-name="afii10085" unicode="&#x443;" horiz-adv-x="413" 
d="M230 -93q-17 -56 -53.5 -82t-87.5 -26h-37v95h26q44 0 60 61l18 64l-155 476h118l48 -179l39 -152h4l38 152l48 179h116z" />
    <glyph glyph-name="afii10087" unicode="&#x445;" horiz-adv-x="432" 
d="M298 0l-83 166l-83 -166h-126l149 253q-36 60 -71.5 120.5t-71.5 121.5h127l76 -158h1l76 158h125l-143 -243l150 -252h-126z" />
    <glyph glyph-name="afii10071" unicode="&#x451;" horiz-adv-x="444" 
d="M305 145q23 -12 45.5 -24t45.5 -25q-23 -50 -68 -75.5t-100 -25.5q-105 0 -148.5 62t-43.5 190q0 53 8.5 99t30 80.5t57.5 54.5t91 20q51 0 86 -17t57 -47t31.5 -71t9.5 -90v-58h-259q0 -24 3 -46.5t12 -39.5t24 -27t39 -10t44 13.5t35 36.5zM294 295q0 47 -16.5 75.5
t-56.5 28.5t-55 -30t-17 -74h145zM262 582v108h107v-108h-107zM81 582v108h106v-108h-106z" />
    <glyph glyph-name="afii10102" unicode="&#x455;" horiz-adv-x="424" 
d="M395 147q0 -69 -49 -111t-135 -42q-66 0 -111 23.5t-74 73.5l82 60q34 -59 102 -59q34 0 53.5 15t19.5 41q0 27 -18.5 38t-51.5 19q-35 8 -66.5 18.5t-55.5 27t-38.5 41.5t-14.5 61q0 34 13.5 61.5t36.5 46.5t55 29t69 10q67 0 107.5 -22.5t65.5 -61.5l-74 -64
q-33 51 -96 51q-37 0 -51.5 -15.5t-14.5 -33.5q0 -12 7.5 -20.5t20.5 -14.5t29 -10.5t33 -8.5q34 -8 63 -18.5t49.5 -28t32 -43.5t11.5 -63z" />
    <glyph glyph-name="afii10103" unicode="&#x456;" horiz-adv-x="225" 
d="M57 592v104h111v-104h-111zM57 0v495h111v-495h-111z" />
    <glyph glyph-name="afii10104" unicode="&#x457;" horiz-adv-x="225" 
d="M151 575v108h107v-108h-107zM-30 575v108h106v-108h-106zM57 0v495h111v-495h-111z" />
    <glyph glyph-name="afii10105" unicode="&#x458;" horiz-adv-x="233" 
d="M173 -58q0 -66 -40.5 -104.5t-112.5 -38.5h-31v100h22q29 1 40 20.5t11 49.5v527h111v-554zM62 592v104h111v-104h-111z" />
    <glyph glyph-name="afii10110" unicode="&#x45e;" horiz-adv-x="413" 
d="M230 -93q-17 -56 -53.5 -82t-87.5 -26h-37v95h26q44 0 60 61l18 64l-155 476h118l48 -179l39 -152h4l38 152l48 179h116zM217 557q-42 0 -70.5 15t-46 37t-25.5 48t-9 48h86q1 -11 5.5 -22.5t13 -21.5t20 -16.5t26.5 -6.5q16 0 28 6.5t20 16.5t12 21.5t4 22.5h85
q-2 -22 -10.5 -48t-25.5 -48t-45 -37t-68 -15z" />
    <glyph glyph-name="afii10050" unicode="&#x490;" horiz-adv-x="461" 
d="M177 590v-590h-114v696h287v118h96v-224h-269z" />
    <glyph glyph-name="afii10067" unicode="&#x432;" horiz-adv-x="442" 
d="M410 151q0 -38 -13 -66.5t-35.5 -47t-54 -28t-68.5 -9.5h-190v495h187q85 0 125.5 -37t40.5 -101q0 -31 -13.5 -58t-45.5 -41q36 -14 51.5 -44t15.5 -63zM158 215v-119h71q32 0 51.5 15.5t19.5 46.5q0 26 -16.5 41.5t-51.5 15.5h-74zM158 403v-107h66q31 0 49.5 11.5
t18.5 42.5q0 27 -18.5 40t-49.5 13h-66z" />
    <glyph glyph-name="afii10068" unicode="&#x433;" horiz-adv-x="389" 
d="M158 398v-398h-109v495h330v-97h-221z" />
    <glyph glyph-name="afii10069" unicode="&#x434;" horiz-adv-x="519" 
d="M113 -131h-96v220l46 9q14 15 23 28.5t14.5 32.5t9 46t6.5 68q3 56 6 111t5 111h322v-398h50v-228h-96v131h-290v-131zM340 398h-118l-5 -118q-3 -63 -11.5 -111t-22.5 -72h157v301z" />
    <glyph glyph-name="afii10074" unicode="&#x438;" horiz-adv-x="500" 
d="M334 291l-53 -87l-127 -204h-101v494h109v-307h2q13 22 25.5 43.5t26.5 43.5q32 56 65 110.5t65 109.5h101v-494h-110v291h-3z" />
    <glyph glyph-name="afii10077" unicode="&#x43b;" horiz-adv-x="469" 
d="M8 70q28 12 45.5 24.5t27 34t12.5 55.5t3 88v223h322v-495h-110v398h-111v-117q0 -76 -8 -128.5t-27 -86.5t-50 -52.5t-77 -26.5z" />
    <glyph glyph-name="afii10078" unicode="&#x43c;" horiz-adv-x="565" 
d="M286 227l57 119l75 149h102v-495h-110v267h-1l-34 -72l-53 -109h-74l-49 98q-3 6 -14 30.5t-25 50.5h-1v-265h-110v495h102l15.5 -31l22 -44l22 -44l15.5 -31q4 -8 12 -24.5t17 -34.5t17 -34.5t13 -24.5h1z" />
    <glyph glyph-name="afii10079" unicode="&#x43d;" horiz-adv-x="462" 
d="M304 0v207h-146v-207h-109v495h109v-201h146v201h109v-495h-109z" />
    <glyph glyph-name="afii10084" unicode="&#x442;" horiz-adv-x="367" 
d="M236 403v-403h-108v403h-125v92h360v-92h-127z" />
    <glyph glyph-name="afii10086" unicode="&#x444;" horiz-adv-x="582" 
d="M236 -7q-57 3 -98.5 22t-64.5 54q-20 30 -27.5 72.5t-7.5 96.5q0 45 4.5 85t17.5 69q20 48 66.5 77t109.5 31v208h107q0 -52 0.5 -103.5t0.5 -104.5q65 -2 107.5 -27.5t63.5 -68.5q16 -32 21.5 -72.5t5.5 -86.5q0 -57 -9 -100.5t-30 -74.5q-26 -38 -67 -55.5t-92 -21.5
v-187h-108v187zM236 398q-26 -3 -46 -15.5t-30 -37.5q-7 -17 -9.5 -45t-2.5 -63q0 -29 2.5 -54t9.5 -42q20 -46 76 -48v305zM343 93q61 3 79 57q6 17 7.5 39.5t1.5 48.5q0 36 -1.5 64.5t-8.5 45.5q-9 26 -29.5 37t-48.5 13v-305z" />
    <glyph glyph-name="afii10088" unicode="&#x446;" horiz-adv-x="491" 
d="M416 495v-395h59v-231h-96v131h-327v495h110v-395h144v395h110z" />
    <glyph glyph-name="afii10089" unicode="&#x447;" horiz-adv-x="437" 
d="M283 202q-26 -13 -57.5 -20t-54.5 -7q-72 0 -106 39t-34 124v157h111v-155q0 -36 15.5 -51.5t47.5 -15.5q15 0 37 5.5t41 16.5v200h109v-495h-109v202z" />
    <glyph glyph-name="afii10090" unicode="&#x448;" horiz-adv-x="687" 
d="M635 495v-495h-582v495h109v-394h127v394h109v-394h129v394h108z" />
    <glyph glyph-name="afii10091" unicode="&#x449;" horiz-adv-x="713" 
d="M634 495v-395h59v-227h-96v127h-545v495h109v-395h127v395h110v-395h128v395h108z" />
    <glyph glyph-name="afii10092" unicode="&#x44a;" horiz-adv-x="534" 
d="M341 95q38 0 54.5 18.5t16.5 46.5q0 24 -15 43.5t-55 19.5l-74 1v-129h73zM11 400v95h257v-177h76q49 0 82.5 -12.5t54 -33.5t29.5 -49t9 -60q0 -76 -45 -119.5t-127 -43.5h-189v400h-147z" />
    <glyph glyph-name="afii10093" unicode="&#x44b;" horiz-adv-x="617" 
d="M455 0v495h110v-495h-110zM158 94h73q39 0 55 19t16 46q0 25 -15 44.5t-55 19.5q-19 0 -37 0.5t-37 0.5v-130zM49 0v495h110v-178h76q48 0 81.5 -12t54 -33t29.5 -49.5t9 -60.5q0 -75 -45 -118.5t-126 -43.5h-189z" />
    <glyph glyph-name="afii10094" unicode="&#x44c;" horiz-adv-x="425" 
d="M157 94h73q39 0 55 19t16 46q0 25 -15 44.5t-55 19.5q-19 0 -37 0.5t-37 0.5v-130zM48 0v495h110v-178h76q48 0 81.5 -12t54 -33t29.5 -49.5t9 -60.5q0 -75 -45 -118.5t-126 -43.5h-189z" />
    <glyph glyph-name="afii10095" unicode="&#x44d;" horiz-adv-x="406" 
d="M117 294h141q-2 23 -6 42.5t-13.5 33.5t-24.5 21.5t-38 7.5q-20 0 -39.5 -12.5t-30.5 -37.5q-7 3 -18.5 9.5t-24.5 13.5t-24.5 14t-18.5 10q21 49 65 76.5t99 27.5q102 0 145.5 -66t42.5 -184q0 -57 -10 -103.5t-33 -80.5t-61 -52.5t-93 -18.5q-58 0 -99.5 27.5
t-60.5 75.5l91 45q9 -22 28 -34t42 -12q22 0 37 9t24.5 24.5t14 36t6.5 44.5h-141v83z" />
    <glyph glyph-name="afii10096" unicode="&#x44e;" horiz-adv-x="618" 
d="M399 500q68 0 109.5 -31t54.5 -85q3 -11 5.5 -23t4 -27t2.5 -34.5t1 -45.5q0 -35 -1.5 -60t-3.5 -43.5t-5.5 -31.5t-7.5 -23q-20 -54 -63 -78t-102 -24q-47 0 -80 14.5t-56 42.5t-32 70t-10 86h-52v-207h-110v494h110v-200h53l5 60q5 28 12 45q20 47 63 74t103 27z
M398 398q-22 0 -38 -11t-25 -30q-4 -9 -6.5 -22.5t-3.5 -29.5t-1.5 -32.5t-0.5 -29.5q0 -41 2 -64.5t10 -43.5q8 -18 23.5 -28.5t38.5 -10.5t41 13.5t25 45.5q3 26 4 48.5t1 51.5q0 12 -0.5 26.5t-2 29t-3.5 26.5t-5 19q-8 20 -22 31t-37 11z" />
    <glyph glyph-name="afii10101" unicode="&#x454;" horiz-adv-x="405" 
d="M297 143q23 -13 46 -24.5t46 -23.5q-21 -47 -63 -73.5t-99 -26.5t-95 18.5t-60.5 52t-32 81t-9.5 105.5q0 120 48 184.5t148 64.5q58 0 99.5 -26.5t61.5 -74.5l-88 -48q-12 23 -30.5 35t-40.5 12q-43 0 -61 -27t-22 -78h141v-83h-142q4 -52 22 -83t61 -31q23 0 41 12
t29 34z" />
    <glyph glyph-name="afii10098" unicode="&#x491;" horiz-adv-x="389" 
d="M159 0h-110v494h238v109h92v-205h-220v-398z" />
    <glyph glyph-name="afii10106" unicode="&#x459;" horiz-adv-x="666" 
d="M286 397h-86v-162q0 -120 -39 -177t-123 -71q-2 5 -6 17t-8 25t-7.5 25t-5.5 17q26 10 43 22t27.5 30t14.5 45t4 68v259h297v-177h76q49 0 82.5 -12.5t54 -33.5t29.5 -49t9 -60q0 -74 -42.5 -118.5t-132.5 -44.5h-187v397zM538 160q0 24 -15.5 42t-55.5 18h-70v-121h71
q37 0 53.5 17.5t16.5 43.5z" />
    <glyph glyph-name="afii10107" unicode="&#x45a;" horiz-adv-x="663" 
d="M644 163q0 -75 -43 -119t-132 -44h-186v220h-125v-220h-109v495h109v-180h125v180h110v-180h75q49 0 82.5 -12t54.5 -32.5t30 -48.5t9 -59zM536 159q0 28 -16 44.5t-56 16.5h-72v-125h73q39 0 55 18.5t16 45.5z" />
    <glyph glyph-name="afii10073" unicode="&#x437;" horiz-adv-x="410" 
d="M306 256q39 -17 53 -44.5t14 -64.5q0 -73 -49 -112.5t-132 -39.5q-135 0 -176 99l86 45q9 -23 34 -35.5t55 -12.5q32 0 51.5 16.5t19.5 44.5q0 32 -18.5 47t-47.5 15h-55v82h59q28 0 43 15t15 41q0 23 -17 37t-47 14q-26 0 -50 -12.5t-36 -33.5l-78 48q20 46 65 70.5
t103 24.5q85 0 127.5 -36.5t42.5 -103.5q0 -27 -13.5 -57t-48.5 -47z" />
    <glyph glyph-name="afii10108" unicode="&#x45b;" horiz-adv-x="460" 
d="M301 0v318q0 37 -18.5 56.5t-50.5 19.5t-52 -20t-20 -58v-316h-110v573h-50v71h50v82h110v-82h158v-71h-158v-125h4q19 23 47 37.5t59 14.5q64 0 103 -41t39 -111v-348h-111z" />
    <glyph glyph-name="afii10099" unicode="&#x452;" horiz-adv-x="490" 
d="M174 440q20 26 51 40t63 14q49 0 84 -21t51 -63q13 -29 18 -72t5 -95q0 -50 -7 -93t-23 -73q-21 -41 -67.5 -66t-114.5 -20v92q29 1 52 12t34 38q8 20 10.5 48t2.5 61q0 45 -4.5 72t-11.5 40q-8 17 -23 27t-40 10q-23 0 -39 -10.5t-26 -27.5t-14 -40.5t-4 -48.5v-264
h-110v567h-58v73h58v86h110v-86h171v-73h-171v-127h3z" />
    <glyph glyph-name="afii10066" unicode="&#x431;" horiz-adv-x="447" 
d="M246 477q48 0 78 -17t50 -47q20 -31 28 -78t8 -98q0 -59 -9 -97.5t-29 -67.5q-23 -44 -65 -61.5t-90 -17.5q-55 0 -90 18.5t-55 49.5q-21 32 -28 85t-7 125q0 20 1 41t1.5 40t1.5 35t3 26q4 52 14.5 91.5t27.5 69t41.5 50.5t58.5 37q18 9 35.5 16t37 14t42.5 15.5
t54 20.5l35 -81q-23 -11 -42 -19t-35 -14.5t-30 -12.5t-29 -12q-53 -24 -77.5 -57.5t-28.5 -92.5l2 -1q21 22 48.5 31t47.5 9zM225 376q-20 0 -36 -9t-26 -29q-8 -16 -11.5 -42t-3.5 -68q0 -28 2 -50.5t9 -39.5q8 -20 24 -31.5t42 -11.5q23 0 40 11.5t25 34.5q6 15 8 39
t2 52q0 31 -2.5 58.5t-7.5 41.5q-8 22 -23.5 33t-41.5 11z" />
    <glyph glyph-name="afii10193" unicode="&#x45f;" horiz-adv-x="464" 
d="M414 495v-495h-132v-137h-100v137h-130v495h109v-394h145v394h108z" />
    <glyph glyph-name="zero.text" unicode="&#xe000;" horiz-adv-x="465" 
d="M412 169q0 -42 -14.5 -74t-39.5 -54.5t-57.5 -34t-68.5 -11.5t-68.5 11.5t-57 34t-39 54.5t-14.5 74v357q0 42 14.5 74.5t39.5 55t57 34t68 11.5t69 -11.5t57.5 -34t39 -55t14.5 -74.5v-357zM301 526q0 33 -19 51.5t-50 18.5t-50 -18.5t-19 -51.5v-356q0 -34 19 -52
t50 -18t50 18t19 52v356z" />
    <glyph glyph-name="one.text" unicode="&#xe001;" horiz-adv-x="403" 
d="M171 0v572l-97 -72v119l103 77h104v-696h-110z" />
    <glyph glyph-name="two.text" unicode="&#xe002;" horiz-adv-x="465" 
d="M49 513q6 90 57 139t128 49q86 0 134 -45t48 -130q0 -40 -11.5 -76.5t-34.5 -72.5l-181 -271h221v-106h-359v99l225 335q14 21 19 44.5t5 43.5q0 28 -15 51t-52 23q-30 0 -50 -24t-23 -75z" />
    <glyph glyph-name="three.text" unicode="&#xe003;" horiz-adv-x="462" 
d="M325 362q27 -12 42.5 -28.5t24 -37.5t10.5 -45t2 -51q0 -45 -11.5 -82.5t-35.5 -65t-60 -42.5t-85 -15q-36 0 -67.5 10t-55.5 31t-39.5 53t-19.5 76l110 17q6 -83 73 -83q37 0 56.5 27t19.5 75q0 57 -19 85t-65 28h-43v93h44q44 0 62.5 24t18.5 69q0 17 -3.5 34.5
t-11.5 31t-21.5 22t-33.5 8.5q-33 0 -49.5 -21.5t-21.5 -64.5q-9 1 -23.5 3.5t-31 5t-31 5t-23.5 3.5q9 79 58 126.5t124 47.5q55 0 90 -16.5t55.5 -44t28.5 -63t8 -73.5q0 -19 -3.5 -40t-12.5 -40.5t-23.5 -36t-36.5 -25.5z" />
    <glyph glyph-name="four.text" unicode="&#xe004;" horiz-adv-x="465" 
d="M387 101v-101h-110v101h-251v97l194 498h116l-191 -491h132v176h110v-176h51v-104h-51z" />
    <glyph glyph-name="five.text" unicode="&#xe005;" horiz-adv-x="465" 
d="M174 434q22 20 47 26t45 6q46 0 75 -17t45.5 -46t22.5 -69t6 -86q0 -60 -9 -107t-30 -79.5t-56 -49.5t-88 -17q-39 0 -71.5 9.5t-56.5 30.5t-38 56t-17 86l111 7q2 -46 20 -65.5t52 -19.5q25 0 39 12t21 32.5t9 46t2 52.5q0 24 -2 46.5t-9 40t-20.5 28t-37.5 10.5
q-20 0 -38.5 -11t-29.5 -37h-99v377h339v-103h-236l2 -159h2z" />
    <glyph glyph-name="six.text" unicode="&#xe006;" horiz-adv-x="450" 
d="M216 400q10 5 23.5 7.5t24.5 2.5q33 0 58.5 -14t43.5 -39.5t27.5 -61t9.5 -78.5q0 -102 -44.5 -162t-141.5 -60q-90 0 -133 50.5t-43 156.5q0 47 8.5 87.5t23.5 74.5q5 12 17.5 40t28.5 63.5t33.5 74t32.5 71t25.5 55.5t12.5 28h121q-5 -12 -15.5 -35t-23 -52
t-26.5 -60.5t-26.5 -60.5t-23 -52t-16.5 -34zM223 317q-22 0 -36 -9t-22 -24t-11 -35.5t-3 -43.5q0 -52 14 -79t54 -27q38 0 54.5 27t16.5 87q-1 47 -14.5 75.5t-52.5 28.5z" />
    <glyph glyph-name="seven.text" unicode="&#xe007;" horiz-adv-x="415" 
d="M173 0h-115l204 591h-135v-87h-105v192h361v-98z" />
    <glyph glyph-name="eight.text" unicode="&#xe008;" horiz-adv-x="465" 
d="M419 200q0 -57 -15.5 -96t-42 -63.5t-60.5 -35t-70 -10.5q-38 0 -71.5 10.5t-59 35t-40.5 63.5t-15 96q0 54 16.5 97.5t58.5 63.5v2q-42 23 -55 59.5t-13 83.5q0 94 49.5 144.5t129.5 50.5q40 0 73.5 -11.5t57.5 -35.5t37 -60.5t13 -87.5q0 -47 -14 -84t-52 -59v-2
q22 -10 36 -26.5t22 -38t11.5 -46t3.5 -50.5zM232 596q-36 0 -52.5 -24.5t-16.5 -69.5q0 -51 17 -73t52 -22q70 0 70 98q0 44 -16.5 67.5t-53.5 23.5zM232 315q-36 0 -56 -26t-20 -80q0 -62 20.5 -86.5t55.5 -24.5q40 0 57.5 28.5t17.5 84.5q0 104 -75 104z" />
    <glyph glyph-name="nine.text" unicode="&#xe009;" horiz-adv-x="450" 
d="M226 296q-9 -5 -21.5 -7t-23.5 -2q-35 0 -61.5 14t-44 39.5t-26 60.5t-8.5 78q0 51 10.5 92.5t33 70t57.5 44t84 15.5q96 0 137 -54t41 -152q0 -46 -9.5 -89t-24.5 -75l-150 -331h-121l130 294zM224 379q38 0 52.5 29.5t15.5 80.5q0 51 -13.5 79.5t-53.5 28.5
q-38 0 -55 -26.5t-17 -89.5q0 -45 14.5 -73.5t56.5 -28.5z" />
    <glyph glyph-name="numbersign.text" unicode="&#xe00a;" horiz-adv-x="465" 
d="M8 288h86q1 6 3.5 24t6 38.5t6.5 38.5l4 24h-73v76h85l33 207h83l-33 -207h88q2 12 7 41.5t10.5 62t10 62t6.5 41.5h83l-35 -207h77v-76h-89l-20 -125h77v-76h-89q-2 -13 -7 -43l-10.5 -63t-10 -63t-6.5 -43h-83q2 13 7 43l10.5 63t10 63t6.5 43h-88q-2 -13 -7 -43
l-10.5 -63t-10 -63t-6.5 -43h-84l35 212h-73v76zM176 288h89l4 24t6.5 38.5t6.5 38.5l4 24h-89z" />
    <glyph glyph-name="dollar.text" unicode="&#xe00b;" horiz-adv-x="465" 
d="M441 198q0 -90 -46.5 -143t-134.5 -59v-95h-45v95q-69 4 -116 38t-76 88l91 58q18 -32 42.5 -52.5t58.5 -25.5v202q-45 16 -77.5 34.5t-54 42t-32 53t-10.5 68.5q0 40 12.5 74.5t35 60.5t54.5 42t72 20v72h45v-72q64 -5 106.5 -35.5t64.5 -72.5l-83 -62q-31 52 -88 61
v-181q51 -17 85.5 -37t55.5 -45t30.5 -57t9.5 -72zM327 194q0 38 -17.5 58.5t-49.5 34.5v-184q38 6 52.5 31t14.5 60zM153 505q0 -27 16 -45.5t46 -32.5v164q-30 -6 -46 -29.5t-16 -56.5z" />
    <glyph glyph-name="euro.text" unicode="&#xe00c;" horiz-adv-x="465" 
d="M451 151q-16 -74 -68.5 -115.5t-127.5 -41.5q-51 0 -89 17t-63 46.5t-37.5 70t-12.5 87.5v46h-39v63h39v47h-39v63h39v54q0 41 12 79.5t37 68t63 47.5t90 18q40 0 73 -12t58 -33t41.5 -49.5t23.5 -62.5l-105 -32q-3 14 -10 28.5t-18 26t-26.5 18.5t-36.5 7
q-25 0 -42.5 -9t-28.5 -23t-16 -32t-5 -36v-58h164v-63h-164v-47h164v-63h-164v-53q0 -44 22 -75t70 -31q36 0 60 22t32 58z" />
    <glyph glyph-name="florin.text" unicode="&#xe00d;" horiz-adv-x="426" 
d="M66 427h87q0 1 1.5 12t3 23t3 22.5t1.5 12.5q4 36 14 72t30 65t51 47t78 18q22 0 45 -4t41 -12l-23 -93q-18 8 -32.5 10t-28.5 2q-17 0 -28.5 -8.5t-19.5 -22.5t-13 -32.5t-7 -37.5l-10 -74h88v-93h-100l-27 -217q-6 -47 -16.5 -85.5t-29 -66t-46 -42.5t-66.5 -15
q-20 0 -47.5 5.5t-50.5 16.5l28 87q19 -8 31.5 -10.5t22.5 -2.5q31 0 45 28t21 85l27 217h-72z" />
    <glyph glyph-name="sterling.text" unicode="&#xe00e;" horiz-adv-x="438" 
d="M32 367h59q-5 23 -11.5 42.5t-12.5 38.5t-10 38t-4 40q0 37 12.5 69t36 55.5t57.5 37t77 13.5q70 0 120.5 -32t76.5 -107l-99 -42q-19 44 -41.5 60t-52.5 16q-24 0 -46.5 -19.5t-22.5 -55.5q0 -17 4.5 -34.5t10.5 -36t12.5 -39t11.5 -44.5h123v-84h-120q-2 -55 -12.5 -98
t-33.5 -85h252v-100h-386v88q24 37 41 73.5t22 82.5q2 9 2.5 18.5t1.5 20.5h-68v84z" />
    <glyph glyph-name="cent.text" unicode="&#xe00f;" horiz-adv-x="465" 
d="M219 -4q-48 4 -79.5 24.5t-50 54t-26.5 78.5t-8 98q0 51 9 94.5t28.5 76.5t50.5 53t76 25v91h39v-91q54 -3 93 -29.5t58 -72.5q-4 -3 -17.5 -10t-29 -14.5t-29 -14.5t-17.5 -10q-21 44 -58 48v-300q20 3 34 15.5t24 31.5q4 -3 17.5 -9.5t29 -14.5t29 -14.5t18.5 -9.5
q-20 -46 -59 -72t-93 -28v-103h-39v103zM166 250q0 -57 10.5 -96.5t42.5 -51.5v291q-33 -12 -43 -50.5t-10 -92.5z" />
    <glyph glyph-name="yen.text" unicode="&#xe010;" horiz-adv-x="465" 
d="M316 353h97v-63h-121l-5 -13v-47h126v-64h-126v-166h-109v166h-123v64h123v47l-5 13h-118v63h93l-138 343h118q15 -42 30.5 -83t29.5 -83l42 -128h5q11 32 21 64.5t21 64.5q15 42 29.5 82.5t28.5 82.5h119z" />
    <glyph glyph-name="zero.taboldstyle" unicode="&#xe024;" horiz-adv-x="465" 
d="M411 169q0 -42 -14.5 -74.5t-39.5 -54.5t-57 -33.5t-68 -11.5q-38 0 -71 11t-57 33.5t-38 56.5t-14 79v151q0 42 14.5 74.5t39.5 55t57.5 34t68.5 11.5q91 0 135 -51t44 -138v-143zM301 326q0 33 -19.5 51.5t-49.5 18.5q-31 0 -50.5 -18.5t-19.5 -51.5v-157
q0 -33 19.5 -51t50.5 -18q30 0 49.5 18t19.5 51v157z" />
    <glyph glyph-name="one.taboldstyle" unicode="&#xe025;" horiz-adv-x="465" 
d="M182 99v272l-97 -72v119l104 77h104v-396h120v-99h-351v99h120z" />
    <glyph glyph-name="two.taboldstyle" unicode="&#xe026;" horiz-adv-x="465" 
d="M49 336q5 41 22 72t42 51.5t57 31t68 10.5q79 0 125.5 -41t46.5 -111q0 -31 -16 -65.5t-51 -66.5l-129 -116h202v-101h-364v92q54 47 101.5 89.5t90.5 80.5q24 22 34 42t10 36q0 23 -13.5 38.5t-44.5 15.5q-6 0 -16 -2t-21 -10t-21 -23t-15 -41z" />
    <glyph glyph-name="three.taboldstyle" unicode="&#xe027;" horiz-adv-x="465" 
d="M140 15q6 -76 68 -76q35 0 53 24t18 68q0 52 -18 78t-61 26h-44v91h44q42 0 59.5 21.5t17.5 63.5q0 14 -3.5 29.5t-11 28t-20 21t-31.5 8.5q-31 0 -46 -20t-20 -60q-27 4 -54.5 7.5t-54.5 8.5q9 76 56.5 121.5t120.5 45.5q53 0 87.5 -15.5t54.5 -42t27.5 -60t7.5 -69.5
q0 -38 -15 -75.5t-51 -58.5q24 -11 37.5 -26.5t20.5 -34.5t9 -41.5t2 -46.5q0 -42 -11 -77.5t-34.5 -61.5t-58.5 -41t-83 -15q-70 0 -119.5 40.5t-56.5 123.5z" />
    <glyph glyph-name="four.taboldstyle" unicode="&#xe028;" horiz-adv-x="465" 
d="M381 0v-158h-111v158h-239v94l176 401h119l-173 -393h117v165h111v-165h52v-102h-52z" />
    <glyph glyph-name="five.taboldstyle" unicode="&#xe029;" horiz-adv-x="465" 
d="M178 254q22 18 46.5 23.5t42.5 5.5q45 0 73 -16t44 -43.5t22 -65.5t6 -82q0 -56 -8.5 -100.5t-29.5 -75.5t-55.5 -47t-86.5 -16q-38 0 -69.5 9t-54 30t-36 54.5t-16.5 82.5l110 6q3 -43 19.5 -61t48.5 -18q23 0 36 11t20 29.5t8.5 42t1.5 48.5q0 22 -2 42.5t-8.5 36.5
t-19 25.5t-34.5 9.5q-19 0 -36.5 -10.5t-28.5 -34.5h-99v356h332v-100h-226v-142v0z" />
    <glyph glyph-name="six.taboldstyle" unicode="&#xe02a;" horiz-adv-x="465" 
d="M316 569l-87 -189q9 4 19.5 5.5t20.5 1.5q73 -1 106.5 -49.5t33.5 -129.5q0 -45 -9.5 -83.5t-31.5 -67.5t-56.5 -45.5t-83.5 -16.5q-67 0 -111 32.5t-56 98.5q-6 36 -6 78q0 53 17 101q6 16 12.5 32t14.5 33l133 284h122zM233 296q-20 0 -33 -8.5t-20.5 -22.5
t-10.5 -32.5t-3 -37.5q0 -42 13.5 -70t50.5 -28q35 0 50.5 27t15.5 73q0 17 -2.5 34.5t-9 32t-19 23.5t-32.5 9z" />
    <glyph glyph-name="seven.taboldstyle" unicode="&#xe02b;" horiz-adv-x="465" 
d="M200 -158h-117l198 552h-125v-82h-106v184h352v-94z" />
    <glyph glyph-name="eight.taboldstyle" unicode="&#xe02c;" horiz-adv-x="465" 
d="M413 189q0 -53 -15 -90t-40.5 -60t-58.5 -33.5t-69 -10.5q-37 0 -70 11t-57.5 34t-39 60t-14.5 89q0 50 14.5 90.5t55.5 60.5q-20 11 -32.5 25.5t-19.5 31.5t-9.5 36.5t-2.5 41.5q0 44 13 78.5t36 58t55.5 35.5t70.5 12q78 0 127 -44.5t49 -139.5q0 -43 -13.5 -78
t-48.5 -56v-1q42 -19 55.5 -60.5t13.5 -90.5zM230 294q-33 0 -51.5 -24t-18.5 -73q0 -56 19 -77.5t51 -21.5q38 0 54.5 25t16.5 76q0 95 -71 95zM231 557q-34 0 -49.5 -22t-15.5 -64q0 -46 16.5 -66t48.5 -20q65 0 65 89q0 40 -15 61.5t-50 21.5z" />
    <glyph glyph-name="nine.taboldstyle" unicode="&#xe02d;" horiz-adv-x="465" 
d="M145 -73l87 189q-9 -4 -19.5 -5.5t-20.5 -1.5q-73 1 -106.5 49.5t-33.5 129.5q0 45 9.5 83.5t31.5 67.5t56 45.5t84 16.5q67 0 111.5 -32.5t56.5 -98.5q3 -18 4 -37.5t1 -40.5q0 -53 -17 -101q-6 -16 -12.5 -32t-14.5 -33l-133 -284h-122zM228 200q20 0 33 8.5t20.5 22.5
t10.5 32t3 38q0 42 -13.5 70t-50.5 28q-35 0 -50.5 -27t-15.5 -73q0 -17 2.5 -35t9 -32t19 -23t32.5 -9z" />
    <glyph glyph-name="numbersign.taboldstyle" unicode="&#xe02e;" horiz-adv-x="465" 
d="M30 246h77l19 104h-66v66h76l31 175h75l-30 -175h78l31 175h75l-31 -175h69v-66h-80l-18 -104h70v-66h-81l-30 -180h-76l31 180h-78l-31 -180h-77l32 180h-66v66zM182 246h79l19 104h-79z" />
    <glyph glyph-name="dollar.taboldstyle" unicode="&#xe02f;" horiz-adv-x="465" 
d="M418 170q0 -75 -41.5 -120.5t-119.5 -52.5v-80h-47v80q-62 3 -104 32.5t-69 77.5l87 51q15 -24 36 -42t50 -23v163q-78 29 -116.5 67t-38.5 103q0 34 11 63.5t31 51.5t49 36t64 18v61h47v-61q56 -5 94.5 -32t58.5 -63l-79 -56q-30 45 -74 54v-148q86 -29 123.5 -70.5
t37.5 -109.5zM311 167q0 30 -14 46t-40 28v-147q29 6 41.5 26t12.5 47zM159 429q0 -20 14 -35t37 -26v130q-26 -6 -38.5 -25t-12.5 -44z" />
    <glyph glyph-name="euro.taboldstyle" unicode="&#xe030;" horiz-adv-x="465" 
d="M435 133q-14 -65 -62.5 -101.5t-115.5 -36.5q-47 0 -81.5 14.5t-57 40t-34 60t-11.5 74.5v36h-34v59h34v33h-34v60h34v42q0 36 11 69t34 58.5t57.5 40.5t81.5 15q36 0 66 -10.5t53 -29t38 -43.5t22 -54l-100 -29q-7 24 -25 46t-54 22q-22 0 -37 -7t-24.5 -19t-14 -26.5
t-4.5 -29.5v-45h147v-60h-147v-33h147v-59h-147v-41q0 -35 19 -60.5t61 -25.5q32 0 52 18t29 49z" />
    <glyph glyph-name="florin.taboldstyle" unicode="&#xe031;" horiz-adv-x="465" 
d="M111 384h83q0 1 1.5 11t3 22t3 21.5t1.5 11.5q4 33 14 67t29 61.5t49.5 44.5t75.5 17q21 0 43.5 -3.5t39.5 -11.5l-22 -89q-17 7 -31 9t-27 2q-16 0 -27.5 -7.5t-19 -20.5t-12.5 -30t-7 -35l-10 -70h85l1 -88h-97l-26 -203q-6 -45 -16.5 -81t-28.5 -61.5t-45 -39.5
t-65 -14q-19 0 -45.5 5t-49.5 15l28 83q18 -8 30.5 -10t22.5 -2q29 0 42.5 26t20.5 79l26 203h-70v88z" />
    <glyph glyph-name="sterling.taboldstyle" unicode="&#xe032;" horiz-adv-x="465" 
d="M50 315h52q-10 35 -21.5 65.5t-11.5 65.5q0 31 12 59t34 48t53 32t69 12q63 0 106.5 -25.5t70.5 -91.5q-23 -10 -46.5 -21t-46.5 -22q-17 38 -36.5 51t-45.5 13q-10 0 -20.5 -3.5t-19.5 -11t-14.5 -18.5t-5.5 -26q0 -27 13.5 -57.5t21.5 -69.5h111v-77h-107
q-2 -44 -11.5 -79.5t-27.5 -68.5h222v-90h-350v79q26 37 42 74t18 85h-61v77z" />
    <glyph glyph-name="cent.taboldstyle" unicode="&#xe033;" horiz-adv-x="465" 
d="M218 41q-42 4 -70.5 21.5t-46 46t-24.5 66.5t-7 83q0 43 8 80.5t26 65t46 45t68 22.5v78h41v-78q47 -4 82 -27.5t52 -63.5l-88 -43q-18 35 -46 41v-245q15 3 26.5 14.5t19.5 25.5l89 -43q-17 -40 -52 -63t-83 -27v-86h-41v87zM175 258q0 -45 8.5 -77t34.5 -44v237
q-26 -11 -34.5 -42.5t-8.5 -73.5z" />
    <glyph glyph-name="yen.taboldstyle" unicode="&#xe034;" horiz-adv-x="465" 
d="M435 593l-123 -290h85v-59h-109l-4 -8v-37h113v-59h-113v-140h-103v140h-111v59h111v37l-4 8h-107v59h82l-123 290h113l51 -138q9 -27 18.5 -54.5t19.5 -54.5h3l39 112l48 135h114z" />
    <glyph glyph-name="zero.textoldstyle" unicode="&#xe048;" horiz-adv-x="465" 
d="M411 169q0 -42 -14.5 -74.5t-39.5 -54.5t-57 -33.5t-68 -11.5q-38 0 -71 11t-57 33.5t-38 56.5t-14 79v151q0 42 14.5 74.5t39.5 55t57.5 34t68.5 11.5q91 0 135 -51t44 -138v-143zM301 326q0 33 -19.5 51.5t-49.5 18.5q-31 0 -50.5 -18.5t-19.5 -51.5v-157
q0 -33 19.5 -51t50.5 -18q30 0 49.5 18t19.5 51v157z" />
    <glyph glyph-name="one.textoldstyle" unicode="&#xe049;" horiz-adv-x="402" 
d="M152 99v272l-97 -72v119l104 77h104v-396h120v-99h-351v99h120z" />
    <glyph glyph-name="two.textoldstyle" unicode="&#xe04a;" horiz-adv-x="465" 
d="M49 336q5 41 22 72t42 51.5t57 31t68 10.5q79 0 125.5 -41t46.5 -111q0 -31 -16 -65.5t-51 -66.5l-129 -116h202v-101h-364v92q54 47 101.5 89.5t90.5 80.5q24 22 34 42t10 36q0 23 -13.5 38.5t-44.5 15.5q-6 0 -16 -2t-21 -10t-21 -23t-15 -41z" />
    <glyph glyph-name="three.textoldstyle" unicode="&#xe04b;" horiz-adv-x="423" 
d="M110 15q6 -76 68 -76q35 0 53 24t18 68q0 52 -18 78t-61 26h-44v91h44q42 0 59.5 21.5t17.5 63.5q0 14 -3.5 29.5t-11 28t-20 21t-31.5 8.5q-31 0 -46 -20t-20 -60q-27 4 -54.5 7.5t-54.5 8.5q9 76 56.5 121.5t120.5 45.5q53 0 87.5 -15.5t54.5 -42t27.5 -60t7.5 -69.5
q0 -38 -15 -75.5t-51 -58.5q24 -11 37.5 -26.5t20.5 -34.5t9 -41.5t2 -46.5q0 -42 -11 -77.5t-34.5 -61.5t-58.5 -41t-83 -15q-70 0 -119.5 40.5t-56.5 123.5z" />
    <glyph glyph-name="four.textoldstyle" unicode="&#xe04c;" horiz-adv-x="438" 
d="M371 0v-158h-111v158h-239v94l176 401h119l-173 -393h117v165h111v-165h52v-102h-52z" />
    <glyph glyph-name="five.textoldstyle" unicode="&#xe04d;" horiz-adv-x="438" 
d="M153 254q22 18 46.5 23.5t42.5 5.5q45 0 73 -16t44 -43.5t22 -65.5t6 -82q0 -56 -8.5 -100.5t-29.5 -75.5t-55.5 -47t-86.5 -16q-38 0 -69.5 9t-54 30t-36 54.5t-16.5 82.5l110 6q3 -43 19.5 -61t48.5 -18q23 0 36 11t20 29.5t8.5 42t1.5 48.5q0 22 -2 42.5t-8.5 36.5
t-19 25.5t-34.5 9.5q-19 0 -36.5 -10.5t-28.5 -34.5h-99v356h332v-100h-226v-142v0z" />
    <glyph glyph-name="six.textoldstyle" unicode="&#xe04e;" horiz-adv-x="453" 
d="M301 569l-87 -189q9 4 19.5 5.5t20.5 1.5q73 -1 106.5 -49.5t33.5 -129.5q0 -45 -9.5 -83.5t-31.5 -67.5t-56.5 -45.5t-83.5 -16.5q-67 0 -111 32.5t-56 98.5q-6 36 -6 78q0 53 17 101q6 16 12.5 32t14.5 33l133 284h122zM218 296q-20 0 -33 -8.5t-20.5 -22.5
t-10.5 -32.5t-3 -37.5q0 -42 13.5 -70t50.5 -28q35 0 50.5 27t15.5 73q0 17 -2.5 34.5t-9 32t-19 23.5t-32.5 9z" />
    <glyph glyph-name="seven.textoldstyle" unicode="&#xe04f;" horiz-adv-x="402" 
d="M164 -158h-117l198 552h-125v-82h-106v184h352v-94z" />
    <glyph glyph-name="eight.textoldstyle" unicode="&#xe050;" horiz-adv-x="465" 
d="M413 189q0 -53 -15 -90t-40.5 -60t-58.5 -33.5t-69 -10.5q-37 0 -70 11t-57.5 34t-39 60t-14.5 89q0 50 14.5 90.5t55.5 60.5q-20 11 -32.5 25.5t-19.5 31.5t-9.5 36.5t-2.5 41.5q0 44 13 78.5t36 58t55.5 35.5t70.5 12q78 0 127 -44.5t49 -139.5q0 -43 -13.5 -78
t-48.5 -56v-1q42 -19 55.5 -60.5t13.5 -90.5zM230 294q-33 0 -51.5 -24t-18.5 -73q0 -56 19 -77.5t51 -21.5q38 0 54.5 25t16.5 76q0 95 -71 95zM231 557q-34 0 -49.5 -22t-15.5 -64q0 -46 16.5 -66t48.5 -20q65 0 65 89q0 40 -15 61.5t-50 21.5z" />
    <glyph glyph-name="nine.textoldstyle" unicode="&#xe051;" horiz-adv-x="445" 
d="M128 -73l87 189q-9 -4 -19.5 -5.5t-20.5 -1.5q-73 1 -106.5 49.5t-33.5 129.5q0 45 9.5 83.5t31.5 67.5t56 45.5t84 16.5q67 0 111.5 -32.5t56.5 -98.5q3 -18 4 -37.5t1 -40.5q0 -53 -17 -101q-6 -16 -12.5 -32t-14.5 -33l-133 -284h-122zM211 200q20 0 33 8.5t20.5 22.5
t10.5 32t3 38q0 42 -13.5 70t-50.5 28q-35 0 -50.5 -27t-15.5 -73q0 -17 2.5 -35t9 -32t19 -23t32.5 -9z" />
    <glyph glyph-name="numbersign.textoldstyle" unicode="&#xe052;" horiz-adv-x="465" 
d="M30 246h77l19 104h-66v66h76l31 175h75l-30 -175h78l31 175h75l-31 -175h69v-66h-80l-18 -104h70v-66h-81l-30 -180h-76l31 180h-78l-31 -180h-77l32 180h-66v66zM182 246h79l19 104h-79z" />
    <glyph glyph-name="dollar.textoldstyle" unicode="&#xe053;" horiz-adv-x="465" 
d="M408 170q0 -75 -41.5 -120.5t-119.5 -52.5v-80h-47v80q-62 3 -104 32.5t-69 77.5l87 51q15 -24 36 -42t50 -23v163q-78 29 -116.5 67t-38.5 103q0 34 11 63.5t31 51.5t49 36t64 18v61h47v-61q56 -5 94.5 -32t58.5 -63l-79 -56q-30 45 -74 54v-148q86 -29 123.5 -70.5
t37.5 -109.5zM301 167q0 30 -14 46t-40 28v-147q29 6 41.5 26t12.5 47zM149 429q0 -20 14 -35t37 -26v130q-26 -6 -38.5 -25t-12.5 -44z" />
    <glyph glyph-name="euro.textoldstyle" unicode="&#xe054;" horiz-adv-x="465" 
d="M435 133q-14 -65 -62.5 -101.5t-115.5 -36.5q-47 0 -81.5 14.5t-57 40t-34 60t-11.5 74.5v36h-34v59h34v33h-34v60h34v42q0 36 11 69t34 58.5t57.5 40.5t81.5 15q36 0 66 -10.5t53 -29t38 -43.5t22 -54l-100 -29q-7 24 -25 46t-54 22q-22 0 -37 -7t-24.5 -19t-14 -26.5
t-4.5 -29.5v-45h147v-60h-147v-33h147v-59h-147v-41q0 -35 19 -60.5t61 -25.5q32 0 52 18t29 49z" />
    <glyph glyph-name="florin.textoldstyle" unicode="&#xe055;" horiz-adv-x="423" 
d="M71 384h83q0 1 1.5 11t3 22t3 21.5t1.5 11.5q4 33 14 67t29 61.5t49.5 44.5t75.5 17q21 0 43.5 -3.5t39.5 -11.5l-22 -89q-17 7 -31 9t-27 2q-16 0 -27.5 -7.5t-19 -20.5t-12.5 -30t-7 -35l-10 -70h85l1 -88h-97l-26 -203q-6 -45 -16.5 -81t-28.5 -61.5t-45 -39.5
t-65 -14q-19 0 -45.5 5t-49.5 15l28 83q18 -8 30.5 -10t22.5 -2q29 0 42.5 26t20.5 79l26 203h-70v88z" />
    <glyph glyph-name="sterling.textoldstyle" unicode="&#xe056;" horiz-adv-x="445" 
d="M50 315h52q-10 35 -21.5 65.5t-11.5 65.5q0 31 12 59t34 48t53 32t69 12q63 0 106.5 -25.5t70.5 -91.5q-23 -10 -46.5 -21t-46.5 -22q-17 38 -36.5 51t-45.5 13q-10 0 -20.5 -3.5t-19.5 -11t-14.5 -18.5t-5.5 -26q0 -27 13.5 -57.5t21.5 -69.5h111v-77h-107
q-2 -44 -11.5 -79.5t-27.5 -68.5h222v-90h-350v79q26 37 42 74t18 85h-61v77z" />
    <glyph glyph-name="cent.textoldstyle" unicode="&#xe057;" horiz-adv-x="423" 
d="M198 41q-42 4 -70.5 21.5t-46 46t-24.5 66.5t-7 83q0 43 8 80.5t26 65t46 45t68 22.5v78h41v-78q47 -4 82 -27.5t52 -63.5l-88 -43q-18 35 -46 41v-245q15 3 26.5 14.5t19.5 25.5l89 -43q-17 -40 -52 -63t-83 -27v-86h-41v87zM155 258q0 -45 8.5 -77t34.5 -44v237
q-26 -11 -34.5 -42.5t-8.5 -73.5z" />
    <glyph glyph-name="yen.textoldstyle" unicode="&#xe058;" horiz-adv-x="465" 
d="M435 593l-123 -290h85v-59h-109l-4 -8v-37h113v-59h-113v-140h-103v140h-111v59h111v37l-4 8h-107v59h82l-123 290h113l51 -138q9 -27 18.5 -54.5t19.5 -54.5h3l39 112l48 135h114z" />
    <glyph glyph-name="percent.text" unicode="&#xe059;" horiz-adv-x="651" 
d="M603 87q0 -43 -32 -66t-74 -23t-73.5 23t-31.5 66v168q0 21 8.5 38t23 28.5t33.5 17.5t40 6q43 0 74.5 -23.5t31.5 -66.5v-168zM260 338q0 -21 -8.5 -38t-23.5 -28.5t-34 -17.5t-40 -6t-40 6t-34 17.5t-23.5 28.5t-8.5 38v168q0 21 8.5 37.5t23.5 28.5t34 18t40 6t40 -6
t34 -18t23.5 -28.5t8.5 -37.5v-168zM195 -14h-72l332 621h73zM186 505q0 13 -9.5 20.5t-23.5 7.5q-15 0 -24 -7.5t-9 -20.5v-166q0 -14 9.5 -21.5t23.5 -7.5t23.5 7.5t9.5 21.5v166zM530 254q0 13 -9 21t-24 8t-24 -8t-9 -21v-165q0 -14 9 -21.5t24 -7.5t24 7.5t9 21.5v165z
" />
    <glyph glyph-name="perthousand.text" unicode="&#xe05a;" horiz-adv-x="895" 
d="M853 87q0 -43 -31.5 -66t-74.5 -23q-42 0 -73.5 23t-31.5 66v168q0 43 31.5 66.5t73.5 23.5q43 0 74.5 -23.5t31.5 -66.5v-168zM603 87q0 -43 -31.5 -66t-74.5 -23q-21 0 -40 6t-33.5 17t-23 28t-8.5 38v168q0 21 8.5 38t23 28.5t33.5 17.5t40 6q43 0 74.5 -23.5
t31.5 -66.5v-168zM260 338q0 -43 -31.5 -66.5t-74.5 -23.5q-21 0 -40 6t-34 17.5t-23.5 28.5t-8.5 38v168q0 21 8.5 37.5t23.5 28.5t34 18t40 6q43 0 74.5 -24t31.5 -66v-168zM196 -14h-73l333 621h73zM186 505q0 13 -9 20.5t-23 7.5q-15 0 -24 -7.5t-9 -20.5v-166
q0 -14 9 -21.5t24 -7.5q14 0 23 7.5t9 21.5v166zM780 254q0 13 -9 21t-24 8t-24 -8t-9 -21v-165q0 -14 9 -21.5t24 -7.5t24 7.5t9 21.5v165zM530 254q0 13 -9 21t-24 8t-24 -8t-9 -21v-165q0 -14 9.5 -21.5t23.5 -7.5q15 0 24 7.5t9 21.5v165z" />
    <glyph glyph-name="parenleft.numerator" unicode="&#xe2da;" horiz-adv-x="191" 
d="M142 205q-48 54 -80.5 119t-32.5 139q0 75 32.5 139t77.5 115l51 -26q-38 -53 -58.5 -112t-20.5 -113q0 -59 21.5 -118.5t56.5 -109.5z" />
    <glyph glyph-name="parenright.numerator" unicode="&#xe2db;" horiz-adv-x="191" 
d="M181 463q0 -37 -9 -71.5t-24.5 -67t-36 -62.5t-44.5 -57l-48 33q37 50 58 109.5t21 118.5q0 54 -20.5 113t-58.5 112l51 26q45 -51 78 -115t33 -139z" />
    <glyph glyph-name="comma.numerator" unicode="&#xe2dc;" horiz-adv-x="159" 
d="M28 202l22 76h-18v90h93v-83l-44 -83h-53z" />
    <glyph glyph-name="period.numerator" unicode="&#xe2dd;" horiz-adv-x="157" 
d="M32 279v88h92v-88h-92z" />
    <glyph glyph-name="zero.denominator" unicode="&#xe2f4;" horiz-adv-x="297" 
d="M271 105q0 -26 -10 -46t-26.5 -33.5t-39 -21t-46.5 -7.5t-46 7.5t-38.5 21t-26.5 33.5t-10 46v207q0 25 10 45.5t26.5 34.5t38.5 21.5t46 7.5q25 0 47 -7.5t38.5 -21.5t26.5 -34.5t10 -45.5v-207zM187 310q0 17 -10 26.5t-28 9.5t-28.5 -9.5t-10.5 -26.5v-203
q0 -17 11 -26.5t28 -9.5t27.5 9.5t10.5 26.5v203z" />
    <glyph glyph-name="one.denominator" unicode="&#xe2f5;" horiz-adv-x="248" 
d="M102 -1v327l-62 -42v85l70 47h76v-417h-84z" />
    <glyph glyph-name="two.denominator" unicode="&#xe2f6;" horiz-adv-x="296" 
d="M23 298q5 58 40 90t87 32q57 0 89.5 -28t32.5 -80q0 -47 -32 -91l-107 -146h135v-76h-243v67l145 195q16 23 16 48q0 14 -8.5 25.5t-28.5 11.5q-17 0 -29 -14.5t-14 -44.5z" />
    <glyph glyph-name="three.denominator" unicode="&#xe2f7;" horiz-adv-x="297" 
d="M151 420q33 0 56.5 -9.5t37.5 -25.5t20.5 -37t6.5 -45q0 -23 -8 -48t-34 -39q27 -12 35.5 -35.5t8.5 -55.5q0 -57 -31 -93t-95 -36q-50 0 -84 27t-40 84q4 0 16 1.5t25 3t25 3t16 2.5q2 -25 13.5 -36t27.5 -11q14 0 22 5.5t12.5 14.5t6 19.5t1.5 20.5q0 23 -9 37.5
t-35 14.5h-35v66h32q27 0 36 15t9 37q0 19 -8 32.5t-31 13.5q-15 0 -27 -12.5t-15 -38.5l-81 12q7 52 41 82.5t85 30.5z" />
    <glyph glyph-name="four.denominator" unicode="&#xe2f8;" horiz-adv-x="301" 
d="M255 59v-60h-81v60h-161v64l123 293h87l-120 -285h71v97h81v-97h32v-72h-32z" />
    <glyph glyph-name="five.denominator" unicode="&#xe2f9;" horiz-adv-x="296" 
d="M168 283q57 0 79.5 -33.5t22.5 -99.5q0 -34 -6 -62t-20.5 -48.5t-38 -32t-58.5 -11.5q-54 0 -86.5 26t-38.5 83q21 3 41.5 6t41.5 5q2 -26 13 -36.5t28 -10.5q15 0 23.5 7t12 17.5t4.5 24t1 25.5q0 10 -0.5 22t-4 22.5t-12 18t-23.5 7.5q-25 0 -40 -28h-73v232h229v-72
h-150v-76q9 7 25.5 10.5t29.5 3.5z" />
    <glyph glyph-name="six.denominator" unicode="&#xe2fa;" horiz-adv-x="296" 
d="M153 245q10 3 23 3q47 0 71 -30.5t24 -86.5q0 -66 -32 -100t-92 -34q-59 0 -89.5 28.5t-30.5 94.5q0 26 6 53t15 45l98 197h90zM151 185q-24 0 -32.5 -16.5t-8.5 -42.5q0 -27 7 -43t31 -16q23 0 31 16.5t8 43.5q0 23 -6.5 40t-29.5 18z" />
    <glyph glyph-name="seven.denominator" unicode="&#xe2fb;" horiz-adv-x="276" 
d="M128 -1h-86l131 344h-73v-51h-81v124h247v-65z" />
    <glyph glyph-name="eight.denominator" unicode="&#xe2fc;" horiz-adv-x="299" 
d="M270 301q0 -27 -8.5 -49t-31.5 -35q25 -14 34.5 -40t9.5 -56q0 -35 -10.5 -58.5t-27.5 -38.5t-40 -21.5t-47 -6.5q-25 0 -47.5 6.5t-39.5 21.5t-27 38.5t-10 58.5q0 30 9 56t33 40q-22 12 -30 35t-8 49q0 57 33 88t87 31t87.5 -28.5t33.5 -90.5zM149 67q23 0 33 16t10 45
q0 55 -43 55q-20 0 -31.5 -15t-11.5 -41q0 -33 11.5 -46.5t31.5 -13.5zM149 248q40 0 40 52q0 22 -9.5 35t-30.5 13q-20 0 -29.5 -13.5t-9.5 -36.5q0 -50 39 -50z" />
    <glyph glyph-name="nine.denominator" unicode="&#xe2fd;" horiz-adv-x="296" 
d="M144 172q-11 -4 -24 -4q-46 0 -70 31t-24 87q0 66 31.5 100t91.5 34q56 0 88.5 -28.5t32.5 -94.5q0 -27 -6 -54t-15 -44l-98 -198h-91zM146 232q24 0 32.5 16.5t8.5 42.5t-7 42t-31 16q-23 0 -31.5 -16t-8.5 -43q0 -23 7 -40.5t30 -17.5z" />
    <glyph glyph-name="parenleft.denominator" unicode="&#xe2fe;" horiz-adv-x="191" 
d="M142 -74q-48 54 -80.5 118.5t-32.5 139.5t32.5 138.5t77.5 114.5l51 -25q-38 -53 -58.5 -112t-20.5 -113q0 -59 21.5 -119t56.5 -110z" />
    <glyph glyph-name="parenright.denominator" unicode="&#xe2ff;" horiz-adv-x="191" 
d="M181 184q0 -37 -9 -72t-24.5 -67.5t-36 -62t-44.5 -56.5l-48 32q37 50 58 110t21 119q0 53 -20.5 112.5t-58.5 112.5l51 25q45 -51 78 -114.5t33 -138.5z" />
    <glyph glyph-name="comma.denominator" unicode="&#xe300;" horiz-adv-x="159" 
d="M28 -77l22 76h-18v89h93v-83l-44 -82h-53z" />
    <glyph glyph-name="period.denominator" unicode="&#xe301;" horiz-adv-x="157" 
d="M32 -1v88h92v-88h-92z" />
    <glyph glyph-name="afii61352" unicode="&#x2116;" horiz-adv-x="838" 
d="M382 0l-159 340q-11 25 -22.5 50t-23.5 49h-3v-439h-114v696h104l160 -339q12 -25 22.5 -49.5t21.5 -49.5q2 0 2.5 0.5t1.5 0.5v437h113v-696h-103zM666 702q45 0 71.5 -17t40.5 -43q9 -18 12.5 -45t3.5 -62q0 -37 -3.5 -64t-14.5 -46q-18 -32 -48.5 -45.5t-67.5 -13.5
q-35 0 -60 10.5t-41 29.5q-20 27 -23.5 56.5t-4.5 70.5q1 26 3 52t10 44q14 35 44 54t78 19zM544 259v71h240v-71h-240zM663 627q-24 0 -37 -21q-5 -9 -7.5 -30t-2.5 -47q0 -16 0.5 -30t3.5 -25q6 -16 15.5 -24.5t26.5 -8.5q14 0 26 8.5t16 22.5q4 11 4.5 27.5t0.5 39.5
t-0.5 38t-8.5 30q-12 20 -37 20z" />
    <glyph glyph-name="estimated" unicode="&#x212e;" horiz-adv-x="817" 
d="M202 303v-34t0.5 -49t0.5 -49v-34q15 -24 37.5 -43.5t49.5 -33.5t56.5 -21.5t59.5 -7.5q63 0 117.5 28.5t92.5 76.5h80q-56 -68 -131.5 -107.5t-159.5 -39.5q-72 0 -135 26.5t-110 71.5t-74.5 105.5t-27.5 129.5t27.5 129t74.5 104.5t110 70.5t135 26q73 0 135.5 -26
t108.5 -72.5t73 -110.5t30 -140h-550zM606 507q-14 24 -36 42.5t-49 32t-56.5 20.5t-58.5 7q-53 0 -107 -28.5t-96 -77.5v-31t-0.5 -49.5t-0.5 -49.5v-31h404v165z" />
    <glyph glyph-name="partialdiff" unicode="&#x2202;" horiz-adv-x="461" 
d="M215 86q28 0 47.5 19.5t32 50.5t19 69t7.5 75q-29 38 -55 50.5t-51 12.5q-21 0 -37 -12.5t-27.5 -32t-17 -44.5t-5.5 -50q0 -73 26 -105.5t61 -32.5zM213 -10q-40 0 -74.5 15t-59.5 44.5t-39.5 72.5t-14.5 100q0 53 14.5 96t39.5 73t58.5 46.5t72.5 16.5q27 0 54 -8.5
t55 -32.5q-1 47 -12 87t-30 69t-45.5 45t-57.5 16q-12 0 -29.5 -1t-43.5 -10l-1 89q22 7 42.5 10t38.5 3q67 0 113.5 -31t75.5 -82.5t42 -118t13 -138.5q0 -90 -16 -157.5t-44 -112.5t-67 -68t-85 -23z" />
    <glyph glyph-name="product" unicode="&#x220f;" horiz-adv-x="543" 
d="M366 -80v671h-189v-671h-114v776h417v-776h-114z" />
    <glyph glyph-name="summation" unicode="&#x2211;" horiz-adv-x="429" 
d="M25 -81v103l125 290l-126 285v99h373v-105h-243l125 -279l-123 -285h253v-108h-384z" />
    <glyph glyph-name="minus" unicode="&#x2212;" horiz-adv-x="465" 
d="M445 340v-88h-426v88h426z" />
    <glyph glyph-name="radical" unicode="&#x221a;" horiz-adv-x="502" 
d="M317 -79h-89l-122 393l-59 -21q-2 3 -6 15t-8.5 25t-8.5 25l-5 15q6 2 28.5 10t48 17t48.5 17t29 10l93 -312q8 44 18.5 99t21.5 115.5t23 124.5t23 124.5t21 116t19 99.5h98z" />
    <glyph glyph-name="infinity" unicode="&#x221e;" horiz-adv-x="637" 
d="M176 427q22 0 42.5 -7.5t39 -20t34.5 -28.5t28 -32q29 42 63 65t84 23q30 0 55.5 -11t44 -31.5t29 -49t10.5 -63.5q0 -32 -11.5 -60.5t-31 -49.5t-46 -33.5t-56.5 -12.5q-45 0 -80 27t-62 62q-29 -37 -64 -63t-85 -26q-29 0 -54.5 11t-44.5 31.5t-30 49.5t-11 64
q0 32 11.5 60t31.5 49t46.5 33.5t56.5 12.5zM176 342q-23 0 -42 -20t-19 -49q0 -32 18 -52.5t41 -20.5q27 0 51.5 20.5t41.5 50.5q-16 26 -40 48.5t-51 22.5zM464 342q-26 0 -49 -19.5t-45 -49.5q22 -30 44 -51.5t48 -21.5q23 0 41.5 21t18.5 51q0 31 -17.5 50.5t-40.5 19.5
z" />
    <glyph glyph-name="logicaland" unicode="&#x2227;" horiz-adv-x="465" 
d="M440 0h-106l-100 343l-104 -343h-105q42 133 83 264t83 265h84z" />
    <glyph glyph-name="logicalor" unicode="&#x2228;" horiz-adv-x="465" 
d="M440 528l-165 -528h-84l-166 528h105q26 -86 51.5 -171.5t51.5 -171.5l101 343h106z" />
    <glyph glyph-name="intersection" unicode="&#x2229;" horiz-adv-x="465" 
d="M433 0h-104v311q0 23 -6.5 44.5t-19 38t-31 26t-42.5 9.5q-48 0 -73 -33.5t-25 -84.5v-311h-100v315q0 43 12 82t36.5 68.5t61.5 47t87 17.5t88.5 -16.5t64 -45t38.5 -68t13 -85.5v-315z" />
    <glyph glyph-name="union" unicode="&#x222a;" horiz-adv-x="465" 
d="M433 214q0 -46 -13 -85.5t-38.5 -68t-64 -45t-88.5 -16.5t-87 17.5t-61.5 47t-36.5 68.5t-12 82v315h100v-312q0 -51 25 -84t73 -33q24 0 42.5 9.5t31 26t19 37.5t6.5 44v312h104v-315z" />
    <glyph glyph-name="integral" unicode="&#x222b;" horiz-adv-x="316" 
d="M101 64q5 56 6.5 149.5t3.5 230.5q0 87 8.5 149.5t28 102t51 58t77.5 18.5q16 0 37.5 -3.5t38.5 -10.5l-19 -77q-29 7 -47 7q-17 0 -29.5 -7t-21.5 -23.5t-14.5 -44.5t-8.5 -70q0 -6 -0.5 -32t-1 -62t-1.5 -77.5t-1.5 -78.5t-1 -65t-0.5 -37q0 -94 -9 -159t-29.5 -105
t-52.5 -57.5t-78 -17.5q-15 0 -35 3t-38 11l19 74q17 -3 27.5 -4.5t21.5 -1.5q15 0 26.5 6t20 21t14 40t8.5 63z" />
    <glyph glyph-name="approxequal" unicode="&#x2248;" horiz-adv-x="465" 
d="M445 414q-26 -51 -56.5 -77t-70.5 -26q-21 0 -42 8.5t-41 18.5t-39.5 18.5t-37.5 8.5q-21 0 -37 -10.5t-38 -38.5l-61 39q25 48 56.5 74.5t75.5 26.5q22 0 43 -8.5t40.5 -18.5t37.5 -18.5t35 -8.5q20 0 36 13t36 39q16 -11 31.5 -20.5t31.5 -19.5zM442 247
q-26 -51 -56.5 -77t-70.5 -26q-21 0 -42 8.5t-41 18.5t-39.5 18.5t-37.5 8.5q-21 0 -37 -10.5t-38 -38.5l-61 39q25 48 56.5 74.5t75.5 26.5q22 0 43 -8.5t40.5 -18.5t37.5 -18.5t35 -8.5q20 0 36 13t36 39q16 -11 31.5 -20.5t31.5 -19.5z" />
    <glyph glyph-name="notequal" unicode="&#x2260;" horiz-adv-x="465" 
d="M178 159l-58 -82h-92l58 82h-68v88h130l70 100h-200v89h263l53 75h93l-53 -75h72v-89h-135l-71 -100h206v-88h-268z" />
    <glyph glyph-name="lessequal" unicode="&#x2264;" horiz-adv-x="465" 
d="M443 133l-421 163v79l421 167v-102l-287 -104l287 -101v-102zM22 0v91h421v-91h-421z" />
    <glyph glyph-name="greaterequal" unicode="&#x2265;" horiz-adv-x="465" 
d="M22 235l287 101l-287 104v102l421 -167v-79l-421 -163v102zM22 0v91h421v-91h-421z" />
    <glyph glyph-name="gradient" unicode="&#x2207;" horiz-adv-x="526" 
d="M519 696l-202 -696h-109l-202 696h513zM153 591l74 -293q11 -42 19 -78.5t14 -59.5h5q4 20 12 53t18 73t21.5 83.5t22 85t19 77t14.5 59.5h-219z" />
    <glyph glyph-name="fraction" unicode="&#x2044;" horiz-adv-x="159" 
d="M-76 -17h-74l370 730h74z" />
    <glyph glyph-name="fraction" unicode="&#x2215;" horiz-adv-x="159" 
d="M-76 -17h-74l370 730h74z" />
    <glyph glyph-name="slashedzero" unicode="&#xe23f;" horiz-adv-x="465" 
d="M416 169q0 -42 -14.5 -74t-39.5 -54.5t-57.5 -34t-68.5 -11.5t-68.5 11.5t-57 34t-39 54.5t-14.5 74v357q0 42 14.5 74.5t39.5 55t57 34t68 11.5t69 -11.5t57.5 -34t39 -55t14.5 -74.5v-357zM305 418l-138 -250q0 -33 19 -50.5t50 -17.5t50 18t19 52v248zM167 280
l138 250q-2 32 -21 49t-48 17q-31 0 -50 -18.5t-19 -51.5v-246z" />
    <glyph glyph-name="Scommaaccent" unicode="&#x218;" horiz-adv-x="504" 
d="M474 198q0 -95 -58 -149.5t-164 -54.5q-84 0 -139 33.5t-86 86.5l94 68q23 -36 55 -57.5t78 -21.5q55 0 77.5 26.5t22.5 65.5q0 24 -9 41t-25 29.5t-39 21.5t-50 17q-50 16 -85 34t-57.5 41.5t-32.5 54t-10 69.5q0 43 15 79.5t43 63t66.5 41t86.5 14.5q78 0 126.5 -26
t77.5 -71l-87 -73q-23 32 -52 47t-67 15q-45 0 -69 -24.5t-24 -61.5q0 -21 11 -36.5t30 -27.5t45 -21.5t55 -18.5q49 -15 81.5 -34.5t52.5 -44.5t28.5 -56t8.5 -70zM185 -275l32 99h-29v117h116v-114l-62 -102h-57z" />
    <glyph glyph-name="scommaaccent" unicode="&#x219;" horiz-adv-x="424" 
d="M395 147q0 -69 -49 -111t-135 -42q-66 0 -111 23.5t-74 73.5l82 60q34 -59 102 -59q34 0 53.5 15t19.5 41q0 27 -18.5 38t-51.5 19q-35 8 -66.5 18.5t-55.5 27t-38.5 41.5t-14.5 61q0 34 13.5 61.5t36.5 46.5t55 29t69 10q67 0 107.5 -22.5t65.5 -61.5l-74 -64
q-33 51 -96 51q-37 0 -51.5 -15.5t-14.5 -33.5q0 -12 7.5 -20.5t20.5 -14.5t29 -10.5t33 -8.5q34 -8 63 -18.5t49.5 -28t32 -43.5t11.5 -63zM142 -275l32 99h-29v117h116v-114l-62 -102h-57z" />
    <glyph glyph-name="primemod" unicode="&#x2b9;" horiz-adv-x="258" 
d="M268 686l-144 -287l-79 25l106 299z" />
    <glyph glyph-name="schwacyrillic" unicode="&#x4d9;" horiz-adv-x="442" 
d="M45 399q23 50 70.5 76t102.5 26q102 0 144.5 -62.5t42.5 -189.5q0 -53 -8.5 -99t-30 -80.5t-57.5 -54.5t-91 -20q-51 0 -86 17t-56.5 47t-31.5 71t-10 89v58h260q0 24 -3 46t-11.5 39.5t-24 28t-39.5 10.5t-44 -13.5t-35 -37.5zM148 201q0 -48 16.5 -76t55.5 -28
q40 0 55.5 30t17.5 74h-145z" />
    <glyph glyph-name="Wgrave" unicode="&#x1e80;" horiz-adv-x="725" 
d="M571 0h-102q-17 75 -36 150.5t-36 151.5l-33 145h-3l-16 -72l-16 -72q-17 -76 -36.5 -152t-36.5 -151h-102l-143 695h123q12 -72 25 -142.5t25 -142.5q8 -42 14 -84.5t13 -84.5h4q7 32 13.5 65t14.5 65q19 81 37 162t37 162h92l75 -326q7 -33 13.5 -65t14.5 -65h4l25 166
q15 89 26.5 157t22.5 133h123zM411 747l-188 100l72 81l160 -126z" />
    <glyph glyph-name="schwa" unicode="&#x259;" horiz-adv-x="442" 
d="M49 403q26 48 69.5 73t98.5 25q102 0 145 -62.5t43 -189.5q0 -53 -8.5 -99t-30 -80.5t-57.5 -54.5t-91 -20q-54 0 -89.5 18.5t-56.5 51t-29.5 77t-8.5 97.5v38h260q0 24 -3.5 46.5t-12.5 39.5t-24.5 27.5t-40.5 10.5q-24 0 -46 -14t-37 -38zM148 201q0 -48 16.5 -76
t55.5 -28q40 0 55.5 30t17.5 74h-145z" />
    <glyph glyph-name="wgrave" unicode="&#x1e81;" horiz-adv-x="652" 
d="M642 495q-33 -125 -66 -247.5t-67 -247.5h-107l-30 115l-46 185h-3q-11 -42 -21 -87t-21 -85q-11 -41 -18.5 -70.5t-14.5 -57.5h-108q-33 125 -66 247.5t-67 247.5h118l32 -152q9 -44 18 -87t20 -87h4q11 44 20.5 86t20.5 87q9 38 18 76.5t17 76.5h101l31 -138l46 -191h4
q3 10 5.5 21t6.5 30t10 49t16 77q8 38 15 76t16 76h116zM317 543l-120 174l99 38l84 -181z" />
    <glyph glyph-name="Wacute" unicode="&#x1e82;" horiz-adv-x="725" 
d="M571 0h-102q-17 75 -36 150.5t-36 151.5l-33 145h-3l-16 -72l-16 -72q-17 -76 -36.5 -152t-36.5 -151h-102l-143 695h123q12 -72 25 -142.5t25 -142.5q8 -42 14 -84.5t13 -84.5h4q7 32 13.5 65t14.5 65q19 81 37 162t37 162h92l75 -326q7 -33 13.5 -65t14.5 -65h4l25 166
q15 89 26.5 157t22.5 133h123zM292 780l159 124l69 -80l-185 -98z" />
    <glyph glyph-name="wacute" unicode="&#x1e83;" horiz-adv-x="652" 
d="M642 495q-33 -125 -66 -247.5t-67 -247.5h-107l-30 115l-46 185h-3q-11 -42 -21 -87t-21 -85q-11 -41 -18.5 -70.5t-14.5 -57.5h-108q-33 125 -66 247.5t-67 247.5h118l32 -152q9 -44 18 -87t20 -87h4q11 44 20.5 86t20.5 87q9 38 18 76.5t17 76.5h101l31 -138l46 -191h4
q3 10 5.5 21t6.5 30t10 49t16 77q8 38 15 76t16 76h116zM288 571l82 184l98 -37l-116 -175z" />
    <glyph glyph-name="Wdieresis" unicode="&#x1e84;" horiz-adv-x="725" 
d="M571 0h-102q-17 75 -36 150.5t-36 151.5l-33 145h-3l-16 -72l-16 -72q-17 -76 -36.5 -152t-36.5 -151h-102l-143 695h123q12 -72 25 -142.5t25 -142.5q8 -42 14 -84.5t13 -84.5h4q7 32 13.5 65t14.5 65q19 81 37 162t37 162h92l75 -326q7 -33 13.5 -65t14.5 -65h4l25 166
q15 89 26.5 157t22.5 133h123zM215 742v108h108v-108h-108zM397 742v108h106v-108h-106z" />
    <glyph glyph-name="wdieresis" unicode="&#x1e85;" horiz-adv-x="652" 
d="M642 495q-33 -125 -66 -247.5t-67 -247.5h-107l-30 115l-46 185h-3q-11 -42 -21 -87t-21 -85q-11 -41 -18.5 -70.5t-14.5 -57.5h-108q-33 125 -66 247.5t-67 247.5h118l32 -152q9 -44 18 -87t20 -87h4q11 44 20.5 86t20.5 87q9 38 18 76.5t17 76.5h101l31 -138l46 -191h4
q3 10 5.5 21t6.5 30t10 49t16 77q8 38 15 76t16 76h116zM361 575v108h107v-108h-107zM180 575v108h106v-108h-106z" />
    <glyph glyph-name="Ygrave" unicode="&#x1ef2;" horiz-adv-x="476" 
d="M241 404q11 34 23 67t24 67l61 158h121l-176 -412v-284h-112v284l-176 413h124q15 -41 30.5 -81t29.5 -80q11 -32 22.5 -66t22.5 -66h6zM275 732l-188 100l72 81l160 -126z" />
    <glyph glyph-name="ygrave" unicode="&#x1ef3;" horiz-adv-x="413" 
d="M230 -93q-17 -56 -53.5 -82t-87.5 -26h-37v95h26q44 0 60 61l18 64l-155 476h118l48 -179l39 -152h4l38 152l48 179h116zM191 543l-120 174l99 38l84 -181z" />
    <glyph glyph-name="trianglebullet" unicode="&#x2023;" horiz-adv-x="545" 
d="M509 282l-428 -246v481z" />
    <glyph glyph-name="published" unicode="&#x2117;" horiz-adv-x="758" 
d="M377 -10q-75 0 -135.5 26.5t-103.5 73t-66 111t-23 140.5t23.5 141t66 112t103 74t135.5 27q74 0 134.5 -26.5t103.5 -74t66.5 -112.5t23.5 -141q0 -75 -23.5 -139.5t-66.5 -111.5t-103.5 -73.5t-134.5 -26.5zM377 628q-59 0 -106 -22.5t-80 -61t-50.5 -91t-17.5 -112.5
q0 -59 18 -111t51.5 -90.5t80.5 -60.5t104 -22q59 0 106 22t80 60.5t50.5 90.5t17.5 111q0 61 -18 113.5t-51 91t-80 60.5t-105 22zM404 546q63 0 98 -32.5t35 -103.5q0 -57 -32.5 -96.5t-98.5 -39.5h-59v-158h-80v430h137zM347 474v-126h49q64 0 64 63q0 30 -14.5 46.5
t-43.5 16.5h-55z" />
    <glyph glyph-name="Ohm" unicode="&#x2126;" horiz-adv-x="517" 
d="M292 116q29 11 46.5 37t17.5 63v271q0 19 -6 37.5t-18 33.5t-30.5 24t-43.5 9q-26 0 -44.5 -9t-31.5 -23.5t-19 -33.5t-6 -38v-263q0 -38 17 -67.5t49 -40.5v-116h-191v105h60q0 1 0.5 1t0.5 1q-29 21 -39 58.5t-10 79.5v239q0 42 13.5 81.5t40 69.5t66.5 48t94 18
q50 0 89.5 -17t67 -46.5t42 -69t14.5 -84.5v-242q0 -43 -11 -78.5t-39 -57.5l1 -1h61v-105h-191v116v0z" />
    <glyph glyph-name="angstrom" unicode="&#x212b;" horiz-adv-x="526" 
d="M159 791q0 20 8 38t21.5 31.5t32 21t39.5 7.5q42 0 70.5 -28.5t28.5 -69.5q0 -36 -24.5 -63t-60.5 -32h43l202 -696h-121l-39 150h-193q-2 -9 -8 -30t-12.5 -45t-12 -45t-8.5 -30h-119l201 696h38q-37 5 -61.5 32t-24.5 63zM227 392l-36 -140h142l-35 139q-2 9 -6.5 30
t-10 44t-10.5 43.5t-6 29.5h-5zM300 791q0 17 -11.5 28t-28.5 11t-29 -11t-12 -28q0 -16 12 -27t29 -11t28.5 11t11.5 27z" />
    <glyph glyph-name="centigrade" unicode="&#x2103;" horiz-adv-x="787" 
d="M761 148q-17 -73 -72 -113.5t-133 -40.5q-54 0 -94 17t-67 47t-40 70.5t-13 87.5v270q0 41 13 80t39.5 69t66.5 48t95 18q84 0 136.5 -44t69.5 -110l-109 -36q-3 15 -10 29t-19 25.5t-29 18.5t-39 7q-26 0 -44.5 -9t-30.5 -23.5t-18 -32.5t-6 -36v-277q0 -22 6 -42
t18.5 -35t31 -23.5t43.5 -8.5q37 0 63 21t33 58zM295 571q0 -27 -10.5 -50.5t-28.5 -41t-42 -27.5t-51 -10t-51.5 10t-42.5 27.5t-28.5 41t-10.5 50.5t10.5 50.5t28.5 41.5t42.5 28t51.5 10t51 -10t42 -28t28.5 -41.5t10.5 -50.5zM225 571q0 26 -18 43.5t-44 17.5t-44 -17.5
t-18 -43.5t18 -44t44 -18t44 18t18 44z" />
    <glyph glyph-name="afii61248" unicode="&#x2105;" horiz-adv-x="687" 
d="M517 354q42 0 69 -15.5t41 -41.5q11 -22 16 -54t5 -70q0 -84 -26 -124q-18 -29 -46 -41.5t-65 -12.5t-61.5 11.5t-39.5 33.5q-16 23 -22.5 55.5t-6.5 76.5q0 37 6 68.5t17 52.5q15 29 43 45t70 16zM562 713q-93 -183 -184.5 -365t-185.5 -365h-74q94 183 185.5 365
t184.5 365h74zM175 702q45 0 76.5 -22t45.5 -62l-76 -37q-16 39 -43 39q-29 0 -40.5 -23.5t-11.5 -78.5q0 -46 10.5 -70t41.5 -24q15 0 25 10t18 28l75 -36q-15 -41 -45.5 -62.5t-75.5 -21.5q-38 0 -64 12.5t-42 35.5t-23 56t-7 74q0 88 31.5 135t104.5 47zM517 273
q-22 0 -35 -19q-8 -12 -11 -33t-3 -51q0 -19 1.5 -36.5t6 -30.5t14 -20.5t25.5 -7.5q13 0 23.5 6.5t15.5 24.5q5 14 6.5 31.5t1.5 41.5q0 23 -2 40t-8 29q-11 25 -35 25z" />
    <glyph glyph-name="fahrenheit" unicode="&#x2109;" horiz-adv-x="752" 
d="M466 590v-189h235v-104h-235v-297h-114v696h387v-106h-273zM295 571q0 -27 -10.5 -50.5t-28.5 -41t-42 -27.5t-51 -10t-51.5 10t-42.5 27.5t-28.5 41t-10.5 50.5t10.5 50.5t28.5 41.5t42.5 28t51.5 10t51 -10t42 -28t28.5 -41.5t10.5 -50.5zM225 571q0 26 -18 43.5
t-44 17.5t-44 -17.5t-18 -43.5t18 -44t44 -18t44 18t18 44z" />
    <glyph glyph-name="afii61289" unicode="&#x2113;" horiz-adv-x="438" 
d="M406 149q-12 -33 -27.5 -62t-36 -50.5t-46 -34t-56.5 -12.5q-32 0 -59 12.5t-46.5 34.5t-30 52.5t-10.5 66.5v37q-7 -4 -21.5 -15t-21.5 -16l-32 52q5 3 15.5 11t22 17.5t22 18t14.5 12.5v228q0 56 11 95.5t29.5 64t44 35.5t55.5 11q22 0 42 -8t35.5 -24.5t25 -41.5
t9.5 -59q0 -82 -42 -159t-127 -167v-49q0 -35 6.5 -59t17 -39t23 -22t25.5 -7q55 0 91 105zM176 350q47 61 71 115.5t24 111.5q0 18 -9.5 37.5t-32.5 19.5q-20 0 -36.5 -28t-16.5 -92v-164z" />
    <glyph glyph-name="ampersandsmall" unicode="&#xe0fb;" horiz-adv-x="506" 
d="M340 38q-30 -22 -64 -32t-69 -10q-77 0 -117.5 40t-40.5 100q0 45 23 81t67 69q-20 23 -34 50.5t-14 63.5q0 54 39 89.5t110 35.5q40 0 80 -12.5t74 -48.5q-18 -16 -35.5 -32t-35.5 -33q-21 21 -41.5 28.5t-40.5 7.5q-24 0 -35 -11.5t-11 -25.5q0 -22 24 -52l124 -156
q14 29 18 67l99 -10q-5 -38 -16.5 -73.5t-31.5 -64.5q8 -9 20.5 -24t25.5 -31t25 -30.5t20 -23.5h-131zM217 88q17 0 34.5 6.5t29.5 17.5l-83 100q-21 -17 -32.5 -34.5t-11.5 -37.5q0 -21 15.5 -36.5t47.5 -15.5z" />
    <glyph glyph-name="exclamsmall" unicode="&#xe0fc;" horiz-adv-x="235" 
d="M164 144h-93l-8 377h109zM63 0v102h110v-102h-110z" />
    <glyph glyph-name="questionsmall" unicode="&#xe0fd;" horiz-adv-x="406" 
d="M379 381q0 -24 -6.5 -42t-16.5 -33.5t-22 -29.5t-24 -30q-14 -17 -27.5 -34.5t-13.5 -34.5v-35h-112v40q0 29 10.5 52.5t32.5 47.5q29 34 43.5 54t14.5 43q0 17 -11 31.5t-45 14.5q-29 0 -44.5 -19t-17.5 -50q-27 4 -54 7t-55 6q7 77 56 116.5t121 39.5q84 0 127.5 -39
t43.5 -105zM157 0v103h111v-103h-111z" />
    <glyph glyph-name="Asmall" unicode="&#xe0fe;" horiz-adv-x="452" 
d="M332 0q-8 27 -16 53.5t-16 53.5h-150l-33 -107h-112l169 521h101l171 -521h-114zM222 379l-28 -105q-5 -18 -10 -35.5t-10 -35.5h101q-6 20 -11.5 39.5t-10.5 39.5l-27 97h-4z" />
    <glyph glyph-name="Bsmall" unicode="&#xe0ff;" horiz-adv-x="444" 
d="M296 370q0 25 -17 39.5t-49 14.5h-70v-109h73q31 0 47 16.5t16 38.5zM304 163q0 26 -17 43t-51 17h-76v-124h73q35 0 53 18t18 46zM237 521q83 0 124 -38t41 -107q0 -29 -14.5 -57.5t-42.5 -45.5q33 -15 49 -47.5t16 -66.5q0 -69 -42.5 -114t-124.5 -45h-192v521h186z
" />
    <glyph glyph-name="Csmall" unicode="&#xe100;" horiz-adv-x="414" 
d="M396 138q-12 -67 -57.5 -105t-120.5 -38q-47 0 -80.5 13.5t-55.5 37.5t-32.5 57t-10.5 72v160q0 37 10 71.5t31.5 60.5t55.5 42t82 16q79 0 120.5 -36.5t55.5 -98.5l-100 -36q-5 31 -23 50.5t-50 19.5q-22 0 -36.5 -8t-23 -21t-12 -28t-3.5 -29v-164q0 -13 4 -27
t13 -25.5t22.5 -19t33.5 -7.5q30 0 49 18.5t25 52.5z" />
    <glyph glyph-name="Dsmall" unicode="&#xe101;" horiz-adv-x="454" 
d="M233 521q65 0 107.5 -25.5t59.5 -77.5q9 -26 10.5 -64t1.5 -84q0 -63 -2 -105.5t-13 -68.5q-11 -28 -29 -46.5t-40.5 -29.5t-49 -15.5t-55.5 -4.5h-171v521h181zM304 338q0 38 -19.5 60.5t-61.5 22.5h-63v-322h59q48 0 66.5 23t18.5 61v155z" />
    <glyph glyph-name="Esmall" unicode="&#xe102;" horiz-adv-x="401" 
d="M51 0v521h330v-99h-221v-109h191v-98h-191v-116h221v-99h-330z" />
    <glyph glyph-name="Fsmall" unicode="&#xe103;" horiz-adv-x="395" 
d="M160 422v-112h191v-98h-191v-212h-109v521h330v-99h-221z" />
    <glyph glyph-name="Gsmall" unicode="&#xe104;" horiz-adv-x="442" 
d="M221 94q21 0 35.5 7.5t23.5 19.5t13 27t4 30v23h-76v91h183v-106q0 -89 -47 -140t-134 -51q-51 0 -85.5 15.5t-56 41.5t-31 59.5t-9.5 69.5v157q0 37 10.5 70.5t32 59.5t56 41.5t82.5 15.5q78 0 119.5 -38.5t54.5 -100.5l-100 -31q-5 31 -23.5 50.5t-50.5 19.5
q-22 0 -36.5 -9.5t-22.5 -23.5t-11.5 -30.5t-3.5 -31.5v-146q0 -17 3.5 -33t11.5 -28.5t22.5 -20.5t35.5 -8z" />
    <glyph glyph-name="Hsmall" unicode="&#xe105;" horiz-adv-x="464" 
d="M305 0v216h-145v-216h-108v521h108v-209h145v209h107v-521h-107z" />
    <glyph glyph-name="Ismall" unicode="&#xe106;" horiz-adv-x="207" 
d="M49 0v521h109v-521h-109z" />
    <glyph glyph-name="Jsmall" unicode="&#xe107;" horiz-adv-x="360" 
d="M312 159q0 -42 -12.5 -72.5t-34.5 -51t-52 -30t-64 -9.5q-43 0 -82 14.5t-71 56.5l75 71q14 -17 32 -28.5t37 -11.5q30 0 47.5 16t17.5 51v356h107v-362v0z" />
    <glyph glyph-name="Ksmall" unicode="&#xe108;" horiz-adv-x="462" 
d="M226 394q7 9 20 26.5t27.5 37t28 37t19.5 26.5h125l-161 -215q7 -13 21 -37t31 -53.5t35.5 -62.5t36 -62.5t31 -53.5t21.5 -37h-123l-122 221l-55 -72v-149h-109v521h110v-216z" />
    <glyph glyph-name="Lsmall" unicode="&#xe109;" horiz-adv-x="391" 
d="M51 0v521h109v-422h218v-99h-327z" />
    <glyph glyph-name="Msmall" unicode="&#xe10a;" horiz-adv-x="568" 
d="M289 228l65 150l64 143h100v-521h-107v286h-4l-41 -100l-44 -99h-72l-41 91l-45 106h-4v-284h-108v521h100l66 -144l67 -149h4z" />
    <glyph glyph-name="Nsmall" unicode="&#xe10b;" horiz-adv-x="489" 
d="M344 0q-34 60 -69.5 118t-70.5 118l-45 75h-1v-311h-107v521h96l104 -175q21 -33 39.5 -67.5t38.5 -67.5q1 1 3 1v309h106v-521h-94z" />
    </font>
</defs>
</svg>
